{
.appVersion = "1230";
DisplayStrings = (
C,
"¡!",
"/afii61664",
"/g211",
"/g211",
"/g211",
"/uni0905/uni0904",
"/uni0972",
"/uni091F_uni094D",
"1non¹Eh2²o³H/foursuperior no½¼¾\012nn¹no¹onh¹HH¹HHO¹OOHH¹H\012nn²no²onh²HH²HHO²OOHH²H\012nn³no³onh³HH³HHO³OOHH³H\012nn/foursuperior no/foursuperior onh/foursuperior HH/foursuperior HHO/foursuperior OOHH/foursuperior H",
"1ºnº2ºnªEh2ªHºoªºHªºnHºH¾\012nnºnoºonhºHHºHHOºOH\012HºH11ºH2ºH3ºH4ºH5ºH6ºH7ºH8ºH9ºH\012nnªnoªonhªHHªHHOªOH\012HªH11ªH2ªH3ªH4ªH5ªH6ªH7ªH8ªH9ªH\012",
"ªº"
);
classes = (
{
automatic = 1;
code = "A B C D E F G H I J K L M N O P Q R S T U V W X Y Z Scaron OE Ydieresis Agrave Aacute Acircumflex Atilde Adieresis Aring AE Ccedilla Egrave Eacute Ecircumflex Edieresis Igrave Iacute Icircumflex Idieresis Eth Ntilde Ograve Oacute Ocircumflex Otilde Odieresis Oslash Ugrave Uacute Ucircumflex Udieresis Yacute Thorn Lslash Zcaron";
name = Uppercase;
},
{
code = "uni090A uni090B uni0915 uni092B uni0958 uni095E uni0960 g135 g201 g209 g217 g218 g219 g220 g257";
name = abvs1;
},
{
code = "uni0901 uni0902 uni0945 uni0946 uni0947 uni0948 uni0951 uni1CDA uni0947_uni0902 uni0947_uni0930_uni094D uni0947_uni0930_uni094D_uni0902 uni0948_uni0902 uni0948_uni0930_uni094D uni0948_uni0930_uni094D_uni0902 uni0930_uni094D uni0930_uni094D_uni0902";
name = abvs2;
},
{
code = "uni0941 uni0942 uni0943 uni0944 g133 g193 g194";
name = blws1;
},
{
code = "uni0919 uni091B uni091F uni0920 uni0921 uni0922 uni0933 g263 g264";
name = blws2;
},
{
code = "uni0941 uni0942 uni0943 uni0944 uni094D uni0962 uni0963 g133 g193 g194";
name = blws3;
},
{
code = "uni090B uni0915 uni092B uni0958 uni095E uni0960 g135 g201 g209 g217 g218 g220";
name = blws4;
},
{
code = "uni0926 g207 g215 g244 g245 g246 g247 g248 g249 g250 g253 g265 g266 g269 g270";
name = blws5;
},
{
code = "uni095C uni095D g217 g219 g220 g222 g223 g224 g225 g226 g227 g229 g233 g234 g236 g237 g239 g240 g242 g256 g257 g258";
name = blws6;
},
{

glyphs = (
{
glyphname = A;
layers = (
{
anchors = (
{
name = top;
position = "{293, 622}";
}
);
layerId = "EA62F474-A0CE-4CDB-8144-A83B4E00D785";
paths = (
{
closed = 1;
nodes = (
"247 628 LINE",
"83 80 LINE SMOOTH",
"76 61 OFFCURVE",
"52 40 OFFCURVE",
"25 40 CURVE",
"25 -3 LINE",
"103 4 OFFCURVE",
"120 4 OFFCURVE",
"211 -3 CURVE",
"211 40 LINE",
"132 43 OFFCURVE",
"141 67 OFFCURVE",
"152 103 CURVE SMOOTH",
"275 518 LINE",
"275 518 OFFCURVE",
"279 518 OFFCURVE",
"279 518 CURVE",
"399 103 LINE SMOOTH",
"410 67 OFFCURVE",
"406 43 OFFCURVE",
"334 40 CURVE",
"334 -3 LINE",
"454 5 OFFCURVE",
"467 5 OFFCURVE",
"587 -3 CURVE",
"587 40 LINE",
"559 40 OFFCURVE",
"535 61 OFFCURVE",
"530 80 CURVE SMOOTH",
"359 628 LINE"
);
},
{
closed = 1;
nodes = (
"150 231 LINE",
"150 183 LINE",
"398 183 LINE",
"398 231 LINE"
);
}
);
width = 607;
},
{
anchors = (
{
name = top;
position = "{291, 616}";
}
);
layerId = "B1D0FA45-0BED-409D-9800-57F37CCD9690";
paths = (
{
closed = 1;
nodes = (
"263 628 LINE",
"91 73 LINE SMOOTH",
"84 52 OFFCURVE",
"64 32 OFFCURVE",
"24 31 CURVE",
"24 -3 LINE",
"136 3 OFFCURVE",
"102 3 OFFCURVE",
"206 -3 CURVE",
"206 31 LINE",
"156 33 OFFCURVE",
"132 37 OFFCURVE",
"146 85 CURVE SMOOTH",
"276 519 LINE",
"276 519 OFFCURVE",
"280 519 OFFCURVE",
"280 519 CURVE",
"419 86 LINE SMOOTH",
"435 35 OFFCURVE",
"409 33 OFFCURVE",
"362 31 CURVE",
"362 -3 LINE",
"466 3 OFFCURVE",
"452 3 OFFCURVE",
"565 -3 CURVE",
"565 31 LINE",
"523 32 OFFCURVE",
"507 49 OFFCURVE",
"500 72 CURVE SMOOTH",
"320 628 LINE"
);
},
{
closed = 1;
nodes = (
"156 227 LINE",
"156 186 LINE",
"406 186 LINE",
"406 227 LINE"
);
}
);
width = 589;
}
);
leftKerningGroup = A;
rightKerningGroup = A;
unicode = 0041;
},
{
glyphname = AE;
layers = (
{
anchors = (
{
name = top;
position = "{867, 616}";
}
);
background = {
paths = (
{
closed = 1;
nodes = (
"513 522 OFFCURVE",
"467 522 OFFCURVE",
"426 522 CURVE SMOOTH",
"330 522 LINE SMOOTH",
"308 522 OFFCURVE",
"287 522 OFFCURVE",
"243 524 CURVE",
"243 496 LINE",
"292 494 OFFCURVE",
"300 483 OFFCURVE",
"300 431 CURVE SMOOTH",
"300 91 LINE SMOOTH",
"300 39 OFFCURVE",
"292 28 OFFCURVE",
"243 26 CURVE",
"243 -2 LINE",
"287 0 OFFCURVE",
"308 0 OFFCURVE",
"330 0 CURVE SMOOTH",
"425 0 LINE SMOOTH",
"473 0 OFFCURVE",
"511 0 OFFCURVE",
"572 -4 CURVE",
"601 142 LINE",
"572 142 LINE",
"555 79 OFFCURVE",
"535 35 OFFCURVE",
"426 35 CURVE SMOOTH",
"360 35 LINE",
"360 487 LINE",
"429 487 LINE SMOOTH",
"509 487 OFFCURVE",
"530 461 OFFCURVE",
"548 381 CURVE",
"576 381 LINE",
"566 526 LINE"
);
},
{
closed = 1;
nodes = (
"464 334 LINE",
"462 285 OFFCURVE",
"438 275 OFFCURVE",
"393 275 CURVE SMOOTH",
"329 275 LINE",
"329 240 LINE",
"393 240 LINE SMOOTH",
"438 240 OFFCURVE",
"462 230 OFFCURVE",
"464 181 CURVE",
"492 181 LINE",
"487 269 OFFCURVE",
"487 247 OFFCURVE",
"492 334 CURVE"
);
},
{
closed = 1;
nodes = (
"515 522 OFFCURVE",
"467 522 OFFCURVE",
"411 522 CURVE",
"301 522 LINE",
"271 522 OFFCURVE",
"250 522 OFFCURVE",
"206 524 CURVE",
"206 496 LINE",
"255 494 OFFCURVE",
"269 478 OFFCURVE",
"252 437 CURVE",
"70 61 LINE SMOOTH",
"61 43 OFFCURVE",
"48 27 OFFCURVE",
"14 26 CURVE",
"14 -2 LINE",
"108 2 OFFCURVE",
"79 2 OFFCURVE",
"166 -2 CURVE",
"166 26 LINE",
"125 28 OFFCURVE",
"98 31 OFFCURVE",
"117 71 CURVE SMOOTH",
"169 181 LINE",
"300 181 LINE",
"300 91 LINE SMOOTH",
"300 39 OFFCURVE",
"292 28 OFFCURVE",
"243 26 CURVE",
"243 -2 LINE",
"287 0 OFFCURVE",
"308 0 OFFCURVE",
"330 0 CURVE SMOOTH",
"425 0 LINE SMOOTH",
"473 0 OFFCURVE",
"511 0 OFFCURVE",
"572 -4 CURVE",
"601 142 LINE",
"572 142 LINE",
"555 79 OFFCURVE",
"535 35 OFFCURVE",
"426 35 CURVE SMOOTH",
"360 35 LINE",
"360 241 LINE",
"393 241 LINE SMOOTH",
"438 241 OFFCURVE",
"462 231 OFFCURVE",
"464 182 CURVE",
"492 182 LINE",
"487 270 OFFCURVE",
"487 248 OFFCURVE",
"492 335 CURVE",
"464 335 LINE",
"462 286 OFFCURVE",
"438 276 OFFCURVE",
"393 276 CURVE SMOOTH",
"360 276 LINE",
"360 487 LINE",
"429 487 LINE SMOOTH",
"509 487 OFFCURVE",
"530 461 OFFCURVE",
"548 381 CURVE",
"576 381 LINE",
"566 526 LINE"
);
},
{
closed = 1;
nodes = (
"300 216 LINE",
"186 216 LINE",
"265 384 LINE",
"300 466 LINE"
);
}
);
};
layerId = "B1D0FA45-0BED-409D-9800-57F37CCD9690";
leftMetricsKey = "=A-7";
rightMetricsKey = "=E";
paths = (
{
closed = 1;
nodes = (
"616 625 OFFCURVE",
"559 625 OFFCURVE",
"491 625 CURVE",
"360 625 LINE",
"324 625 OFFCURVE",
"299 625 OFFCURVE",
"247 627 CURVE",
"247 593 LINE",
"305 591 OFFCURVE",
"321 571 OFFCURVE",
"301 523 CURVE",
"84 73 LINE SMOOTH",
"73 52 OFFCURVE",
"57 32 OFFCURVE",
"17 31 CURVE",
"17 -3 LINE",
"129 3 OFFCURVE",
"99 3 OFFCURVE",
"203 -3 CURVE",
"203 31 LINE",
"154 33 OFFCURVE",
"122 37 OFFCURVE",
"145 85 CURVE SMOOTH",
"207 216 LINE",
"359 216 LINE",
"359 109 LINE SMOOTH",
"359 47 OFFCURVE",
"349 33 OFFCURVE",
"291 31 CURVE",
"291 -3 LINE",
"343 0 OFFCURVE",
"368 0 OFFCURVE",
"395 0 CURVE SMOOTH",
"508 0 LINE SMOOTH",
"566 0 OFFCURVE",
"611 0 OFFCURVE",
"684 -5 CURVE",
"719 170 LINE",
"684 170 LINE",
"663 95 OFFCURVE",
"639 42 OFFCURVE",
"510 42 CURVE SMOOTH",
"431 42 LINE",
"431 288 LINE",
"470 288 LINE SMOOTH",
"524 288 OFFCURVE",
"552 276 OFFCURVE",
"555 218 CURVE",
"588 218 LINE",
"582 323 OFFCURVE",
"582 296 OFFCURVE",
"588 401 CURVE",
"555 401 LINE",
"552 342 OFFCURVE",
"524 330 OFFCURVE",
"470 330 CURVE SMOOTH",
"431 330 LINE",
"431 582 LINE",
"513 582 LINE SMOOTH",
"608 582 OFFCURVE",
"634 551 OFFCURVE",
"655 455 CURVE",
"689 455 LINE",
"677 629 LINE"
);
},
{
closed = 1;
nodes = (
"359 259 LINE",
"225 259 LINE",
"318 459 LINE",
"359 558 LINE"
);
}
);
width = 772;
},
{
anchors = (
{
name = top;
position = "{542, 622}";
}
);
background = {
paths = (
{
closed = 1;
nodes = (
"142 200 LINE",
"142 160 LINE",
"340 160 LINE",
"340 200 LINE"
);
},
{
closed = 1;
nodes = (
"549 523 OFFCURVE",
"512 522 OFFCURVE",
"460 522 CURVE SMOOTH",
"365 522 LINE",
"308 449 LINE",
"308 111 LINE",
"308 55 OFFCURVE",
"301 36 OFFCURVE",
"243 34 CURVE",
"243 -2 LINE",
"297 0 OFFCURVE",
"331 0 OFFCURVE",
"365 0 CURVE SMOOTH",
"453 0 LINE SMOOTH",
"505 0 OFFCURVE",
"548 -1 OFFCURVE",
"613 -6 CURVE",
"644 155 LINE",
"606 155 LINE",
"588 89 OFFCURVE",
"549 40 OFFCURVE",
"457 40 CURVE SMOOTH",
"406 40 LINE",
"406 482 LINE",
"460 482 LINE SMOOTH",
"550 482 OFFCURVE",
"571 439 OFFCURVE",
"586 378 CURVE",
"625 378 LINE",
"616 528 LINE"
);
},
{
closed = 1;
nodes = (
"499 337 LINE",
"497 277 OFFCURVE",
"465 263 OFFCURVE",
"422 263 CURVE SMOOTH",
"357 263 LINE",
"357 223 LINE",
"422 223 LINE SMOOTH",
"465 223 OFFCURVE",
"497 210 OFFCURVE",
"499 154 CURVE",
"535 154 LINE",
"528 230 OFFCURVE",
"528 262 OFFCURVE",
"535 337 CURVE"
);
},
{
closed = 1;
nodes = (
"295 522 OFFCURVE",
"261 522 OFFCURVE",
"207 524 CURVE",
"207 488 LINE",
"265 486 OFFCURVE",
"276 466 OFFCURVE",
"250 420 CURVE",
"71 67 LINE SMOOTH",
"63 51 OFFCURVE",
"44 34 OFFCURVE",
"21 34 CURVE",
"21 -2 LINE",
"86 3 OFFCURVE",
"102 3 OFFCURVE",
"178 -2 CURVE",
"178 34 LINE",
"112 36 OFFCURVE",
"113 56 OFFCURVE",
"129 86 CURVE SMOOTH",
"322 455 LINE",
"322 455 OFFCURVE",
"325 455 OFFCURVE",
"325 455 CURVE",
"368 522 LINE",
"329 522 LINE"
);
}
);
};
layerId = "EA62F474-A0CE-4CDB-8144-A83B4E00D785";
paths = (
{
closed = 1;
nodes = (
"657 626 OFFCURVE",
"613 625 OFFCURVE",
"550 625 CURVE SMOOTH",
"394 625 LINE SMOOTH",
"353 625 OFFCURVE",
"312 625 OFFCURVE",
"247 627 CURVE",
"247 583 LINE",
"317 581 OFFCURVE",
"330 558 OFFCURVE",
"299 502 CURVE",
"85 80 LINE SMOOTH",
"75 61 OFFCURVE",
"52 40 OFFCURVE",
"25 40 CURVE",
"25 -3 LINE",
"103 4 OFFCURVE",
"122 4 OFFCURVE",
"213 -3 CURVE",
"213 40 LINE",
"134 43 OFFCURVE",
"135 67 OFFCURVE",
"155 103 CURVE SMOOTH",
"201 191 LINE",
"368 191 LINE",
"368 132 LINE SMOOTH",
"368 66 OFFCURVE",
"360 43 OFFCURVE",
"291 40 CURVE",
"291 -3 LINE",
"355 0 OFFCURVE",
"396 0 OFFCURVE",
"437 0 CURVE SMOOTH",
"542 0 LINE SMOOTH",
"604 0 OFFCURVE",
"655 -1 OFFCURVE",
"733 -7 CURVE",
"770 186 LINE",
"725 186 LINE",
"703 107 OFFCURVE",
"657 48 OFFCURVE",
"546 48 CURVE SMOOTH",
"486 48 LINE",
"486 267 LINE",
"505 267 LINE SMOOTH",
"557 267 OFFCURVE",
"594 251 OFFCURVE",
"597 184 CURVE",
"640 184 LINE",
"631 275 OFFCURVE",
"631 314 OFFCURVE",
"640 403 CURVE",
"597 403 LINE",
"594 331 OFFCURVE",
"557 315 OFFCURVE",
"505 315 CURVE SMOOTH",
"486 315 LINE",
"486 577 LINE",
"550 577 LINE SMOOTH",
"658 577 OFFCURVE",
"683 525 OFFCURVE",
"701 452 CURVE",
"748 452 LINE",
"737 631 LINE"
);
},
{
closed = 1;
nodes = (
"368 239 LINE",
"225 239 LINE",
"334 446 LINE",
"368 525 LINE"
);
}
);
width = 808;
}
);
leftMetricsKey = A;
rightKerningGroup = E;
rightMetricsKey = E;
unicode = 00C6;
},
{
glyphname = B;
layers = (
{
background = {
paths = (
{
closed = 1;
nodes = (
"162 532 OFFCURVE",
"116 526 OFFCURVE",
"25 526 CURVE",
"25 490 LINE",
"83 488 OFFCURVE",
"90 469 OFFCURVE",
"90 413 CURVE SMOOTH",
"90 111 LINE SMOOTH",
"90 55 OFFCURVE",
"83 38 OFFCURVE",
"25 36 CURVE",
"25 0 LINE",
"113 0 OFFCURVE",
"174 -4 OFFCURVE",
"225 -4 CURVE SMOOTH",
"381 -4 OFFCURVE",
"442 52 OFFCURVE",
"442 157 CURVE SMOOTH",
"442 236 OFFCURVE",
"390 271 OFFCURVE",
"321 286 CURVE",
"290 298 LINE",
"159 298 LINE SMOOTH",
"159 298 OFFCURVE",
"166 251 OFFCURVE",
"166 251 CURVE",
"228 252 LINE SMOOTH",
"308 253 OFFCURVE",
"339 217 OFFCURVE",
"339 152 CURVE SMOOTH",
"339 90 OFFCURVE",
"299 45 OFFCURVE",
"234 45 CURVE SMOOTH",
"188 45 LINE",
"188 483 LINE",
"229 483 LINE SMOOTH",
"300 483 OFFCURVE",
"322 439 OFFCURVE",
"322 379 CURVE SMOOTH",
"322 353 OFFCURVE",
"313 321 OFFCURVE",
"276 297 CURVE",
"310 279 LINE",
"385 295 OFFCURVE",
"416 335 OFFCURVE",
"416 394 CURVE SMOOTH",
"416 472 OFFCURVE",
"369 532 OFFCURVE",
"227 532 CURVE SMOOTH"
);
}
);
};
layerId = "EA62F474-A0CE-4CDB-8144-A83B4E00D785";
paths = (
{
closed = 1;
nodes = (
"212 631 OFFCURVE",
"156 625 OFFCURVE",
"48 625 CURVE",
"48 581 LINE",
"117 579 OFFCURVE",
"126 557 OFFCURVE",
"126 489 CURVE SMOOTH",
"126 132 LINE SMOOTH",
"126 66 OFFCURVE",
"117 45 OFFCURVE",
"48 43 CURVE",
"48 0 LINE",
"153 0 OFFCURVE",
"226 -7 OFFCURVE",
"287 -7 CURVE SMOOTH",
"474 -7 OFFCURVE",
"546 63 OFFCURVE",
"546 188 CURVE SMOOTH",
"546 282 OFFCURVE",
"485 324 OFFCURVE",
"402 342 CURVE",
"365 356 LINE",
"208 356 LINE SMOOTH",
"208 356 OFFCURVE",
"216 300 OFFCURVE",
"216 300 CURVE",
"291 302 LINE SMOOTH",
"386 303 OFFCURVE",
"423 259 OFFCURVE",
"423 182 CURVE SMOOTH",
"423 108 OFFCURVE",
"375 54 OFFCURVE",
"298 54 CURVE SMOOTH",
"243 54 LINE",
"243 578 LINE",
"292 578 LINE SMOOTH",
"377 578 OFFCURVE",
"403 531 OFFCURVE",
"403 461 CURVE SMOOTH",
"403 423 OFFCURVE",
"390 384 OFFCURVE",
"348 355 CURVE",
"389 334 LINE",
"478 353 OFFCURVE",
"515 401 OFFCURVE",
"515 471 CURVE SMOOTH",
"515 565 OFFCURVE",
"459 631 OFFCURVE",
"290 631 CURVE SMOOTH"
);
}
);
width = 583;
},
{
background = {
paths = (
{
closed = 1;
nodes = (
"107 526 OFFCURVE",
"105 522 OFFCURVE",
"11 522 CURVE",
"11 494 LINE",
"60 492 OFFCURVE",
"68 481 OFFCURVE",
"68 429 CURVE SMOOTH",
"68 93 LINE SMOOTH",
"68 41 OFFCURVE",
"60 30 OFFCURVE",
"11 28 CURVE",
"11 0 LINE",
"94 0 OFFCURVE",
"136 -4 OFFCURVE",
"174 -4 CURVE SMOOTH",
"311 -4 OFFCURVE",
"368 54 OFFCURVE",
"368 163 CURVE SMOOTH",
"368 244 OFFCURVE",
"311 285 OFFCURVE",
"250 296 CURVE",
"233 305 LINE",
"109 305 LINE SMOOTH",
"109 305 OFFCURVE",
"110 266 OFFCURVE",
"110 266 CURVE",
"203 266 LINE SMOOTH",
"274 266 OFFCURVE",
"302 222 OFFCURVE",
"302 153 CURVE SMOOTH",
"302 82 OFFCURVE",
"269 35 OFFCURVE",
"186 35 CURVE SMOOTH",
"128 35 LINE",
"128 487 LINE",
"187 487 LINE SMOOTH",
"251 487 OFFCURVE",
"271 448 OFFCURVE",
"271 393 CURVE SMOOTH",
"271 364 OFFCURVE",
"251 325 OFFCURVE",
"218 303 CURVE",
"240 293 LINE",
"310 301 OFFCURVE",
"335 356 OFFCURVE",
"335 403 CURVE SMOOTH",
"335 476 OFFCURVE",
"279 526 OFFCURVE",
"166 526 CURVE SMOOTH"
);
}
);
};
layerId = "B1D0FA45-0BED-409D-9800-57F37CCD9690";
leftMetricsKey = "=I";
paths = (
{
closed = 1;
nodes = (
"190 629 OFFCURVE",
"178 625 OFFCURVE",
"66 625 CURVE",
"66 591 LINE",
"124 589 OFFCURVE",
"134 575 OFFCURVE",
"134 513 CURVE SMOOTH",
"134 111 LINE SMOOTH",
"134 49 OFFCURVE",
"124 36 OFFCURVE",
"66 33 CURVE",
"66 0 LINE",
"165 0 OFFCURVE",
"215 -5 OFFCURVE",
"260 -5 CURVE SMOOTH",
"422 -5 OFFCURVE",
"494 63 OFFCURVE",
"494 187 CURVE SMOOTH",
"494 258 OFFCURVE",
"452 334 OFFCURVE",
"350 339 CURVE",
"331 348 LINE",
"183 348 LINE SMOOTH",
"183 348 OFFCURVE",
"184 303 OFFCURVE",
"184 303 CURVE",
"283 303 LINE SMOOTH",
"372 303 OFFCURVE",
"415 267 OFFCURVE",
"415 177 CURVE SMOOTH",
"415 99 OFFCURVE",
"375 40 OFFCURVE",
"275 40 CURVE SMOOTH",
"206 42 LINE",
"206 582 LINE",
"286 582 LINE SMOOTH",
"355 582 OFFCURVE",
"387 533 OFFCURVE",
"387 477 CURVE SMOOTH",
"387 430 OFFCURVE",
"365 372 OFFCURVE",
"323 344 CURVE",
"350 332 LINE",
"428 355 OFFCURVE",
"463 422 OFFCURVE",
"463 482 CURVE SMOOTH",
"463 570 OFFCURVE",
"391 629 OFFCURVE",
"260 629 CURVE SMOOTH"
);
}
);
width = 542;
}
);
leftKerningGroup = H;
leftMetricsKey = I;
unicode = 0042;
},
{
glyphname = C;
layers = (
{
anchors = (
{
name = bottom;
position = "{274, -30}";
}
);
layerId = "EA62F474-A0CE-4CDB-8144-A83B4E00D785";
paths = (
{
closed = 1;
nodes = (
"150 638 OFFCURVE",
"36 503 OFFCURVE",
"36 280 CURVE SMOOTH",
"36 83 OFFCURVE",
"150 -15 OFFCURVE",
"290 -15 CURVE SMOOTH",
"365 -15 OFFCURVE",
"447 15 OFFCURVE",
"523 73 CURVE",
"503 110 LINE",
"454 80 OFFCURVE",
"403 61 OFFCURVE",
"351 61 CURVE SMOOTH",
"248 61 OFFCURVE",
"162 131 OFFCURVE",
"162 307 CURVE SMOOTH",
"162 479 OFFCURVE",
"210 582 OFFCURVE",
"331 582 CURVE SMOOTH",
"409 582 OFFCURVE",
"455 527 OFFCURVE",
"455 430 CURVE",
"503 430 LINE",
"503 493 OFFCURVE",
"502 555 OFFCURVE",
"510 618 CURVE",
"454 631 OFFCURVE",
"396 638 OFFCURVE",
"351 638 CURVE SMOOTH"
);
}
);
width = 565;
},
{
anchors = (
{
name = bottom;
position = "{274, -30}";
}
);
layerId = "B1D0FA45-0BED-409D-9800-57F37CCD9690";
paths = (
{
closed = 1;
nodes = (
"156 640 OFFCURVE",
"54 505 OFFCURVE",
"54 280 CURVE SMOOTH",
"54 84 OFFCURVE",
"158 -12 OFFCURVE",
"284 -12 CURVE SMOOTH",
"354 -12 OFFCURVE",
"430 17 OFFCURVE",
"499 75 CURVE",
"486 99 LINE",
"435 68 OFFCURVE",
"378 49 OFFCURVE",
"326 49 CURVE SMOOTH",
"222 49 OFFCURVE",
"132 121 OFFCURVE",
"132 306 CURVE SMOOTH",
"132 481 OFFCURVE",
"180 597 OFFCURVE",
"315 597 CURVE SMOOTH",
"391 597 OFFCURVE",
"443 541 OFFCURVE",
"443 455 CURVE",
"478 455 LINE",
"478 511 OFFCURVE",
"479 565 OFFCURVE",
"485 619 CURVE",
"443 631 OFFCURVE",
"382 640 OFFCURVE",
"339 640 CURVE SMOOTH"
);
}
);
width = 546;
},
{
associatedMasterId = "B1D0FA45-0BED-409D-9800-57F37CCD9690";
background = {
paths = (
{
closed = 1;
nodes = (
"363 49 OFFCURVE",
"316 36 OFFCURVE",
"274 36 CURVE SMOOTH",
"179 36 OFFCURVE",
"110 100 OFFCURVE",
"110 256 CURVE SMOOTH",
"110 402 OFFCURVE",
"151 499 OFFCURVE",
"263 499 CURVE SMOOTH",
"327 499 OFFCURVE",
"370 452 OFFCURVE",
"370 381 CURVE",
"400 381 LINE",
"400 427 OFFCURVE",
"401 472 OFFCURVE",
"405 518 CURVE",
"371 528 OFFCURVE",
"319 535 OFFCURVE",
"284 535 CURVE SMOOTH",
"131 535 OFFCURVE",
"45 422 OFFCURVE",
"45 234 CURVE SMOOTH",
"45 76 OFFCURVE",
"112 -12 OFFCURVE",
"240 -12 CURVE SMOOTH",
"314 -12 OFFCURVE",
"382 20 OFFCURVE",
"418 50 CURVE",
"411 71 LINE"
);
}
);
};
layerId = "212E07EC-C50A-438B-9CA4-9A7AE3E1ED1A";
name = "san serif abajo";
paths = (
{
closed = 1;
nodes = (
"364 57 OFFCURVE",
"316 41 OFFCURVE",
"272 41 CURVE SMOOTH",
"185 41 OFFCURVE",
"110 101 OFFCURVE",
"110 256 CURVE SMOOTH",
"110 402 OFFCURVE",
"151 499 OFFCURVE",
"263 499 CURVE SMOOTH",
"327 499 OFFCURVE",
"370 452 OFFCURVE",
"370 381 CURVE",
"400 381 LINE",
"400 427 OFFCURVE",
"401 472 OFFCURVE",
"405 518 CURVE",
"371 528 OFFCURVE",
"319 535 OFFCURVE",
"284 535 CURVE SMOOTH",
"131 535 OFFCURVE",
"45 422 OFFCURVE",
"45 234 CURVE SMOOTH",
"45 70 OFFCURVE",
"132 -10 OFFCURVE",
"238 -10 CURVE SMOOTH",
"296 -10 OFFCURVE",
"359 14 OFFCURVE",
"417 62 CURVE",
"406 83 LINE"
);
}
);
width = 458;
},
{
associatedMasterId = "B1D0FA45-0BED-409D-9800-57F37CCD9690";
layerId = "9C1BA343-917A-450A-8065-35BD1BC53239";
name = "con serif";
paths = (
{
closed = 1;
nodes = (
"131 535 OFFCURVE",
"45 422 OFFCURVE",
"45 234 CURVE SMOOTH",
"45 76 OFFCURVE",
"111 -12 OFFCURVE",
"250 -12 CURVE SMOOTH",
"298 -12 OFFCURVE",
"355 -4 OFFCURVE",
"399 17 CURVE",
"418 155 LINE",
"388 155 LINE",
"374 76 OFFCURVE",
"324 25 OFFCURVE",
"259 25 CURVE SMOOTH",
"163 25 OFFCURVE",
"110 106 OFFCURVE",
"110 256 CURVE SMOOTH",
"110 402 OFFCURVE",
"151 499 OFFCURVE",
"263 499 CURVE SMOOTH",
"327 499 OFFCURVE",
"370 452 OFFCURVE",
"370 381 CURVE",
"400 381 LINE",
"400 427 OFFCURVE",
"401 472 OFFCURVE",
"405 518 CURVE",
"371 528 OFFCURVE",
"319 535 OFFCURVE",
"284 535 CURVE SMOOTH"
);
}
);
width = 458;
}
);
leftKerningGroup = O;
leftMetricsKey = O;
rightKerningGroup = C;
unicode = 0043;
},
{
glyphname = D;
layers = (
{
layerId = "EA62F474-A0CE-4CDB-8144-A83B4E00D785";
leftMetricsKey = "=I";
rightMetricsKey = "=O";
paths = (
{
closed = 1;
nodes = (
"238 631 OFFCURVE",
"235 625 OFFCURVE",
"48 625 CURVE",
"48 581 LINE",
"117 579 OFFCURVE",
"126 557 OFFCURVE",
"126 489 CURVE SMOOTH",
"126 132 LINE SMOOTH",
"126 66 OFFCURVE",
"117 45 OFFCURVE",
"48 43 CURVE",
"48 0 LINE",
"147 0 OFFCURVE",
"203 -7 OFFCURVE",
"275 -7 CURVE SMOOTH",
"499 -7 OFFCURVE",
"622 126 OFFCURVE",
"622 341 CURVE SMOOTH",
"622 529 OFFCURVE",
"529 631 OFFCURVE",
"327 631 CURVE SMOOTH"
);
},
{
closed = 1;
nodes = (
"446 581 OFFCURVE",
"497 471 OFFCURVE",
"497 304 CURVE SMOOTH",
"497 144 OFFCURVE",
"439 43 OFFCURVE",
"299 43 CURVE SMOOTH",
"243 43 LINE",
"243 581 LINE",
"316 581 LINE SMOOTH"
);
}
);
width = 658;
},
{
background = {
paths = (
{
closed = 1;
nodes = (
"175 526 OFFCURVE",
"140 522 OFFCURVE",
"55 522 CURVE",
"55 494 LINE",
"104 492 OFFCURVE",
"112 481 OFFCURVE",
"112 429 CURVE SMOOTH",
"112 93 LINE SMOOTH",
"112 41 OFFCURVE",
"104 30 OFFCURVE",
"55 28 CURVE",
"55 0 LINE",
"103 0 OFFCURVE",
"172 -4 OFFCURVE",
"216 -4 CURVE SMOOTH",
"388 -4 OFFCURVE",
"483 93 OFFCURVE",
"483 289 CURVE SMOOTH",
"483 440 OFFCURVE",
"407 526 OFFCURVE",
"251 526 CURVE SMOOTH"
);
},
{
closed = 1;
nodes = (
"373 487 OFFCURVE",
"417 399 OFFCURVE",
"417 281 CURVE SMOOTH",
"417 139 OFFCURVE",
"371 35 OFFCURVE",
"259 35 CURVE SMOOTH",
"172 35 LINE",
"172 487 LINE",
"233 487 LINE SMOOTH"
);
}
);
};
layerId = "B1D0FA45-0BED-409D-9800-57F37CCD9690";
leftMetricsKey = "=I";
rightMetricsKey = "=O";
paths = (
{
closed = 1;
nodes = (
"210 629 OFFCURVE",
"167 625 OFFCURVE",
"66 625 CURVE",
"66 591 LINE",
"124 589 OFFCURVE",
"134 575 OFFCURVE",
"134 513 CURVE SMOOTH",
"134 111 LINE SMOOTH",
"134 49 OFFCURVE",
"124 36 OFFCURVE",
"66 33 CURVE",
"66 0 LINE",
"123 0 OFFCURVE",
"206 -5 OFFCURVE",
"259 -5 CURVE SMOOTH",
"431 -5 OFFCURVE",
"578 108 OFFCURVE",
"578 347 CURVE SMOOTH",
"578 529 OFFCURVE",
"487 629 OFFCURVE",
"300 629 CURVE SMOOTH"
);
},
{
closed = 1;
nodes = (
"446 582 OFFCURVE",
"499 477 OFFCURVE",
"499 336 CURVE SMOOTH",
"499 163 OFFCURVE",
"454 42 OFFCURVE",
"283 42 CURVE SMOOTH",
"206 42 LINE",
"206 582 LINE",
"279 582 LINE SMOOTH"
);
}
);
width = 632;
}
);
leftKerningGroup = H;
leftMetricsKey = I;
rightKerningGroup = O;
rightMetricsKey = O;
unicode = 0044;
},
{
glyphname = Eth;
layers = (
{
background = {
paths = (
{
closed = 1;
nodes = (
"182 535 OFFCURVE",
"83 441 OFFCURVE",
"83 233 CURVE SMOOTH",
"83 76 OFFCURVE",
"145 -10 OFFCURVE",
"270 -10 CURVE SMOOTH",
"386 -10 OFFCURVE",
"485 87 OFFCURVE",
"485 292 CURVE SMOOTH",
"485 449 OFFCURVE",
"423 535 OFFCURVE",
"298 535 CURVE SMOOTH"
);
},
{
closed = 1;
nodes = (
"384 499 OFFCURVE",
"420 406 OFFCURVE",
"420 282 CURVE SMOOTH",
"420 150 OFFCURVE",
"390 25 OFFCURVE",
"295 25 CURVE SMOOTH",
"185 25 OFFCURVE",
"148 119 OFFCURVE",
"148 243 CURVE SMOOTH",
"148 375 OFFCURVE",
"178 499 OFFCURVE",
"274 499 CURVE SMOOTH"
);
}
);
};
components = (
{
name = D;
transform = "{1, 0, 0, 1, 3, 0}";
}
);
guideLines = (
{
angle = 90;
position = "{57, 362}";
}
);
layerId = "B1D0FA45-0BED-409D-9800-57F37CCD9690";
paths = (
{
closed = 1;
nodes = (
"66 298 LINE",
"329 298 LINE",
"329 341 LINE",
"66 341 LINE"
);
}
);
width = 635;
},
{
background = {
components = (
{
name = D;
}
);
paths = (
{
closed = 1;
nodes = (
"53 247 LINE",
"273 247 LINE",
"273 287 LINE",
"53 287 LINE"
);
}
);
};
components = (
{
name = D;
}
);
guideLines = (
{
angle = 90;
position = "{40, 173}";
}
);
layerId = "EA62F474-A0CE-4CDB-8144-A83B4E00D785";
paths = (
{
closed = 1;
nodes = (
"48 292 LINE",
"351 292 LINE",
"351 350 LINE",
"48 350 LINE"
);
}
);
width = 658;
}
);
leftMetricsKey = D;
rightKerningGroup = O;
rightMetricsKey = D;
unicode = 00D0;
},
{
glyphname = E;
layers = (
{
anchors = (
{
name = top;
position = "{299, 622}";
}
);
background = {
anchors = (
{
name = top;
position = "{270, 515}";
}
);
paths = (
{
closed = 1;
nodes = (
"355 522 OFFCURVE",
"309 522 OFFCURVE",
"268 522 CURVE SMOOTH",
"172 522 LINE SMOOTH",
"150 522 OFFCURVE",
"129 522 OFFCURVE",
"85 524 CURVE",
"85 496 LINE",
"134 494 OFFCURVE",
"142 483 OFFCURVE",
"142 431 CURVE SMOOTH",
"142 91 LINE SMOOTH",
"142 39 OFFCURVE",
"134 28 OFFCURVE",
"85 26 CURVE",
"85 -2 LINE",
"129 0 OFFCURVE",
"150 0 OFFCURVE",
"172 0 CURVE SMOOTH",
"267 0 LINE SMOOTH",
"315 0 OFFCURVE",
"353 0 OFFCURVE",
"414 -4 CURVE",
"443 142 LINE",
"414 142 LINE",
"397 79 OFFCURVE",
"377 35 OFFCURVE",
"268 35 CURVE SMOOTH",
"202 35 LINE",
"202 487 LINE",
"271 487 LINE SMOOTH",
"351 487 OFFCURVE",
"372 461 OFFCURVE",
"390 381 CURVE",
"418 381 LINE",
"408 526 LINE"
);
},
{
closed = 1;
nodes = (
"306 334 LINE",
"304 285 OFFCURVE",
"280 275 OFFCURVE",
"235 275 CURVE SMOOTH",
"171 275 LINE",
"171 240 LINE",
"235 240 LINE SMOOTH",
"280 240 OFFCURVE",
"304 230 OFFCURVE",
"306 181 CURVE",
"334 181 LINE",
"329 269 OFFCURVE",
"329 247 OFFCURVE",
"334 334 CURVE"
);
}
);
};
layerId = "EA62F474-A0CE-4CDB-8144-A83B4E00D785";
paths = (
{
closed = 1;
nodes = (
"406 626 OFFCURVE",
"362 625 OFFCURVE",
"299 625 CURVE SMOOTH",
"194 625 LINE SMOOTH",
"153 625 OFFCURVE",
"112 625 OFFCURVE",
"48 627 CURVE",
"48 583 LINE",
"117 581 OFFCURVE",
"126 558 OFFCURVE",
"126 491 CURVE",
"126 132 LINE",
"126 66 OFFCURVE",
"117 43 OFFCURVE",
"48 40 CURVE",
"48 -3 LINE",
"112 0 OFFCURVE",
"153 0 OFFCURVE",
"194 0 CURVE SMOOTH",
"299 0 LINE SMOOTH",
"362 0 OFFCURVE",
"413 -1 OFFCURVE",
"490 -7 CURVE",
"527 186 LINE",
"482 186 LINE",
"461 107 OFFCURVE",
"414 48 OFFCURVE",
"304 48 CURVE SMOOTH",
"243 48 LINE",
"243 577 LINE",
"299 577 LINE SMOOTH",
"407 577 OFFCURVE",
"431 525 OFFCURVE",
"450 452 CURVE",
"497 452 LINE",
"486 631 LINE"
);
},
{
closed = 1;
nodes = (
"354 420 LINE",
"351 348 OFFCURVE",
"314 331 OFFCURVE",
"262 331 CURVE SMOOTH",
"184 331 LINE",
"184 283 LINE",
"262 283 LINE SMOOTH",
"314 283 OFFCURVE",
"351 268 OFFCURVE",
"354 201 CURVE",
"397 201 LINE",
"389 292 OFFCURVE",
"389 330 OFFCURVE",
"397 420 CURVE"
);
}
);
width = 565;
},
{
anchors = (
{
name = top;
position = "{287, 616}";
}
);
background = {
paths = (
{
closed = 1;
nodes = (
"83 0 OFFCURVE",
"117 0 OFFCURVE",
"151 0 CURVE SMOOTH",
"239 0 LINE SMOOTH",
"291 0 OFFCURVE",
"332 0 OFFCURVE",
"399 -4 CURVE",
"430 155 LINE",
"392 155 LINE",
"374 89 OFFCURVE",
"335 40 OFFCURVE",
"243 40 CURVE SMOOTH",
"192 40 LINE",
"192 482 LINE",
"246 482 LINE SMOOTH",
"336 482 OFFCURVE",
"357 439 OFFCURVE",
"372 378 CURVE",
"411 378 LINE",
"402 526 LINE",
"335 522 OFFCURVE",
"298 522 OFFCURVE",
"246 522 CURVE SMOOTH",
"151 522 LINE SMOOTH",
"117 522 OFFCURVE",
"83 522 OFFCURVE",
"29 526 CURVE",
"29 490 LINE",
"87 488 OFFCURVE",
"94 469 OFFCURVE",
"94 413 CURVE",
"94 111 LINE",
"94 55 OFFCURVE",
"87 36 OFFCURVE",
"29 34 CURVE",
"29 -2 LINE"
);
},
{
closed = 1;
nodes = (
"314 244 OFFCURVE",
"314 276 OFFCURVE",
"321 351 CURVE",
"285 351 LINE",
"283 287 OFFCURVE",
"264 277 OFFCURVE",
"208 277 CURVE SMOOTH",
"143 277 LINE SMOOTH",
"143 277 OFFCURVE",
"143 237 OFFCURVE",
"143 237 CURVE",
"208 237 LINE SMOOTH",
"264 237 OFFCURVE",
"283 228 OFFCURVE",
"285 168 CURVE",
"321 168 LINE"
);
}
);
};
layerId = "B1D0FA45-0BED-409D-9800-57F37CCD9690";
paths = (
{
closed = 1;
nodes = (
"389 625 OFFCURVE",
"334 625 OFFCURVE",
"284 625 CURVE SMOOTH",
"170 625 LINE SMOOTH",
"144 625 OFFCURVE",
"119 625 OFFCURVE",
"66 627 CURVE",
"66 593 LINE",
"124 591 OFFCURVE",
"134 578 OFFCURVE",
"134 515 CURVE SMOOTH",
"134 109 LINE SMOOTH",
"134 47 OFFCURVE",
"124 33 OFFCURVE",
"66 31 CURVE",
"66 -3 LINE",
"119 0 OFFCURVE",
"144 0 OFFCURVE",
"170 0 CURVE SMOOTH",
"283 0 LINE SMOOTH",
"341 0 OFFCURVE",
"386 0 OFFCURVE",
"459 -5 CURVE",
"494 170 LINE",
"459 170 LINE",
"439 95 OFFCURVE",
"415 42 OFFCURVE",
"284 42 CURVE SMOOTH",
"206 42 LINE",
"206 582 LINE",
"288 582 LINE SMOOTH",
"384 582 OFFCURVE",
"409 551 OFFCURVE",
"431 455 CURVE",
"464 455 LINE",
"452 629 LINE"
);
},
{
closed = 1;
nodes = (
"330 399 LINE",
"328 341 OFFCURVE",
"299 329 OFFCURVE",
"246 329 CURVE SMOOTH",
"168 329 LINE",
"168 287 LINE",
"246 287 LINE SMOOTH",
"299 287 OFFCURVE",
"328 275 OFFCURVE",
"330 216 CURVE",
"363 216 LINE",
"358 322 OFFCURVE",
"358 295 OFFCURVE",
"363 399 CURVE"
);
}
);
width = 547;
}
);
leftKerningGroup = H;
leftMetricsKey = I;
rightKerningGroup = E;
unicode = 0045;
},
{
glyphname = F;
layers = (
{
guideLines = (
{
position = "{198, 278}";
}
);
layerId = "EA62F474-A0CE-4CDB-8144-A83B4E00D785";
paths = (
{
closed = 1;
nodes = (
"392 626 OFFCURVE",
"346 625 OFFCURVE",
"283 625 CURVE SMOOTH",
"194 625 LINE SMOOTH",
"153 625 OFFCURVE",
"112 625 OFFCURVE",
"48 627 CURVE",
"48 583 LINE",
"117 581 OFFCURVE",
"126 558 OFFCURVE",
"126 491 CURVE",
"126 132 LINE",
"126 66 OFFCURVE",
"117 43 OFFCURVE",
"48 40 CURVE",
"48 -3 LINE",
"167 4 OFFCURVE",
"201 4 OFFCURVE",
"339 -3 CURVE",
"339 40 LINE",
"251 43 OFFCURVE",
"243 66 OFFCURVE",
"243 132 CURVE",
"243 577 LINE",
"283 577 LINE SMOOTH",
"391 577 OFFCURVE",
"416 525 OFFCURVE",
"434 452 CURVE",
"481 452 LINE",
"470 631 LINE"
);
},
{
closed = 1;
nodes = (
"354 419 LINE",
"351 347 OFFCURVE",
"314 330 OFFCURVE",
"262 330 CURVE SMOOTH",
"184 330 LINE",
"184 282 LINE",
"262 282 LINE SMOOTH",
"314 282 OFFCURVE",
"351 267 OFFCURVE",
"354 188 CURVE",
"397 188 LINE",
"389 291 OFFCURVE",
"389 329 OFFCURVE",
"397 419 CURVE"
);
}
);
width = 505;
},
{
background = {
paths = (
{
closed = 1;
nodes = (
"325 522 OFFCURVE",
"279 522 OFFCURVE",
"238 522 CURVE SMOOTH",
"142 522 LINE SMOOTH",
"120 522 OFFCURVE",
"99 522 OFFCURVE",
"55 524 CURVE",
"55 496 LINE",
"104 494 OFFCURVE",
"112 483 OFFCURVE",
"112 431 CURVE SMOOTH",
"112 91 LINE SMOOTH",
"112 39 OFFCURVE",
"104 28 OFFCURVE",
"55 26 CURVE",
"55 -2 LINE",
"99 0 OFFCURVE",
"120 0 OFFCURVE",
"142 0 CURVE SMOOTH",
"237 0 LINE SMOOTH",
"285 0 OFFCURVE",
"323 0 OFFCURVE",
"384 -4 CURVE",
"413 142 LINE",
"384 142 LINE",
"367 79 OFFCURVE",
"347 35 OFFCURVE",
"238 35 CURVE SMOOTH",
"172 35 LINE",
"172 487 LINE",
"241 487 LINE SMOOTH",
"321 487 OFFCURVE",
"342 461 OFFCURVE",
"360 381 CURVE",
"388 381 LINE",
"378 526 LINE"
);
},
{
closed = 1;
nodes = (
"276 334 LINE",
"274 285 OFFCURVE",
"250 275 OFFCURVE",
"205 275 CURVE SMOOTH",
"141 275 LINE",
"141 240 LINE",
"205 240 LINE SMOOTH",
"250 240 OFFCURVE",
"274 230 OFFCURVE",
"276 181 CURVE",
"304 181 LINE",
"299 269 OFFCURVE",
"299 247 OFFCURVE",
"304 334 CURVE"
);
}
);
};
guideLines = (
{
position = "{213, 275}";
}
);
layerId = "B1D0FA45-0BED-409D-9800-57F37CCD9690";
paths = (
{
closed = 1;
nodes = (
"384 625 OFFCURVE",
"329 625 OFFCURVE",
"280 625 CURVE SMOOTH",
"170 625 LINE SMOOTH",
"144 625 OFFCURVE",
"119 625 OFFCURVE",
"66 627 CURVE",
"66 593 LINE",
"124 591 OFFCURVE",
"134 578 OFFCURVE",
"134 515 CURVE SMOOTH",
"134 109 LINE SMOOTH",
"134 47 OFFCURVE",
"124 33 OFFCURVE",
"66 31 CURVE",
"66 -3 LINE",
"178 3 OFFCURVE",
"170 3 OFFCURVE",
"282 -3 CURVE",
"282 31 LINE",
"215 33 OFFCURVE",
"206 47 OFFCURVE",
"206 109 CURVE",
"206 582 LINE",
"283 582 LINE SMOOTH",
"378 582 OFFCURVE",
"406 551 OFFCURVE",
"426 455 CURVE",
"459 455 LINE",
"447 629 LINE"
);
},
{
closed = 1;
nodes = (
"326 399 LINE",
"323 341 OFFCURVE",
"294 329 OFFCURVE",
"240 329 CURVE SMOOTH",
"164 329 LINE",
"164 287 LINE",
"240 287 LINE SMOOTH",
"294 287 OFFCURVE",
"323 275 OFFCURVE",
"326 204 CURVE",
"359 204 LINE",
"353 322 OFFCURVE",
"353 295 OFFCURVE",
"359 399 CURVE"
);
}
);
width = 501;
}
);
leftKerningGroup = H;
leftMetricsKey = I;
unicode = 0046;
},
{
glyphname = G;
layers = (
{
background = {
paths = (
{
closed = 1;
nodes = (
"155 31 OFFCURVE",
"120 111 OFFCURVE",
"120 257 CURVE SMOOTH",
"120 401 OFFCURVE",
"160 491 OFFCURVE",
"262 491 CURVE SMOOTH",
"327 491 OFFCURVE",
"366 441 OFFCURVE",
"366 359 CURVE",
"406 359 LINE",
"406 412 OFFCURVE",
"405 464 OFFCURVE",
"411 517 CURVE",
"364 528 OFFCURVE",
"316 534 OFFCURVE",
"278 534 CURVE SMOOTH",
"110 534 OFFCURVE",
"15 421 OFFCURVE",
"15 234 CURVE SMOOTH",
"15 76 OFFCURVE",
"87 -12 OFFCURVE",
"240 -12 CURVE SMOOTH",
"293 -12 OFFCURVE",
"356 -4 OFFCURVE",
"404 17 CURVE",
"426 177 LINE",
"388 177 LINE",
"373 87 OFFCURVE",
"315 31 OFFCURVE",
"250 31 CURVE SMOOTH"
);
}
);
};
layerId = "EA62F474-A0CE-4CDB-8144-A83B4E00D785";
paths = (
{
closed = 1;
nodes = (
"370 47 OFFCURVE",
"339 37 OFFCURVE",
"315 37 CURVE SMOOTH",
"203 37 OFFCURVE",
"162 132 OFFCURVE",
"162 307 CURVE SMOOTH",
"162 479 OFFCURVE",
"214 582 OFFCURVE",
"336 582 CURVE SMOOTH",
"416 582 OFFCURVE",
"455 527 OFFCURVE",
"464 447 CURVE",
"512 447 LINE",
"512 493 OFFCURVE",
"511 555 OFFCURVE",
"518 618 CURVE",
"459 631 OFFCURVE",
"398 638 OFFCURVE",
"351 638 CURVE SMOOTH",
"151 638 OFFCURVE",
"36 503 OFFCURVE",
"36 280 CURVE SMOOTH",
"36 91 OFFCURVE",
"123 -15 OFFCURVE",
"310 -15 CURVE SMOOTH",
"374 -15 OFFCURVE",
"459 1 OFFCURVE",
"518 29 CURVE",
"518 162 LINE SMOOTH",
"518 228 OFFCURVE",
"519 251 OFFCURVE",
"578 254 CURVE",
"578 295 LINE",
"462 288 OFFCURVE",
"431 288 OFFCURVE",
"317 295 CURVE",
"317 254 LINE",
"386 251 OFFCURVE",
"395 228 OFFCURVE",
"395 162 CURVE SMOOTH",
"395 63 LINE"
);
}
);
width = 609;
},
{
layerId = "B1D0FA45-0BED-409D-9800-57F37CCD9690";
leftMetricsKey = "=O";
paths = (
{
closed = 1;
nodes = (
"396 40 OFFCURVE",
"362 30 OFFCURVE",
"316 30 CURVE SMOOTH",
"198 30 OFFCURVE",
"132 127 OFFCURVE",
"132 306 CURVE SMOOTH",
"132 481 OFFCURVE",
"180 597 OFFCURVE",
"318 597 CURVE SMOOTH",
"401 597 OFFCURVE",
"457 541 OFFCURVE",
"457 455 CURVE",
"495 455 LINE",
"495 511 OFFCURVE",
"497 565 OFFCURVE",
"501 619 CURVE",
"458 631 OFFCURVE",
"392 640 OFFCURVE",
"347 640 CURVE SMOOTH",
"158 640 OFFCURVE",
"54 505 OFFCURVE",
"54 280 CURVE SMOOTH",
"54 91 OFFCURVE",
"135 -15 OFFCURVE",
"308 -15 CURVE SMOOTH",
"367 -15 OFFCURVE",
"445 -1 OFFCURVE",
"500 24 CURVE",
"500 172 LINE SMOOTH",
"500 235 OFFCURVE",
"507 247 OFFCURVE",
"566 250 CURVE",
"566 283 LINE",
"462 278 OFFCURVE",
"466 278 OFFCURVE",
"360 283 CURVE",
"360 250 LINE",
"419 247 OFFCURVE",
"428 235 OFFCURVE",
"428 172 CURVE SMOOTH",
"428 64 LINE"
);
}
);
width = 607;
}
);
leftKerningGroup = O;
leftMetricsKey = O;
unicode = 0047;
},
{
glyphname = H;
layers = (
{
layerId = "EA62F474-A0CE-4CDB-8144-A83B4E00D785";
rightMetricsKey = "=I";
paths = (
{
closed = 1;
nodes = (
"549 618 OFFCURVE",
"515 618 OFFCURVE",
"396 628 CURVE",
"396 585 LINE",
"466 582 OFFCURVE",
"474 559 OFFCURVE",
"474 493 CURVE",
"474 132 LINE",
"474 66 OFFCURVE",
"466 43 OFFCURVE",
"396 40 CURVE",
"396 -3 LINE",
"515 5 OFFCURVE",
"549 5 OFFCURVE",
"670 -3 CURVE",
"670 40 LINE",
"599 43 OFFCURVE",
"591 66 OFFCURVE",
"591 132 CURVE",
"591 493 LINE",
"591 559 OFFCURVE",
"599 582 OFFCURVE",
"670 585 CURVE",
"670 628 LINE"
);
},
{
closed = 1;
nodes = (
"201 618 OFFCURVE",
"167 618 OFFCURVE",
"48 627 CURVE",
"48 583 LINE",
"117 581 OFFCURVE",
"126 558 OFFCURVE",
"126 491 CURVE",
"126 132 LINE",
"126 66 OFFCURVE",
"117 43 OFFCURVE",
"48 40 CURVE",
"48 -3 LINE",
"167 5 OFFCURVE",
"201 5 OFFCURVE",
"322 -3 CURVE",
"322 40 LINE",
"251 43 OFFCURVE",
"243 66 OFFCURVE",
"243 132 CURVE",
"243 491 LINE",
"243 558 OFFCURVE",
"251 581 OFFCURVE",
"322 583 CURVE",
"322 627 LINE"
);
},
{
closed = 1;
nodes = (
"188 353 LINE",
"188 299 LINE",
"512 299 LINE",
"512 353 LINE"
);
}
);
width = 718;
},
{
background = {
paths = (
{
closed = 1;
nodes = (
"157 519 OFFCURVE",
"129 519 OFFCURVE",
"29 526 CURVE",
"29 490 LINE",
"87 488 OFFCURVE",
"94 469 OFFCURVE",
"94 413 CURVE",
"94 111 LINE",
"94 55 OFFCURVE",
"87 36 OFFCURVE",
"29 34 CURVE",
"29 -2 LINE",
"129 5 OFFCURVE",
"157 5 OFFCURVE",
"258 -2 CURVE",
"258 34 LINE",
"199 36 OFFCURVE",
"192 55 OFFCURVE",
"192 111 CURVE",
"192 413 LINE",
"192 469 OFFCURVE",
"199 488 OFFCURVE",
"258 490 CURVE",
"258 526 LINE"
);
},
{
closed = 1;
nodes = (
"448 519 OFFCURVE",
"420 519 OFFCURVE",
"320 526 CURVE",
"320 490 LINE",
"378 488 OFFCURVE",
"385 469 OFFCURVE",
"385 413 CURVE",
"385 111 LINE",
"385 55 OFFCURVE",
"378 36 OFFCURVE",
"320 34 CURVE",
"320 -2 LINE",
"420 5 OFFCURVE",
"448 5 OFFCURVE",
"549 -2 CURVE",
"549 34 LINE",
"490 36 OFFCURVE",
"483 55 OFFCURVE",
"483 111 CURVE",
"483 413 LINE",
"483 469 OFFCURVE",
"490 488 OFFCURVE",
"549 490 CURVE",
"549 526 LINE"
);
},
{
closed = 1;
nodes = (
"146 250 LINE",
"417 250 LINE",
"417 295 LINE",
"146 295 LINE"
);
}
);
};
layerId = "B1D0FA45-0BED-409D-9800-57F37CCD9690";
paths = (
{
closed = 1;
nodes = (
"502 622 OFFCURVE",
"503 622 OFFCURVE",
"398 627 CURVE",
"398 593 LINE",
"457 591 OFFCURVE",
"466 578 OFFCURVE",
"466 515 CURVE",
"466 109 LINE",
"466 47 OFFCURVE",
"457 33 OFFCURVE",
"398 31 CURVE",
"398 -3 LINE",
"503 3 OFFCURVE",
"502 3 OFFCURVE",
"606 -3 CURVE",
"606 31 LINE",
"547 33 OFFCURVE",
"538 47 OFFCURVE",
"538 109 CURVE",
"538 515 LINE",
"538 578 OFFCURVE",
"547 591 OFFCURVE",
"606 593 CURVE",
"606 627 LINE"
);
},
{
closed = 1;
nodes = (
"170 622 OFFCURVE",
"171 622 OFFCURVE",
"66 627 CURVE",
"66 593 LINE",
"124 591 OFFCURVE",
"134 578 OFFCURVE",
"134 515 CURVE SMOOTH",
"134 109 LINE",
"134 47 OFFCURVE",
"124 33 OFFCURVE",
"66 31 CURVE",
"66 -3 LINE",
"171 3 OFFCURVE",
"170 3 OFFCURVE",
"274 -3 CURVE",
"274 31 LINE",
"215 33 OFFCURVE",
"206 47 OFFCURVE",
"206 109 CURVE",
"206 515 LINE SMOOTH",
"206 578 OFFCURVE",
"215 591 OFFCURVE",
"274 593 CURVE",
"274 627 LINE"
);
},
{
closed = 1;
nodes = (
"190 346 LINE",
"190 304 LINE",
"493 304 LINE",
"493 346 LINE"
);
}
);
width = 671;
}
);
leftKerningGroup = H;
leftMetricsKey = I;
rightKerningGroup = H;
rightMetricsKey = I;
unicode = 0048;
},
{
glyphname = I;
layers = (
{
anchors = (
{
name = top;
position = "{186, 622}";
}
);
background = {
paths = (
{
closed = 1;
nodes = (
"127 522 OFFCURVE",
"128 522 OFFCURVE",
"40 526 CURVE",
"40 498 LINE",
"89 496 OFFCURVE",
"97 485 OFFCURVE",
"97 433 CURVE",
"97 89 LINE",
"97 37 OFFCURVE",
"89 26 OFFCURVE",
"40 24 CURVE",
"40 -4 LINE",
"128 0 OFFCURVE",
"127 0 OFFCURVE",
"214 -4 CURVE",
"214 24 LINE",
"165 26 OFFCURVE",
"157 37 OFFCURVE",
"157 89 CURVE",
"157 433 LINE",
"157 485 OFFCURVE",
"165 496 OFFCURVE",
"214 498 CURVE",
"214 526 LINE"
);
}
);
};
layerId = "EA62F474-A0CE-4CDB-8144-A83B4E00D785";
paths = (
{
closed = 1;
nodes = (
"201 618 OFFCURVE",
"167 618 OFFCURVE",
"48 627 CURVE",
"48 583 LINE",
"117 581 OFFCURVE",
"126 558 OFFCURVE",
"126 491 CURVE",
"126 132 LINE",
"126 66 OFFCURVE",
"117 43 OFFCURVE",
"48 40 CURVE",
"48 -3 LINE",
"167 6 OFFCURVE",
"201 6 OFFCURVE",
"322 -3 CURVE",
"322 40 LINE",
"251 43 OFFCURVE",
"243 66 OFFCURVE",
"243 132 CURVE",
"243 491 LINE",
"243 558 OFFCURVE",
"251 581 OFFCURVE",
"322 583 CURVE",
"322 627 LINE"
);
}
);
width = 370;
},
{
anchors = (
{
name = top;
position = "{170, 616}";
}
);
background = {
paths = (
{
closed = 1;
nodes = (
"157 519 OFFCURVE",
"129 519 OFFCURVE",
"29 526 CURVE",
"29 490 LINE",
"87 488 OFFCURVE",
"94 469 OFFCURVE",
"94 413 CURVE",
"94 111 LINE",
"94 55 OFFCURVE",
"87 36 OFFCURVE",
"29 34 CURVE",
"29 -2 LINE",
"129 5 OFFCURVE",
"157 5 OFFCURVE",
"258 -2 CURVE",
"258 34 LINE",
"199 36 OFFCURVE",
"192 55 OFFCURVE",
"192 111 CURVE",
"192 413 LINE",
"192 469 OFFCURVE",
"199 488 OFFCURVE",
"258 490 CURVE",
"258 526 LINE"
);
}
);
};
layerId = "B1D0FA45-0BED-409D-9800-57F37CCD9690";
paths = (
{
closed = 1;
nodes = (
"170 622 OFFCURVE",
"171 622 OFFCURVE",
"66 627 CURVE",
"66 593 LINE",
"124 591 OFFCURVE",
"134 578 OFFCURVE",
"134 515 CURVE",
"134 109 LINE",
"134 47 OFFCURVE",
"124 33 OFFCURVE",
"66 31 CURVE",
"66 -3 LINE",
"171 3 OFFCURVE",
"170 3 OFFCURVE",
"274 -3 CURVE",
"274 31 LINE",
"215 33 OFFCURVE",
"206 47 OFFCURVE",
"206 109 CURVE",
"206 515 LINE",
"206 578 OFFCURVE",
"215 591 OFFCURVE",
"274 593 CURVE",
"274 627 LINE"
);
}
);
width = 339;
}
);
leftKerningGroup = H;
rightKerningGroup = H;
unicode = 0049;
},
{
glyphname = J;
layers = (
{
layerId = "EA62F474-A0CE-4CDB-8144-A83B4E00D785";
paths = (
{
closed = 1;
nodes = (
"207 621 OFFCURVE",
"174 621 OFFCURVE",
"48 629 CURVE",
"48 586 LINE",
"123 583 OFFCURVE",
"132 561 OFFCURVE",
"132 494 CURVE SMOOTH",
"132 135 LINE SMOOTH",
"132 -48 OFFCURVE",
"111 -71 OFFCURVE",
"52 -152 CURVE",
"80 -179 LINE",
"187 -114 OFFCURVE",
"248 -35 OFFCURVE",
"248 122 CURVE SMOOTH",
"248 494 LINE SMOOTH",
"248 561 OFFCURVE",
"258 583 OFFCURVE",
"328 586 CURVE",
"328 629 LINE"
);
}
);
width = 376;
},
{
layerId = "B1D0FA45-0BED-409D-9800-57F37CCD9690";
paths = (
{
closed = 1;
nodes = (
"175 622 OFFCURVE",
"167 622 OFFCURVE",
"66 628 CURVE",
"66 594 LINE",
"124 592 OFFCURVE",
"134 579 OFFCURVE",
"134 517 CURVE SMOOTH",
"134 109 LINE SMOOTH",
"134 -60 OFFCURVE",
"117 -90 OFFCURVE",
"71 -164 CURVE",
"88 -178 LINE",
"155 -119 OFFCURVE",
"206 -47 OFFCURVE",
"206 97 CURVE SMOOTH",
"206 517 LINE SMOOTH",
"206 579 OFFCURVE",
"215 592 OFFCURVE",
"274 594 CURVE",
"274 628 LINE"
);
}
);
width = 339;
}
);
leftMetricsKey = I;
rightMetricsKey = I;
unicode = 004A;
},
{
glyphname = K;
layers = (
{
background = {
paths = (
{
closed = 0;
nodes = (
"506 -2 LINE",
"506 34 LINE",
"447 36 OFFCURVE",
"440 55 OFFCURVE",
"440 111 CURVE SMOOTH"
);
},
{
closed = 0;
nodes = (
"279 324 LINE",
"424 74 LINE"
);
}
);
};
guideLines = (
{
angle = 90;
position = "{506, 32}";
}
);
layerId = "EA62F474-A0CE-4CDB-8144-A83B4E00D785";
paths = (
{
closed = 1;
nodes = (
"201 618 OFFCURVE",
"167 618 OFFCURVE",
"48 627 CURVE",
"48 583 LINE",
"117 581 OFFCURVE",
"126 558 OFFCURVE",
"126 491 CURVE SMOOTH",
"126 132 LINE SMOOTH",
"126 66 OFFCURVE",
"117 43 OFFCURVE",
"48 40 CURVE",
"48 -3 LINE",
"167 4 OFFCURVE",
"201 4 OFFCURVE",
"322 -3 CURVE",
"322 40 LINE",
"251 43 OFFCURVE",
"243 66 OFFCURVE",
"243 132 CURVE SMOOTH",
"243 491 LINE SMOOTH",
"243 558 OFFCURVE",
"251 581 OFFCURVE",
"322 583 CURVE",
"322 627 LINE"
);
},
{
closed = 1;
nodes = (
"518 619 OFFCURVE",
"498 619 OFFCURVE",
"391 627 CURVE",
"391 583 LINE",
"469 581 OFFCURVE",
"457 549 OFFCURVE",
"433 522 CURVE SMOOTH",
"214 270 LINE",
"236 212 LINE",
"527 545 LINE SMOOTH",
"546 566 OFFCURVE",
"574 583 OFFCURVE",
"602 583 CURVE",
"602 627 LINE"
);
},
{
closed = 1;
nodes = (
"271 295 LINE",
"435 0 LINE",
"514 0 OFFCURVE",
"523 1 OFFCURVE",
"614 -3 CURVE",
"614 40 LINE",
"563 42 OFFCURVE",
"526 68 OFFCURVE",
"498 121 CURVE SMOOTH",
"351 387 LINE"
);
}
);
width = 654;
},
{
background = {
paths = (
{
closed = 1;
nodes = (
"142 520 OFFCURVE",
"143 520 OFFCURVE",
"55 524 CURVE",
"55 496 LINE",
"104 494 OFFCURVE",
"112 483 OFFCURVE",
"112 431 CURVE SMOOTH",
"112 91 LINE SMOOTH",
"112 39 OFFCURVE",
"104 28 OFFCURVE",
"55 26 CURVE",
"55 -2 LINE",
"143 2 OFFCURVE",
"142 2 OFFCURVE",
"229 -2 CURVE",
"229 26 LINE",
"180 28 OFFCURVE",
"172 39 OFFCURVE",
"172 91 CURVE SMOOTH",
"172 431 LINE SMOOTH",
"172 483 OFFCURVE",
"180 494 OFFCURVE",
"229 496 CURVE",
"229 524 LINE"
);
},
{
closed = 1;
nodes = (
"381 520 OFFCURVE",
"389 520 OFFCURVE",
"301 524 CURVE",
"301 496 LINE",
"354 494 OFFCURVE",
"366 474 OFFCURVE",
"340 442 CURVE SMOOTH",
"143 205 LINE",
"163 177 LINE",
"401 458 LINE SMOOTH",
"418 478 OFFCURVE",
"437 496 OFFCURVE",
"468 496 CURVE",
"468 524 LINE"
);
},
{
closed = 1;
nodes = (
"223 258 LINE",
"380 0 LINE",
"402 0 OFFCURVE",
"435 1 OFFCURVE",
"490 -2 CURVE",
"490 26 LINE",
"441 28 OFFCURVE",
"428 53 OFFCURVE",
"415 72 CURVE SMOOTH",
"285 270 LINE"
);
}
);
};
layerId = "B1D0FA45-0BED-409D-9800-57F37CCD9690";
paths = (
{
closed = 1;
nodes = (
"170 622 OFFCURVE",
"171 622 OFFCURVE",
"66 627 CURVE",
"66 593 LINE",
"124 591 OFFCURVE",
"134 578 OFFCURVE",
"134 515 CURVE SMOOTH",
"134 109 LINE SMOOTH",
"134 47 OFFCURVE",
"124 33 OFFCURVE",
"66 31 CURVE",
"66 -3 LINE",
"171 3 OFFCURVE",
"170 3 OFFCURVE",
"274 -3 CURVE",
"274 31 LINE",
"215 33 OFFCURVE",
"206 47 OFFCURVE",
"206 109 CURVE SMOOTH",
"206 515 LINE SMOOTH",
"206 578 OFFCURVE",
"215 591 OFFCURVE",
"274 593 CURVE",
"274 627 LINE"
);
},
{
closed = 1;
nodes = (
"455 622 OFFCURVE",
"466 622 OFFCURVE",
"360 627 CURVE",
"360 593 LINE",
"423 591 OFFCURVE",
"438 567 OFFCURVE",
"407 529 CURVE SMOOTH",
"171 246 LINE",
"195 212 LINE",
"479 547 LINE SMOOTH",
"500 571 OFFCURVE",
"523 593 OFFCURVE",
"559 593 CURVE",
"559 627 LINE"
);
},
{
closed = 1;
nodes = (
"256 328 LINE",
"461 0 LINE",
"493 1 OFFCURVE",
"541 3 OFFCURVE",
"585 0 CURVE",
"585 33 LINE",
"541 35 OFFCURVE",
"517 45 OFFCURVE",
"498 76 CURVE SMOOTH",
"305 382 LINE"
);
}
);
width = 627;
}
);
leftKerningGroup = H;
leftMetricsKey = I;
unicode = 004B;
},
{
glyphname = L;
layers = (
{
layerId = "EA62F474-A0CE-4CDB-8144-A83B4E00D785";
paths = (
{
closed = 1;
nodes = (
"201 618 OFFCURVE",
"167 618 OFFCURVE",
"48 627 CURVE",
"48 585 LINE",
"117 582 OFFCURVE",
"126 559 OFFCURVE",
"126 493 CURVE",
"126 132 LINE SMOOTH",
"126 66 OFFCURVE",
"117 43 OFFCURVE",
"48 40 CURVE",
"48 -3 LINE",
"112 0 OFFCURVE",
"153 0 OFFCURVE",
"194 0 CURVE SMOOTH",
"280 0 LINE SMOOTH",
"342 0 OFFCURVE",
"395 -1 OFFCURVE",
"471 -7 CURVE",
"509 186 LINE",
"463 186 LINE",
"442 107 OFFCURVE",
"395 48 OFFCURVE",
"284 48 CURVE SMOOTH",
"243 48 LINE",
"243 491 LINE",
"243 558 OFFCURVE",
"251 581 OFFCURVE",
"339 583 CURVE",
"339 627 LINE"
);
}
);
width = 534;
},
{
background = {
paths = (
{
closed = 1;
nodes = (
"278 0 OFFCURVE",
"316 0 OFFCURVE",
"377 -4 CURVE",
"406 142 LINE",
"375 142 LINE",
"358 79 OFFCURVE",
"338 35 OFFCURVE",
"229 35 CURVE SMOOTH",
"165 35 LINE",
"165 487 LINE",
"242 487 LINE SMOOTH",
"322 487 OFFCURVE",
"343 461 OFFCURVE",
"361 381 CURVE",
"391 381 LINE",
"381 526 LINE",
"328 522 OFFCURVE",
"282 522 OFFCURVE",
"241 522 CURVE SMOOTH",
"135 522 LINE SMOOTH",
"113 522 OFFCURVE",
"92 523 OFFCURVE",
"48 525 CURVE",
"48 497 LINE",
"97 495 OFFCURVE",
"105 484 OFFCURVE",
"105 432 CURVE SMOOTH",
"105 91 LINE SMOOTH",
"105 39 OFFCURVE",
"97 28 OFFCURVE",
"48 26 CURVE",
"48 -2 LINE",
"92 0 OFFCURVE",
"113 0 OFFCURVE",
"135 0 CURVE SMOOTH",
"230 0 LINE SMOOTH"
);
},
{
closed = 1;
nodes = (
"134 240 LINE",
"210 240 LINE SMOOTH",
"259 240 OFFCURVE",
"269 233 OFFCURVE",
"271 181 CURVE",
"297 181 LINE",
"293 269 OFFCURVE",
"293 247 OFFCURVE",
"297 334 CURVE",
"271 334 LINE",
"269 282 OFFCURVE",
"259 275 OFFCURVE",
"210 275 CURVE SMOOTH",
"134 275 LINE"
);
}
);
};
layerId = "B1D0FA45-0BED-409D-9800-57F37CCD9690";
paths = (
{
closed = 1;
nodes = (
"170 622 OFFCURVE",
"178 622 OFFCURVE",
"66 627 CURVE",
"66 593 LINE",
"124 591 OFFCURVE",
"134 578 OFFCURVE",
"134 515 CURVE",
"134 109 LINE SMOOTH",
"134 47 OFFCURVE",
"124 33 OFFCURVE",
"66 31 CURVE",
"66 -3 LINE",
"119 0 OFFCURVE",
"144 0 OFFCURVE",
"170 0 CURVE SMOOTH",
"275 0 LINE SMOOTH",
"332 0 OFFCURVE",
"378 0 OFFCURVE",
"451 -5 CURVE",
"488 180 LINE",
"454 180 LINE",
"434 81 OFFCURVE",
"391 42 OFFCURVE",
"278 42 CURVE SMOOTH",
"206 42 LINE",
"206 515 LINE",
"206 578 OFFCURVE",
"215 591 OFFCURVE",
"282 593 CURVE",
"282 627 LINE"
);
}
);
width = 518;
}
);
leftKerningGroup = H;
leftMetricsKey = I;
rightKerningGroup = L;
unicode = 004C;
},
{
glyphname = Lslash;
layers = (
{
background = {
paths = (
{
closed = 1;
nodes = (
"139 214 LINE",
"291 285 LINE",
"275 319 LINE",
"139 255 LINE"
);
},
{
closed = 1;
nodes = (
"139 258 LINE",
"55 219 LINE",
"71 185 LINE",
"139 217 LINE"
);
}
);
};
components = (
{
name = L;
}
);
guideLines = (
{
angle = 90;
position = "{55, 222}";
}
);
layerId = "B1D0FA45-0BED-409D-9800-57F37CCD9690";
paths = (
{
closed = 1;
nodes = (
"347 342 LINE",
"329 380 LINE",
"167 304 LINE",
"165 258 LINE"
);
},
{
closed = 1;
nodes = (
"165 260 LINE",
"167 307 LINE",
"66 260 LINE",
"84 223 LINE"
);
}
);
width = 518;
},
{
background = {
paths = (
{
closed = 1;
nodes = (
"139 214 LINE",
"291 285 LINE",
"275 319 LINE",
"139 255 LINE"
);
},
{
closed = 1;
nodes = (
"139 258 LINE",
"55 219 LINE",
"71 185 LINE",
"139 217 LINE"
);
}
);
};
components = (
{
name = L;
}
);
layerId = "EA62F474-A0CE-4CDB-8144-A83B4E00D785";
paths = (
{
closed = 1;
nodes = (
"351 336 LINE",
"326 387 LINE",
"163 311 LINE",
"168 251 LINE"
);
},
{
closed = 1;
nodes = (
"168 255 LINE",
"163 315 LINE",
"63 268 LINE",
"87 216 LINE"
);
}
);
width = 534;
}
);
leftMetricsKey = L;
rightKerningGroup = L;
rightMetricsKey = L;
unicode = 0141;
},
{
glyphname = M;
layers = (
{
background = {
paths = (
{
closed = 1;
nodes = (
"617 520 OFFCURVE",
"563 520 OFFCURVE",
"510 522 CURVE",
"367 154 LINE",
"201 522 LINE",
"149 519 OFFCURVE",
"107 519 OFFCURVE",
"45 522 CURVE",
"45 486 LINE",
"77 486 OFFCURVE",
"112 472 OFFCURVE",
"109 418 CURVE SMOOTH",
"90 120 LINE SMOOTH",
"86 64 OFFCURVE",
"77 36 OFFCURVE",
"25 34 CURVE",
"25 -2 LINE",
"105 3 OFFCURVE",
"127 3 OFFCURVE",
"208 -2 CURVE",
"208 34 LINE",
"155 36 OFFCURVE",
"138 64 OFFCURVE",
"142 120 CURVE SMOOTH",
"162 369 LINE",
"327 -6 LINE",
"326 -6 OFFCURVE",
"358 -6 OFFCURVE",
"358 -6 CURVE",
"507 377 LINE",
"527 111 LINE SMOOTH",
"531 55 OFFCURVE",
"520 36 OFFCURVE",
"462 34 CURVE",
"462 -2 LINE",
"562 3 OFFCURVE",
"590 3 OFFCURVE",
"691 -2 CURVE",
"691 34 LINE",
"632 36 OFFCURVE",
"629 55 OFFCURVE",
"625 111 CURVE SMOOTH",
"605 419 LINE SMOOTH",
"602 472 OFFCURVE",
"632 486 OFFCURVE",
"670 486 CURVE",
"670 522 LINE"
);
}
);
};
guideLines = (
{
position = "{509, 472}";
},
{
position = "{332, 382}";
}
);
layerId = "EA62F474-A0CE-4CDB-8144-A83B4E00D785";
paths = (
{
closed = 1;
nodes = (
"738 622 OFFCURVE",
"673 622 OFFCURVE",
"610 625 CURVE",
"439 184 LINE",
"240 625 LINE",
"178 621 OFFCURVE",
"128 621 OFFCURVE",
"54 625 CURVE",
"54 581 LINE",
"92 581 OFFCURVE",
"134 565 OFFCURVE",
"131 500 CURVE SMOOTH",
"108 144 LINE SMOOTH",
"103 76 OFFCURVE",
"92 43 OFFCURVE",
"30 40 CURVE",
"30 -3 LINE",
"126 4 OFFCURVE",
"152 4 OFFCURVE",
"248 -3 CURVE",
"248 40 LINE",
"186 43 OFFCURVE",
"167 76 OFFCURVE",
"170 144 CURVE SMOOTH",
"190 471 LINE",
"391 -7 LINE",
"390 -7 OFFCURVE",
"428 -7 OFFCURVE",
"428 -7 CURVE",
"610 464 LINE",
"630 132 LINE SMOOTH",
"634 66 OFFCURVE",
"622 43 OFFCURVE",
"553 40 CURVE",
"553 -3 LINE",
"673 4 OFFCURVE",
"706 4 OFFCURVE",
"826 -3 CURVE",
"826 40 LINE",
"756 43 OFFCURVE",
"753 66 OFFCURVE",
"748 132 CURVE SMOOTH",
"724 501 LINE SMOOTH",
"720 565 OFFCURVE",
"756 581 OFFCURVE",
"801 581 CURVE",
"801 625 LINE"
);
}
);
width = 852;
},
{
background = {
paths = (
{
closed = 1;
nodes = (
"573 520 OFFCURVE",
"544 521 OFFCURVE",
"511 522 CURVE",
"334 96 LINE",
"164 522 LINE",
"128 521 OFFCURVE",
"96 521 OFFCURVE",
"56 522 CURVE",
"56 494 LINE",
"81 494 OFFCURVE",
"112 481 OFFCURVE",
"109 432 CURVE SMOOTH",
"87 102 LINE SMOOTH",
"84 50 OFFCURVE",
"73 28 OFFCURVE",
"30 26 CURVE",
"30 -2 LINE",
"118 2 OFFCURVE",
"97 2 OFFCURVE",
"184 -2 CURVE",
"184 26 LINE",
"141 28 OFFCURVE",
"123 50 OFFCURVE",
"127 102 CURVE SMOOTH",
"148 410 LINE",
"309 -6 LINE",
"309 -7 OFFCURVE",
"336 -6 OFFCURVE",
"336 -6 CURVE",
"499 393 LINE",
"522 91 LINE SMOOTH",
"526 39 OFFCURVE",
"514 28 OFFCURVE",
"465 26 CURVE",
"465 -2 LINE",
"553 2 OFFCURVE",
"552 2 OFFCURVE",
"639 -2 CURVE",
"639 26 LINE",
"590 28 OFFCURVE",
"586 39 OFFCURVE",
"582 91 CURVE SMOOTH",
"557 437 LINE SMOOTH",
"554 479 OFFCURVE",
"585 493 OFFCURVE",
"610 493 CURVE",
"610 522 LINE"
);
}
);
};
guideLines = (
{
position = "{344, 391}";
}
);
layerId = "B1D0FA45-0BED-409D-9800-57F37CCD9690";
paths = (
{
closed = 1;
nodes = (
"685 622 OFFCURVE",
"650 623 OFFCURVE",
"611 625 CURVE",
"399 115 LINE",
"196 625 LINE",
"153 623 OFFCURVE",
"115 623 OFFCURVE",
"67 625 CURVE",
"67 591 LINE",
"97 591 OFFCURVE",
"134 575 OFFCURVE",
"131 517 CURVE SMOOTH",
"104 122 LINE SMOOTH",
"100 60 OFFCURVE",
"87 33 OFFCURVE",
"36 31 CURVE",
"36 -3 LINE",
"141 3 OFFCURVE",
"116 3 OFFCURVE",
"220 -3 CURVE",
"220 31 LINE",
"168 33 OFFCURVE",
"148 60 OFFCURVE",
"152 122 CURVE SMOOTH",
"176 499 LINE",
"370 -7 LINE",
"370 -8 OFFCURVE",
"402 -7 OFFCURVE",
"402 -7 CURVE",
"598 479 LINE",
"625 109 LINE SMOOTH",
"629 47 OFFCURVE",
"615 33 OFFCURVE",
"557 31 CURVE",
"557 -3 LINE",
"661 3 OFFCURVE",
"661 3 OFFCURVE",
"765 -3 CURVE",
"765 31 LINE",
"706 33 OFFCURVE",
"701 47 OFFCURVE",
"696 109 CURVE SMOOTH",
"666 523 LINE SMOOTH",
"662 573 OFFCURVE",
"700 590 OFFCURVE",
"730 590 CURVE",
"730 625 LINE"
);
}
);
width = 800;
}
);
unicode = 004D;
},
{
glyphname = N;
layers = (
{
anchors = (
{
name = top;
position = "{348, 622}";
}
);
background = {
paths = (
{
closed = 1;
nodes = (
"434 518 OFFCURVE",
"412 518 OFFCURVE",
"331 524 CURVE",
"331 488 LINE",
"384 486 OFFCURVE",
"397 442 OFFCURVE",
"397 386 CURVE SMOOTH",
"397 189 LINE",
"157 522 LINE",
"113 520 OFFCURVE",
"69 520 OFFCURVE",
"25 522 CURVE",
"25 486 LINE",
"57 486 OFFCURVE",
"72 473 OFFCURVE",
"90 442 CURVE",
"90 136 LINE SMOOTH",
"90 80 OFFCURVE",
"77 36 OFFCURVE",
"25 34 CURVE",
"25 -2 LINE",
"125 3 OFFCURVE",
"107 3 OFFCURVE",
"208 -2 CURVE",
"208 34 LINE",
"155 36 OFFCURVE",
"142 80 OFFCURVE",
"142 136 CURVE SMOOTH",
"142 377 LINE",
"412 0 LINE",
"411 0 OFFCURVE",
"449 0 OFFCURVE",
"449 0 CURVE",
"449 386 LINE SMOOTH",
"449 442 OFFCURVE",
"462 486 OFFCURVE",
"514 488 CURVE",
"514 524 LINE"
);
}
);
};
layerId = "EA62F474-A0CE-4CDB-8144-A83B4E00D785";
paths = (
{
closed = 1;
nodes = (
"537 619 OFFCURVE",
"511 619 OFFCURVE",
"414 627 CURVE",
"414 583 LINE",
"477 581 OFFCURVE",
"493 529 OFFCURVE",
"493 462 CURVE SMOOTH",
"493 226 LINE",
"206 625 LINE",
"153 622 OFFCURVE",
"100 622 OFFCURVE",
"48 625 CURVE",
"48 581 LINE",
"90 581 OFFCURVE",
"126 553 OFFCURVE",
"126 502 CURVE SMOOTH",
"126 163 LINE SMOOTH",
"126 96 OFFCURVE",
"110 43 OFFCURVE",
"48 40 CURVE",
"48 -3 LINE",
"167 4 OFFCURVE",
"146 4 OFFCURVE",
"267 -3 CURVE",
"267 40 LINE",
"203 43 OFFCURVE",
"188 96 OFFCURVE",
"188 163 CURVE SMOOTH",
"188 451 LINE",
"511 0 LINE",
"510 0 OFFCURVE",
"555 0 OFFCURVE",
"555 0 CURVE",
"555 462 LINE SMOOTH",
"555 529 OFFCURVE",
"570 581 OFFCURVE",
"633 583 CURVE",
"633 627 LINE"
);
}
);
width = 681;
},
{
anchors = (
{
name = top;
position = "{328, 616}";
}
);
background = {
paths = (
{
closed = 1;
nodes = (
"411 520 OFFCURVE",
"432 520 OFFCURVE",
"345 524 CURVE",
"345 496 LINE",
"388 494 OFFCURVE",
"402 472 OFFCURVE",
"402 420 CURVE SMOOTH",
"402 119 LINE",
"144 522 LINE",
"115 521 OFFCURVE",
"88 521 OFFCURVE",
"59 522 CURVE",
"59 494 LINE",
"84 494 OFFCURVE",
"98 481 OFFCURVE",
"112 458 CURVE",
"112 102 LINE SMOOTH",
"112 50 OFFCURVE",
"98 28 OFFCURVE",
"55 26 CURVE",
"55 -2 LINE",
"143 2 OFFCURVE",
"122 2 OFFCURVE",
"209 -2 CURVE",
"209 26 LINE",
"166 28 OFFCURVE",
"152 50 OFFCURVE",
"152 102 CURVE SMOOTH",
"152 399 LINE",
"408 0 LINE",
"408 0 OFFCURVE",
"442 0 OFFCURVE",
"442 0 CURVE",
"442 420 LINE SMOOTH",
"442 472 OFFCURVE",
"456 494 OFFCURVE",
"499 496 CURVE",
"499 524 LINE"
);
}
);
};
layerId = "B1D0FA45-0BED-409D-9800-57F37CCD9690";
paths = (
{
closed = 1;
nodes = (
"491 622 OFFCURVE",
"517 622 OFFCURVE",
"413 627 CURVE",
"413 593 LINE",
"464 591 OFFCURVE",
"481 565 OFFCURVE",
"481 502 CURVE SMOOTH",
"481 148 LINE",
"172 625 LINE",
"138 623 OFFCURVE",
"105 623 OFFCURVE",
"71 625 CURVE",
"71 591 LINE",
"107 591 OFFCURVE",
"134 569 OFFCURVE",
"134 526 CURVE SMOOTH",
"134 122 LINE SMOOTH",
"134 60 OFFCURVE",
"117 33 OFFCURVE",
"66 31 CURVE",
"66 -3 LINE",
"171 3 OFFCURVE",
"146 3 OFFCURVE",
"250 -3 CURVE",
"250 31 LINE",
"199 33 OFFCURVE",
"182 60 OFFCURVE",
"182 122 CURVE SMOOTH",
"182 471 LINE",
"488 0 LINE",
"488 0 OFFCURVE",
"529 0 OFFCURVE",
"529 0 CURVE",
"529 502 LINE SMOOTH",
"529 565 OFFCURVE",
"546 591 OFFCURVE",
"597 593 CURVE",
"597 627 LINE"
);
}
);
width = 662;
}
);
leftKerningGroup = H;
leftMetricsKey = I;
rightKerningGroup = N;
rightMetricsKey = I;
unicode = 004E;
},
{
glyphname = O;
layers = (
{
anchors = (
{
name = top;
position = "{294, 622}";
}
);
layerId = "EA62F474-A0CE-4CDB-8144-A83B4E00D785";
paths = (
{
closed = 1;
nodes = (
"156 638 OFFCURVE",
"36 526 OFFCURVE",
"36 282 CURVE SMOOTH",
"36 93 OFFCURVE",
"121 -15 OFFCURVE",
"282 -15 CURVE SMOOTH",
"434 -15 OFFCURVE",
"554 100 OFFCURVE",
"554 346 CURVE SMOOTH",
"554 537 OFFCURVE",
"470 638 OFFCURVE",
"308 638 CURVE SMOOTH"
);
},
{
closed = 1;
nodes = (
"386 587 OFFCURVE",
"430 477 OFFCURVE",
"430 331 CURVE SMOOTH",
"430 136 OFFCURVE",
"389 37 OFFCURVE",
"315 37 CURVE SMOOTH",
"212 37 OFFCURVE",
"162 152 OFFCURVE",
"162 298 CURVE SMOOTH",
"162 493 OFFCURVE",
"194 587 OFFCURVE",
"282 587 CURVE SMOOTH"
);
}
);
width = 590;
},
{
anchors = (
{
name = top;
position = "{307, 616}";
}
);
layerId = "B1D0FA45-0BED-409D-9800-57F37CCD9690";
paths = (
{
closed = 1;
nodes = (
"172 640 OFFCURVE",
"54 527 OFFCURVE",
"54 279 CURVE SMOOTH",
"54 91 OFFCURVE",
"128 -12 OFFCURVE",
"278 -12 CURVE SMOOTH",
"416 -12 OFFCURVE",
"535 104 OFFCURVE",
"535 350 CURVE SMOOTH",
"535 537 OFFCURVE",
"461 640 OFFCURVE",
"311 640 CURVE SMOOTH"
);
},
{
closed = 1;
nodes = (
"414 597 OFFCURVE",
"457 486 OFFCURVE",
"457 338 CURVE SMOOTH",
"457 179 OFFCURVE",
"421 30 OFFCURVE",
"307 30 CURVE SMOOTH",
"176 30 OFFCURVE",
"132 143 OFFCURVE",
"132 291 CURVE SMOOTH",
"132 449 OFFCURVE",
"167 597 OFFCURVE",
"282 597 CURVE SMOOTH"
);
}
);
width = 589;
}
);
leftKerningGroup = O;
rightKerningGroup = O;
unicode = 004F;
},
{
glyphname = Oslash;
layers = (
{
background = {
paths = (
{
closed = 1;
nodes = (
"131 68 LINE",
"396 436 LINE",
"373 459 LINE",
"113 97 LINE"
);
},
{
closed = 1;
nodes = (
"110 98 LINE",
"47 11 LINE",
"73 -7 LINE",
"128 69 LINE"
);
},
{
closed = 1;
nodes = (
"395 437 LINE",
"452 516 LINE",
"426 535 LINE",
"372 460 LINE"
);
}
);
};
components = (
{
name = O;
transform = "{1, 0, 0, 1, 6, 0}";
}
);
guideLines = (
{
angle = 90;
position = "{452, 470}";
},
{
angle = 90;
position = "{50, 255}";
}
);
layerId = "B1D0FA45-0BED-409D-9800-57F37CCD9690";
paths = (
{
closed = 1;
nodes = (
"159 79 LINE",
"476 519 LINE",
"443 550 LINE",
"132 117 LINE"
);
},
{
closed = 1;
nodes = (
"129 119 LINE",
"54 15 LINE",
"90 -11 LINE",
"155 80 LINE"
);
},
{
closed = 1;
nodes = (
"475 521 LINE",
"543 615 LINE",
"507 641 LINE",
"443 551 LINE"
);
}
);
width = 597;
},
{
background = {
paths = (
{
closed = 1;
nodes = (
"128 66 LINE",
"393 434 LINE",
"366 460 LINE",
"106 98 LINE"
);
},
{
closed = 1;
nodes = (
"103 99 LINE",
"40 12 LINE",
"70 -9 LINE",
"125 67 LINE"
);
},
{
closed = 1;
nodes = (
"392 435 LINE",
"449 514 LINE",
"419 536 LINE",
"365 461 LINE"
);
}
);
};
components = (
{
name = O;
}
);
layerId = "EA62F474-A0CE-4CDB-8144-A83B4E00D785";
paths = (
{
closed = 1;
nodes = (
"162 75 LINE",
"478 514 LINE",
"435 553 LINE",
"124 120 LINE"
);
},
{
closed = 1;
nodes = (
"121 121 LINE",
"45 17 LINE",
"92 -16 LINE",
"158 75 LINE"
);
},
{
closed = 1;
nodes = (
"477 515 LINE",
"546 610 LINE",
"499 643 LINE",
"434 554 LINE"
);
}
);
width = 590;
}
);
leftKerningGroup = O;
leftMetricsKey = O;
rightKerningGroup = O;
rightMetricsKey = O;
unicode = 00D8;
},
{
glyphname = OE;
layers = (
{
anchors = (
{
name = top;
position = "{307, 616}";
}
);
background = {
paths = (
{
closed = 1;
nodes = (
"602 522 OFFCURVE",
"556 522 OFFCURVE",
"515 522 CURVE SMOOTH",
"382 522 LINE",
"382 0 LINE",
"504 0 LINE SMOOTH",
"552 0 OFFCURVE",
"590 0 OFFCURVE",
"651 -4 CURVE",
"680 142 LINE",
"651 142 LINE",
"634 79 OFFCURVE",
"614 35 OFFCURVE",
"505 35 CURVE SMOOTH",
"439 35 LINE",
"439 487 LINE",
"518 487 LINE SMOOTH",
"598 487 OFFCURVE",
"619 461 OFFCURVE",
"637 381 CURVE",
"665 381 LINE",
"655 526 LINE"
);
},
{
closed = 1;
nodes = (
"543 334 LINE",
"541 285 OFFCURVE",
"517 275 OFFCURVE",
"472 275 CURVE SMOOTH",
"408 275 LINE",
"408 240 LINE",
"472 240 LINE SMOOTH",
"517 240 OFFCURVE",
"541 230 OFFCURVE",
"543 181 CURVE",
"571 181 LINE",
"566 269 OFFCURVE",
"566 247 OFFCURVE",
"571 334 CURVE"
);
},
{
closed = 1;
nodes = (
"144 535 OFFCURVE",
"45 441 OFFCURVE",
"45 233 CURVE SMOOTH",
"45 76 OFFCURVE",
"107 -10 OFFCURVE",
"232 -10 CURVE SMOOTH",
"343 -10 OFFCURVE",
"437 107 OFFCURVE",
"437 292 CURVE SMOOTH",
"437 419 OFFCURVE",
"380 535 OFFCURVE",
"260 535 CURVE SMOOTH"
);
},
{
closed = 1;
nodes = (
"346 499 OFFCURVE",
"382 406 OFFCURVE",
"382 282 CURVE SMOOTH",
"382 150 OFFCURVE",
"352 25 OFFCURVE",
"257 25 CURVE SMOOTH",
"147 25 OFFCURVE",
"110 119 OFFCURVE",
"110 243 CURVE SMOOTH",
"110 375 OFFCURVE",
"140 499 OFFCURVE",
"236 499 CURVE SMOOTH"
);
}
);
};
layerId = "B1D0FA45-0BED-409D-9800-57F37CCD9690";
paths = (
{
closed = 1;
nodes = (
"172 640 OFFCURVE",
"54 527 OFFCURVE",
"54 279 CURVE SMOOTH",
"54 91 OFFCURVE",
"128 -12 OFFCURVE",
"278 -12 CURVE SMOOTH",
"410 -12 OFFCURVE",
"521 111 OFFCURVE",
"521 350 CURVE SMOOTH",
"521 501 OFFCURVE",
"454 640 OFFCURVE",
"311 640 CURVE SMOOTH"
);
},
{
closed = 1;
nodes = (
"414 597 OFFCURVE",
"457 486 OFFCURVE",
"457 338 CURVE SMOOTH",
"457 179 OFFCURVE",
"421 30 OFFCURVE",
"307 30 CURVE SMOOTH",
"176 30 OFFCURVE",
"132 143 OFFCURVE",
"132 291 CURVE SMOOTH",
"132 449 OFFCURVE",
"167 597 OFFCURVE",
"282 597 CURVE SMOOTH"
);
},
{
closed = 1;
nodes = (
"650 399 LINE",
"647 341 OFFCURVE",
"618 329 OFFCURVE",
"565 329 CURVE SMOOTH",
"488 329 LINE",
"488 287 LINE",
"565 287 LINE SMOOTH",
"618 287 OFFCURVE",
"647 275 OFFCURVE",
"650 216 CURVE",
"683 216 LINE",
"677 322 OFFCURVE",
"677 295 OFFCURVE",
"683 399 CURVE"
);
},
{
closed = 1;
nodes = (
"720 625 OFFCURVE",
"665 625 OFFCURVE",
"616 625 CURVE SMOOTH",
"457 625 LINE",
"457 0 LINE",
"603 0 LINE SMOOTH",
"661 0 OFFCURVE",
"706 0 OFFCURVE",
"778 -5 CURVE",
"813 170 LINE",
"778 170 LINE",
"758 95 OFFCURVE",
"734 42 OFFCURVE",
"604 42 CURVE SMOOTH",
"525 42 LINE",
"525 582 LINE",
"619 582 LINE SMOOTH",
"715 582 OFFCURVE",
"741 551 OFFCURVE",
"762 455 CURVE",
"796 455 LINE",
"784 629 LINE"
);
}
);
width = 866;
},
{
anchors = (
{
name = top;
position = "{294, 622}";
}
);
background = {
paths = (
{
closed = 1;
nodes = (
"599 523 OFFCURVE",
"562 522 OFFCURVE",
"510 522 CURVE SMOOTH",
"358 522 LINE",
"358 0 LINE",
"503 0 LINE SMOOTH",
"555 0 OFFCURVE",
"598 -1 OFFCURVE",
"663 -6 CURVE",
"694 155 LINE",
"656 155 LINE",
"638 89 OFFCURVE",
"599 40 OFFCURVE",
"507 40 CURVE SMOOTH",
"456 40 LINE",
"456 482 LINE",
"510 482 LINE SMOOTH",
"600 482 OFFCURVE",
"621 439 OFFCURVE",
"636 378 CURVE",
"675 378 LINE",
"666 528 LINE"
);
},
{
closed = 1;
nodes = (
"549 351 LINE",
"547 291 OFFCURVE",
"515 277 OFFCURVE",
"472 277 CURVE SMOOTH",
"407 277 LINE",
"407 237 LINE",
"472 237 LINE SMOOTH",
"515 237 OFFCURVE",
"547 224 OFFCURVE",
"549 168 CURVE",
"585 168 LINE",
"578 244 OFFCURVE",
"578 276 OFFCURVE",
"585 351 CURVE"
);
},
{
closed = 1;
nodes = (
"131 534 OFFCURVE",
"30 440 OFFCURVE",
"30 235 CURVE SMOOTH",
"30 78 OFFCURVE",
"101 -12 OFFCURVE",
"236 -12 CURVE SMOOTH",
"363 -12 OFFCURVE",
"463 84 OFFCURVE",
"463 289 CURVE SMOOTH",
"463 449 OFFCURVE",
"393 534 OFFCURVE",
"258 534 CURVE SMOOTH"
);
},
{
closed = 1;
nodes = (
"323 491 OFFCURVE",
"359 399 OFFCURVE",
"359 277 CURVE SMOOTH",
"359 114 OFFCURVE",
"325 31 OFFCURVE",
"263 31 CURVE SMOOTH",
"177 31 OFFCURVE",
"135 127 OFFCURVE",
"135 249 CURVE SMOOTH",
"135 412 OFFCURVE",
"162 491 OFFCURVE",
"236 491 CURVE SMOOTH"
);
}
);
};
layerId = "EA62F474-A0CE-4CDB-8144-A83B4E00D785";
paths = (
{
closed = 1;
nodes = (
"156 638 OFFCURVE",
"36 526 OFFCURVE",
"36 282 CURVE SMOOTH",
"36 93 OFFCURVE",
"121 -15 OFFCURVE",
"282 -15 CURVE SMOOTH",
"446 -15 OFFCURVE",
"530 136 OFFCURVE",
"530 346 CURVE SMOOTH",
"530 501 OFFCURVE",
"458 638 OFFCURVE",
"308 638 CURVE SMOOTH"
);
},
{
closed = 1;
nodes = (
"386 587 OFFCURVE",
"430 477 OFFCURVE",
"430 331 CURVE SMOOTH",
"430 136 OFFCURVE",
"389 37 OFFCURVE",
"315 37 CURVE SMOOTH",
"212 37 OFFCURVE",
"162 152 OFFCURVE",
"162 298 CURVE SMOOTH",
"162 493 OFFCURVE",
"194 587 OFFCURVE",
"282 587 CURVE SMOOTH"
);
},
{
closed = 1;
nodes = (
"657 420 LINE",
"654 348 OFFCURVE",
"616 331 OFFCURVE",
"565 331 CURVE SMOOTH",
"487 331 LINE",
"487 283 LINE",
"565 283 LINE SMOOTH",
"616 283 OFFCURVE",
"654 268 OFFCURVE",
"657 201 CURVE",
"700 201 LINE",
"691 292 OFFCURVE",
"691 330 OFFCURVE",
"700 420 CURVE"
);
},
{
closed = 1;
nodes = (
"717 626 OFFCURVE",
"673 625 OFFCURVE",
"610 625 CURVE SMOOTH",
"452 625 LINE",
"452 0 LINE",
"602 0 LINE SMOOTH",
"664 0 OFFCURVE",
"715 -1 OFFCURVE",
"793 -7 CURVE",
"830 186 LINE",
"785 186 LINE",
"763 107 OFFCURVE",
"717 48 OFFCURVE",
"606 48 CURVE SMOOTH",
"546 48 LINE",
"546 577 LINE",
"610 577 LINE SMOOTH",
"718 577 OFFCURVE",
"742 525 OFFCURVE",
"761 452 CURVE",
"808 452 LINE",
"797 631 LINE"
);
}
);
width = 868;
}
);
leftKerningGroup = O;
leftMetricsKey = O;
rightKerningGroup = E;
rightMetricsKey = E;
unicode = 0152;
},
{
glyphname = P;
layers = (
{
layerId = "EA62F474-A0CE-4CDB-8144-A83B4E00D785";
paths = (
{
closed = 1;
nodes = (
"202 631 OFFCURVE",
"156 625 OFFCURVE",
"48 625 CURVE",
"48 581 LINE",
"117 579 OFFCURVE",
"126 557 OFFCURVE",
"126 489 CURVE SMOOTH",
"126 132 LINE SMOOTH",
"126 66 OFFCURVE",
"117 43 OFFCURVE",
"48 40 CURVE",
"48 -3 LINE",
"167 4 OFFCURVE",
"201 4 OFFCURVE",
"339 -3 CURVE",
"339 40 LINE",
"251 43 OFFCURVE",
"243 66 OFFCURVE",
"243 132 CURVE SMOOTH",
"243 578 LINE",
"266 578 LINE SMOOTH",
"371 578 OFFCURVE",
"411 518 OFFCURVE",
"411 434 CURVE SMOOTH",
"411 355 OFFCURVE",
"359 291 OFFCURVE",
"274 291 CURVE SMOOTH",
"244 291 OFFCURVE",
"219 293 OFFCURVE",
"186 298 CURVE",
"168 250 LINE",
"203 244 OFFCURVE",
"239 242 OFFCURVE",
"274 242 CURVE SMOOTH",
"447 242 OFFCURVE",
"535 315 OFFCURVE",
"535 446 CURVE SMOOTH",
"535 555 OFFCURVE",
"452 631 OFFCURVE",
"280 631 CURVE SMOOTH"
);
}
);
width = 567;
},
{
layerId = "B1D0FA45-0BED-409D-9800-57F37CCD9690";
paths = (
{
closed = 1;
nodes = (
"182 629 OFFCURVE",
"163 623 OFFCURVE",
"66 623 CURVE",
"66 594 LINE",
"124 592 OFFCURVE",
"134 579 OFFCURVE",
"134 517 CURVE SMOOTH",
"134 109 LINE SMOOTH",
"134 47 OFFCURVE",
"124 33 OFFCURVE",
"66 31 CURVE",
"66 -3 LINE",
"164 3 OFFCURVE",
"188 3 OFFCURVE",
"282 -3 CURVE",
"282 31 LINE",
"215 33 OFFCURVE",
"206 47 OFFCURVE",
"206 109 CURVE SMOOTH",
"206 581 LINE",
"260 581 LINE SMOOTH",
"366 581 OFFCURVE",
"407 523 OFFCURVE",
"407 447 CURVE SMOOTH",
"407 375 OFFCURVE",
"354 306 OFFCURVE",
"270 306 CURVE SMOOTH",
"239 306 OFFCURVE",
"214 308 OFFCURVE",
"180 315 CURVE",
"153 272 LINE",
"184 268 OFFCURVE",
"218 266 OFFCURVE",
"248 266 CURVE SMOOTH",
"406 266 OFFCURVE",
"486 338 OFFCURVE",
"486 457 CURVE SMOOTH",
"486 557 OFFCURVE",
"409 629 OFFCURVE",
"252 629 CURVE SMOOTH"
);
}
);
width = 515;
}
);
leftKerningGroup = H;
leftMetricsKey = I;
unicode = 0050;
},
{
glyphname = Thorn;
layers = (
{
anchors = (
{
name = top;
position = "{-170, 616}";
}
);
layerId = "B1D0FA45-0BED-409D-9800-57F37CCD9690";
paths = (
{
closed = 1;
nodes = (
"170 622 OFFCURVE",
"171 622 OFFCURVE",
"66 627 CURVE",
"66 593 LINE",
"124 591 OFFCURVE",
"134 578 OFFCURVE",
"134 515 CURVE",
"134 109 LINE SMOOTH",
"134 47 OFFCURVE",
"124 33 OFFCURVE",
"66 31 CURVE",
"66 -3 LINE",
"164 3 OFFCURVE",
"188 3 OFFCURVE",
"282 -3 CURVE",
"282 31 LINE",
"215 33 OFFCURVE",
"206 47 OFFCURVE",
"206 109 CURVE SMOOTH",
"206 457 LINE",
"260 457 LINE SMOOTH",
"366 457 OFFCURVE",
"407 398 OFFCURVE",
"407 323 CURVE SMOOTH",
"407 251 OFFCURVE",
"354 182 OFFCURVE",
"270 182 CURVE SMOOTH",
"239 182 OFFCURVE",
"214 184 OFFCURVE",
"180 190 CURVE",
"153 148 LINE",
"184 144 OFFCURVE",
"218 141 OFFCURVE",
"248 141 CURVE SMOOTH",
"406 141 OFFCURVE",
"486 213 OFFCURVE",
"486 332 CURVE SMOOTH",
"486 431 OFFCURVE",
"409 505 OFFCURVE",
"252 505 CURVE SMOOTH",
"235 505 OFFCURVE",
"219 505 OFFCURVE",
"206 503 CURVE",
"206 515 LINE",
"206 578 OFFCURVE",
"215 591 OFFCURVE",
"274 593 CURVE",
"274 627 LINE"
);
}
);
width = 515;
},
{
anchors = (
{
name = top;
position = "{-184, 622}";
}
);
background = {
paths = (
{
closed = 1;
nodes = (
"185 431 LINE",
"185 483 OFFCURVE",
"193 494 OFFCURVE",
"242 496 CURVE",
"242 524 LINE",
"155 520 OFFCURVE",
"156 520 OFFCURVE",
"68 524 CURVE",
"68 496 LINE",
"117 494 OFFCURVE",
"125 483 OFFCURVE",
"125 431 CURVE",
"125 91 LINE SMOOTH",
"125 39 OFFCURVE",
"117 28 OFFCURVE",
"68 26 CURVE",
"68 -2 LINE",
"150 2 OFFCURVE",
"170 2 OFFCURVE",
"248 -2 CURVE",
"248 26 LINE",
"193 28 OFFCURVE",
"185 39 OFFCURVE",
"185 91 CURVE SMOOTH",
"185 382 LINE",
"231 382 LINE SMOOTH",
"319 382 OFFCURVE",
"353 333 OFFCURVE",
"353 270 CURVE SMOOTH",
"353 210 OFFCURVE",
"309 152 OFFCURVE",
"238 152 CURVE SMOOTH",
"213 152 OFFCURVE",
"192 154 OFFCURVE",
"164 159 CURVE",
"141 124 LINE",
"167 120 OFFCURVE",
"195 118 OFFCURVE",
"221 118 CURVE SMOOTH",
"352 118 OFFCURVE",
"419 178 OFFCURVE",
"419 278 CURVE SMOOTH",
"419 361 OFFCURVE",
"355 422 OFFCURVE",
"224 422 CURVE SMOOTH",
"209 422 OFFCURVE",
"196 422 OFFCURVE",
"185 421 CURVE"
);
}
);
};
layerId = "EA62F474-A0CE-4CDB-8144-A83B4E00D785";
paths = (
{
closed = 1;
nodes = (
"201 618 OFFCURVE",
"167 618 OFFCURVE",
"48 627 CURVE",
"48 583 LINE",
"117 581 OFFCURVE",
"126 558 OFFCURVE",
"126 491 CURVE",
"126 132 LINE",
"126 66 OFFCURVE",
"117 43 OFFCURVE",
"48 40 CURVE",
"48 -3 LINE",
"167 4 OFFCURVE",
"201 4 OFFCURVE",
"339 -3 CURVE",
"339 40 LINE",
"251 43 OFFCURVE",
"243 66 OFFCURVE",
"243 132 CURVE SMOOTH",
"243 470 LINE",
"266 470 LINE SMOOTH",
"371 470 OFFCURVE",
"411 410 OFFCURVE",
"411 327 CURVE SMOOTH",
"411 247 OFFCURVE",
"359 183 OFFCURVE",
"274 183 CURVE SMOOTH",
"244 183 OFFCURVE",
"219 186 OFFCURVE",
"186 190 CURVE",
"168 143 LINE",
"203 136 OFFCURVE",
"239 134 OFFCURVE",
"274 134 CURVE SMOOTH",
"447 134 OFFCURVE",
"535 207 OFFCURVE",
"535 339 CURVE SMOOTH",
"535 447 OFFCURVE",
"452 523 OFFCURVE",
"280 523 CURVE SMOOTH",
"267 523 OFFCURVE",
"255 523 OFFCURVE",
"243 523 CURVE",
"243 526 LINE",
"243 565 OFFCURVE",
"264 581 OFFCURVE",
"322 583 CURVE",
"322 627 LINE"
);
}
);
width = 567;
}
);
leftMetricsKey = I;
rightKerningGroup = P;
rightMetricsKey = P;
unicode = 00DE;
},
{
glyphname = Q;
layers = (
{
components = (
{
name = O;
}
);
layerId = "EA62F474-A0CE-4CDB-8144-A83B4E00D785";
paths = (
{
closed = 1;
nodes = (
"258 -11 LINE",
"385 -104 LINE SMOOTH",
"425 -132 OFFCURVE",
"467 -144 OFFCURVE",
"512 -144 CURVE SMOOTH",
"565 -144 OFFCURVE",
"617 -128 OFFCURVE",
"662 -104 CURVE",
"662 -66 LINE",
"579 -66 OFFCURVE",
"537 -52 OFFCURVE",
"498 -37 CURVE SMOOTH",
"491 -35 LINE SMOOTH",
"449 -18 OFFCURVE",
"416 -1 OFFCURVE",
"302 -1 CURVE"
);
}
);
width = 585;
},
{
background = {
paths = (
{
closed = 1;
nodes = (
"502 -73 OFFCURVE",
"490 -76 OFFCURVE",
"443 -53 CURVE SMOOTH",
"380 -23 LINE SMOOTH",
"343 -5 OFFCURVE",
"315 -1 OFFCURVE",
"270 -1 CURVE",
"234 -7 LINE",
"395 -100 LINE SMOOTH",
"440 -126 OFFCURVE",
"483 -128 OFFCURVE",
"537 -100 CURVE",
"537 -73 LINE"
);
}
);
};
components = (
{
name = O;
}
);
layerId = "B1D0FA45-0BED-409D-9800-57F37CCD9690";
paths = (
{
closed = 1;
nodes = (
"280 -8 LINE",
"473 -120 LINE SMOOTH",
"500 -135 OFFCURVE",
"526 -144 OFFCURVE",
"555 -144 CURVE SMOOTH",
"582 -144 OFFCURVE",
"610 -136 OFFCURVE",
"642 -120 CURVE",
"642 -87 LINE",
"592 -87 OFFCURVE",
"566 -80 OFFCURVE",
"530 -63 CURVE SMOOTH",
"454 -28 LINE SMOOTH",
"410 -6 OFFCURVE",
"377 -1 OFFCURVE",
"323 -1 CURVE"
);
}
);
width = 589;
}
);
leftKerningGroup = O;
rightKerningGroup = O;
unicode = 0051;
},
{
glyphname = R;
layers = (
{
guideLines = (
{
position = "{357, -2}";
}
);
layerId = "EA62F474-A0CE-4CDB-8144-A83B4E00D785";
paths = (
{
closed = 1;
nodes = (
"202 631 OFFCURVE",
"156 625 OFFCURVE",
"48 625 CURVE",
"48 581 LINE",
"117 579 OFFCURVE",
"126 557 OFFCURVE",
"126 489 CURVE SMOOTH",
"126 132 LINE SMOOTH",
"126 66 OFFCURVE",
"117 43 OFFCURVE",
"48 40 CURVE",
"48 -3 LINE",
"167 4 OFFCURVE",
"201 4 OFFCURVE",
"339 -3 CURVE",
"339 40 LINE",
"251 43 OFFCURVE",
"243 66 OFFCURVE",
"243 132 CURVE SMOOTH",
"243 578 LINE",
"264 578 LINE SMOOTH",
"374 578 OFFCURVE",
"411 523 OFFCURVE",
"411 447 CURVE SMOOTH",
"411 375 OFFCURVE",
"356 318 OFFCURVE",
"268 318 CURVE SMOOTH",
"240 318 OFFCURVE",
"216 320 OFFCURVE",
"184 326 CURVE",
"168 275 LINE",
"201 270 OFFCURVE",
"236 267 OFFCURVE",
"268 267 CURVE SMOOTH",
"434 267 OFFCURVE",
"518 338 OFFCURVE",
"518 459 CURVE SMOOTH",
"518 561 OFFCURVE",
"445 631 OFFCURVE",
"280 631 CURVE SMOOTH"
);
},
{
closed = 1;
nodes = (
"270 298 LINE",
"421 0 LINE",
"477 0 OFFCURVE",
"499 1 OFFCURVE",
"590 -3 CURVE",
"590 40 LINE",
"539 42 OFFCURVE",
"509 68 OFFCURVE",
"482 121 CURVE SMOOTH",
"385 312 LINE"
);
}
);
width = 602;
},
{
layerId = "B1D0FA45-0BED-409D-9800-57F37CCD9690";
paths = (
{
closed = 1;
nodes = (
"183 629 OFFCURVE",
"163 623 OFFCURVE",
"66 623 CURVE",
"66 594 LINE",
"124 592 OFFCURVE",
"134 579 OFFCURVE",
"134 517 CURVE SMOOTH",
"134 109 LINE SMOOTH",
"134 47 OFFCURVE",
"124 33 OFFCURVE",
"66 31 CURVE",
"66 -3 LINE",
"163 3 OFFCURVE",
"178 3 OFFCURVE",
"282 -3 CURVE",
"282 31 LINE",
"215 33 OFFCURVE",
"206 47 OFFCURVE",
"206 109 CURVE SMOOTH",
"206 581 LINE",
"260 581 LINE SMOOTH",
"362 581 OFFCURVE",
"399 527 OFFCURVE",
"399 459 CURVE SMOOTH",
"399 394 OFFCURVE",
"350 331 OFFCURVE",
"270 331 CURVE SMOOTH",
"239 331 OFFCURVE",
"214 334 OFFCURVE",
"180 339 CURVE",
"153 298 LINE",
"184 293 OFFCURVE",
"216 290 OFFCURVE",
"247 290 CURVE SMOOTH",
"399 290 OFFCURVE",
"476 356 OFFCURVE",
"476 467 CURVE SMOOTH",
"476 561 OFFCURVE",
"403 629 OFFCURVE",
"251 629 CURVE SMOOTH"
);
},
{
closed = 1;
nodes = (
"258 308 LINE",
"415 0 LINE",
"442 0 OFFCURVE",
"481 1 OFFCURVE",
"546 -3 CURVE",
"546 31 LINE",
"488 33 OFFCURVE",
"469 63 OFFCURVE",
"457 86 CURVE SMOOTH",
"331 323 LINE"
);
}
);
width = 565;
}
);
leftKerningGroup = H;
leftMetricsKey = I;
unicode = 0052;
},
{
glyphname = S;
layers = (
{
anchors = (
{
name = top;
position = "{247, 631}";
}
);
background = {
paths = (
{
closed = 1;
nodes = (
"261 56 OFFCURVE",
"219 31 OFFCURVE",
"174 31 CURVE SMOOTH",
"106 31 OFFCURVE",
"63 75 OFFCURVE",
"46 163 CURVE",
"10 163 LINE",
"16 114 OFFCURVE",
"18 63 OFFCURVE",
"18 13 CURVE",
"64 -4 OFFCURVE",
"123 -12 OFFCURVE",
"172 -12 CURVE SMOOTH",
"264 -12 OFFCURVE",
"340 43 OFFCURVE",
"340 137 CURVE SMOOTH",
"340 245 OFFCURVE",
"276 276 OFFCURVE",
"214 305 CURVE SMOOTH",
"156 332 OFFCURVE",
"101 349 OFFCURVE",
"101 418 CURVE SMOOTH",
"101 466 OFFCURVE",
"136 490 OFFCURVE",
"190 490 CURVE SMOOTH",
"247 490 OFFCURVE",
"284 442 OFFCURVE",
"284 375 CURVE",
"323 375 LINE",
"323 417 OFFCURVE",
"324 467 OFFCURVE",
"331 505 CURVE",
"296 522 OFFCURVE",
"243 533 OFFCURVE",
"195 533 CURVE SMOOTH",
"114 533 OFFCURVE",
"21 499 OFFCURVE",
"21 393 CURVE SMOOTH",
"21 285 OFFCURVE",
"85 254 OFFCURVE",
"148 224 CURVE SMOOTH",
"206 197 OFFCURVE",
"261 180 OFFCURVE",
"261 111 CURVE SMOOTH"
);
}
);
};
layerId = "EA62F474-A0CE-4CDB-8144-A83B4E00D785";
paths = (
{
closed = 1;
nodes = (
"155 638 OFFCURVE",
"43 597 OFFCURVE",
"43 470 CURVE SMOOTH",
"43 341 OFFCURVE",
"117 302 OFFCURVE",
"192 266 CURVE SMOOTH",
"262 234 OFFCURVE",
"328 215 OFFCURVE",
"328 132 CURVE SMOOTH",
"328 67 OFFCURVE",
"280 37 OFFCURVE",
"226 37 CURVE SMOOTH",
"144 37 OFFCURVE",
"97 90 OFFCURVE",
"76 195 CURVE",
"30 195 LINE",
"37 136 OFFCURVE",
"40 75 OFFCURVE",
"40 16 CURVE",
"95 -5 OFFCURVE",
"165 -15 OFFCURVE",
"224 -15 CURVE SMOOTH",
"334 -15 OFFCURVE",
"425 52 OFFCURVE",
"425 164 CURVE SMOOTH",
"425 293 OFFCURVE",
"351 332 OFFCURVE",
"276 367 CURVE SMOOTH",
"207 399 OFFCURVE",
"141 418 OFFCURVE",
"141 500 CURVE SMOOTH",
"141 558 OFFCURVE",
"183 586 OFFCURVE",
"247 586 CURVE SMOOTH",
"316 586 OFFCURVE",
"362 529 OFFCURVE",
"362 449 CURVE",
"404 449 LINE",
"404 499 OFFCURVE",
"406 558 OFFCURVE",
"414 604 CURVE",
"372 625 OFFCURVE",
"308 638 OFFCURVE",
"251 638 CURVE SMOOTH"
);
}
);
width = 449;
},
{
anchors = (
{
name = top;
position = "{248, 616}";
}
);
background = {
paths = (
{
closed = 1;
nodes = (
"122 24 OFFCURVE",
"88 69 OFFCURVE",
"71 146 CURVE",
"71 146 OFFCURVE",
"40 146 OFFCURVE",
"40 146 CURVE",
"45 103 OFFCURVE",
"47 59 OFFCURVE",
"47 15 CURVE",
"92 -3 OFFCURVE",
"140 -12 OFFCURVE",
"188 -12 CURVE SMOOTH",
"279 -12 OFFCURVE",
"354 51 OFFCURVE",
"354 147 CURVE SMOOTH",
"354 229 OFFCURVE",
"277 265 OFFCURVE",
"221 292 CURVE SMOOTH",
"173 315 OFFCURVE",
"106 348 OFFCURVE",
"106 413 CURVE SMOOTH",
"106 466 OFFCURVE",
"153 498 OFFCURVE",
"202 498 CURVE SMOOTH",
"262 498 OFFCURVE",
"303 458 OFFCURVE",
"303 390 CURVE",
"333 390 LINE",
"333 436 OFFCURVE",
"333 465 OFFCURVE",
"337 511 CURVE",
"305 526 OFFCURVE",
"257 534 OFFCURVE",
"209 534 CURVE SMOOTH",
"128 534 OFFCURVE",
"50 499 OFFCURVE",
"50 393 CURVE SMOOTH",
"50 308 OFFCURVE",
"133 267 OFFCURVE",
"186 242 CURVE SMOOTH",
"243 216 OFFCURVE",
"293 192 OFFCURVE",
"293 120 CURVE SMOOTH",
"293 59 OFFCURVE",
"241 24 OFFCURVE",
"192 24 CURVE SMOOTH"
);
}
);
};
layerId = "B1D0FA45-0BED-409D-9800-57F37CCD9690";
paths = (
{
closed = 1;
nodes = (
"153 638 OFFCURVE",
"60 597 OFFCURVE",
"60 470 CURVE SMOOTH",
"60 368 OFFCURVE",
"159 319 OFFCURVE",
"223 290 CURVE SMOOTH",
"291 259 OFFCURVE",
"351 230 OFFCURVE",
"351 144 CURVE SMOOTH",
"351 71 OFFCURVE",
"288 31 OFFCURVE",
"230 31 CURVE SMOOTH",
"146 31 OFFCURVE",
"105 85 OFFCURVE",
"85 177 CURVE",
"48 177 LINE",
"54 126 OFFCURVE",
"56 73 OFFCURVE",
"56 20 CURVE",
"110 -1 OFFCURVE",
"167 -12 OFFCURVE",
"224 -12 CURVE SMOOTH",
"334 -12 OFFCURVE",
"423 52 OFFCURVE",
"423 167 CURVE SMOOTH",
"423 268 OFFCURVE",
"331 317 OFFCURVE",
"264 350 CURVE SMOOTH",
"207 377 OFFCURVE",
"127 416 OFFCURVE",
"127 494 CURVE SMOOTH",
"127 558 OFFCURVE",
"183 595 OFFCURVE",
"242 595 CURVE SMOOTH",
"314 595 OFFCURVE",
"362 547 OFFCURVE",
"362 466 CURVE",
"398 466 LINE",
"398 522 OFFCURVE",
"398 557 OFFCURVE",
"403 611 CURVE",
"365 629 OFFCURVE",
"307 638 OFFCURVE",
"250 638 CURVE SMOOTH"
);
}
);
width = 471;
}
);
leftKerningGroup = S;
rightKerningGroup = S;
unicode = 0053;
},
{
glyphname = T;
layers = (
{
background = {
paths = (
{
closed = 1;
nodes = (
"375 523 OFFCURVE",
"338 522 OFFCURVE",
"286 522 CURVE SMOOTH",
"198 522 LINE SMOOTH",
"164 522 OFFCURVE",
"130 522 OFFCURVE",
"76 524 CURVE",
"76 488 LINE",
"134 486 OFFCURVE",
"141 467 OFFCURVE",
"141 411 CURVE",
"141 111 LINE",
"141 55 OFFCURVE",
"134 36 OFFCURVE",
"76 34 CURVE",
"76 -2 LINE",
"130 0 OFFCURVE",
"164 0 OFFCURVE",
"198 0 CURVE SMOOTH",
"286 0 LINE SMOOTH",
"338 0 OFFCURVE",
"381 -1 OFFCURVE",
"446 -6 CURVE",
"477 155 LINE",
"439 155 LINE",
"421 89 OFFCURVE",
"382 40 OFFCURVE",
"290 40 CURVE SMOOTH",
"239 40 LINE",
"239 482 LINE",
"286 482 LINE SMOOTH",
"376 482 OFFCURVE",
"397 439 OFFCURVE",
"412 378 CURVE",
"451 378 LINE",
"442 528 LINE"
);
},
{
closed = 1;
nodes = (
"332 351 LINE",
"330 291 OFFCURVE",
"298 277 OFFCURVE",
"255 277 CURVE SMOOTH",
"190 277 LINE",
"190 237 LINE",
"255 237 LINE SMOOTH",
"298 237 OFFCURVE",
"330 224 OFFCURVE",
"332 168 CURVE",
"368 168 LINE",
"361 244 OFFCURVE",
"361 276 OFFCURVE",
"368 351 CURVE"
);
},
{
closed = 1;
nodes = (
"188 490 LINE",
"188 111 LINE",
"188 55 OFFCURVE",
"181 36 OFFCURVE",
"115 34 CURVE",
"115 -2 LINE",
"223 3 OFFCURVE",
"251 3 OFFCURVE",
"359 -2 CURVE",
"359 34 LINE",
"293 36 OFFCURVE",
"286 55 OFFCURVE",
"286 111 CURVE",
"286 490 LINE"
);
},
{
closed = 1;
nodes = (
"375 524 OFFCURVE",
"338 522 OFFCURVE",
"286 522 CURVE",
"190 522 LINE",
"138 522 OFFCURVE",
"101 524 OFFCURVE",
"34 528 CURVE",
"20 347 LINE",
"54 347 LINE",
"72 437 OFFCURVE",
"98 482 OFFCURVE",
"191 482 CURVE SMOOTH",
"205 482 LINE",
"272 482 LINE",
"283 482 LINE SMOOTH",
"374 482 OFFCURVE",
"401 441 OFFCURVE",
"420 347 CURVE",
"453 347 LINE",
"442 528 LINE"
);
}
);
};
guideLines = (
{
angle = 90;
position = "{271, 506}";
}
);
layerId = "EA62F474-A0CE-4CDB-8144-A83B4E00D785";
paths = (
{
closed = 1;
nodes = (
"224 586 LINE",
"224 132 LINE",
"224 66 OFFCURVE",
"216 43 OFFCURVE",
"138 40 CURVE",
"138 -3 LINE",
"267 4 OFFCURVE",
"300 4 OFFCURVE",
"430 -3 CURVE",
"430 40 LINE",
"351 43 OFFCURVE",
"342 66 OFFCURVE",
"342 132 CURVE",
"342 586 LINE"
);
},
{
closed = 1;
nodes = (
"449 627 OFFCURVE",
"404 625 OFFCURVE",
"342 625 CURVE",
"224 625 LINE",
"163 625 OFFCURVE",
"119 627 OFFCURVE",
"39 631 CURVE",
"27 433 LINE",
"66 433 LINE",
"88 527 OFFCURVE",
"120 577 OFFCURVE",
"228 577 CURVE",
"246 577 LINE",
"326 577 LINE",
"339 577 LINE SMOOTH",
"447 577 OFFCURVE",
"478 527 OFFCURVE",
"501 433 CURVE",
"541 433 LINE",
"529 631 LINE"
);
}
);
width = 561;
},
{
background = {
paths = (
{
closed = 1;
nodes = (
"232 521 OFFCURVE",
"233 521 OFFCURVE",
"145 525 CURVE",
"145 497 LINE",
"194 495 OFFCURVE",
"202 484 OFFCURVE",
"202 432 CURVE",
"202 91 LINE",
"202 39 OFFCURVE",
"194 28 OFFCURVE",
"145 26 CURVE",
"145 -2 LINE",
"233 2 OFFCURVE",
"232 2 OFFCURVE",
"319 -2 CURVE",
"319 26 LINE",
"270 28 OFFCURVE",
"262 39 OFFCURVE",
"262 91 CURVE",
"262 432 LINE",
"262 484 OFFCURVE",
"270 495 OFFCURVE",
"319 497 CURVE",
"319 525 LINE"
);
},
{
closed = 1;
nodes = (
"365 522 OFFCURVE",
"319 522 OFFCURVE",
"278 522 CURVE SMOOTH",
"182 522 LINE SMOOTH",
"160 522 OFFCURVE",
"139 522 OFFCURVE",
"95 524 CURVE",
"95 496 LINE",
"144 494 OFFCURVE",
"152 483 OFFCURVE",
"152 431 CURVE SMOOTH",
"152 91 LINE SMOOTH",
"152 39 OFFCURVE",
"144 28 OFFCURVE",
"95 26 CURVE",
"95 -2 LINE",
"139 0 OFFCURVE",
"160 0 OFFCURVE",
"182 0 CURVE SMOOTH",
"277 0 LINE SMOOTH",
"325 0 OFFCURVE",
"363 0 OFFCURVE",
"424 -4 CURVE",
"453 142 LINE",
"424 142 LINE",
"407 79 OFFCURVE",
"387 35 OFFCURVE",
"278 35 CURVE SMOOTH",
"212 35 LINE",
"212 487 LINE",
"281 487 LINE SMOOTH",
"361 487 OFFCURVE",
"382 461 OFFCURVE",
"400 381 CURVE",
"428 381 LINE",
"418 526 LINE"
);
},
{
closed = 1;
nodes = (
"316 334 LINE",
"314 285 OFFCURVE",
"290 275 OFFCURVE",
"245 275 CURVE SMOOTH",
"181 275 LINE",
"181 240 LINE",
"245 240 LINE SMOOTH",
"290 240 OFFCURVE",
"314 230 OFFCURVE",
"316 181 CURVE",
"344 181 LINE",
"339 269 OFFCURVE",
"339 247 OFFCURVE",
"344 334 CURVE"
);
}
);
};
guideLines = (
{
position = "{386, 525}";
}
);
layerId = "B1D0FA45-0BED-409D-9800-57F37CCD9690";
paths = (
{
closed = 1;
nodes = (
"242 586 LINE",
"242 109 LINE SMOOTH",
"242 47 OFFCURVE",
"232 33 OFFCURVE",
"167 31 CURVE",
"167 -3 LINE",
"278 3 OFFCURVE",
"276 3 OFFCURVE",
"389 -3 CURVE",
"389 31 LINE",
"323 33 OFFCURVE",
"314 47 OFFCURVE",
"314 109 CURVE SMOOTH",
"314 586 LINE"
);
},
{
closed = 1;
nodes = (
"438 626 OFFCURVE",
"383 625 OFFCURVE",
"334 625 CURVE SMOOTH",
"222 625 LINE",
"172 625 OFFCURVE",
"117 626 OFFCURVE",
"54 629 CURVE",
"43 455 LINE",
"76 455 LINE",
"99 546 OFFCURVE",
"112 586 OFFCURVE",
"223 586 CURVE",
"242 586 LINE",
"314 586 LINE",
"332 586 LINE SMOOTH",
"443 586 OFFCURVE",
"455 546 OFFCURVE",
"478 455 CURVE",
"512 455 LINE",
"501 629 LINE"
);
}
);
width = 555;
}
);
unicode = 0054;
},
{
glyphname = U;
layers = (
{
anchors = (
{
name = top;
position = "{346, 622}";
}
);
background = {
paths = (
{
closed = 1;
nodes = (
"395 519 OFFCURVE",
"409 519 OFFCURVE",
"309 526 CURVE",
"309 490 LINE",
"367 488 OFFCURVE",
"374 469 OFFCURVE",
"374 413 CURVE SMOOTH",
"374 149 LINE SMOOTH",
"374 74 OFFCURVE",
"336 34 OFFCURVE",
"279 34 CURVE SMOOTH",
"224 34 OFFCURVE",
"176 55 OFFCURVE",
"176 129 CURVE SMOOTH",
"176 413 LINE SMOOTH",
"176 469 OFFCURVE",
"183 488 OFFCURVE",
"242 490 CURVE",
"242 526 LINE",
"141 519 OFFCURVE",
"113 519 OFFCURVE",
"13 526 CURVE",
"13 490 LINE",
"71 488 OFFCURVE",
"78 469 OFFCURVE",
"78 413 CURVE SMOOTH",
"78 149 LINE SMOOTH",
"78 45 OFFCURVE",
"138 -15 OFFCURVE",
"258 -15 CURVE SMOOTH",
"364 -15 OFFCURVE",
"430 52 OFFCURVE",
"430 158 CURVE SMOOTH",
"430 413 LINE SMOOTH",
"430 469 OFFCURVE",
"437 488 OFFCURVE",
"496 490 CURVE",
"496 526 LINE"
);
}
);
};
layerId = "EA62F474-A0CE-4CDB-8144-A83B4E00D785";
paths = (
{
closed = 1;
nodes = (
"514 618 OFFCURVE",
"482 618 OFFCURVE",
"387 627 CURVE",
"387 583 LINE",
"457 581 OFFCURVE",
"465 558 OFFCURVE",
"465 491 CURVE SMOOTH",
"465 178 LINE SMOOTH",
"465 88 OFFCURVE",
"419 40 OFFCURVE",
"349 40 CURVE SMOOTH",
"273 40 OFFCURVE",
"227 83 OFFCURVE",
"227 171 CURVE SMOOTH",
"227 491 LINE SMOOTH",
"227 558 OFFCURVE",
"237 581 OFFCURVE",
"307 583 CURVE",
"307 627 LINE",
"186 618 OFFCURVE",
"153 618 OFFCURVE",
"33 627 CURVE",
"33 583 LINE",
"102 581 OFFCURVE",
"111 558 OFFCURVE",
"111 491 CURVE SMOOTH",
"111 194 LINE SMOOTH",
"111 61 OFFCURVE",
"174 -18 OFFCURVE",
"326 -18 CURVE SMOOTH",
"453 -18 OFFCURVE",
"532 63 OFFCURVE",
"532 189 CURVE SMOOTH",
"532 491 LINE SMOOTH",
"532 558 OFFCURVE",
"540 581 OFFCURVE",
"610 583 CURVE",
"610 627 LINE"
);
}
);
width = 643;
},
{
anchors = (
{
name = top;
position = "{323, 616}";
}
);
background = {
paths = (
{
closed = 1;
nodes = (
"394 521 OFFCURVE",
"415 521 OFFCURVE",
"327 525 CURVE",
"327 497 LINE",
"376 495 OFFCURVE",
"384 484 OFFCURVE",
"384 432 CURVE SMOOTH",
"384 153 LINE SMOOTH",
"384 68 OFFCURVE",
"341 23 OFFCURVE",
"277 23 CURVE SMOOTH",
"202 23 OFFCURVE",
"160 67 OFFCURVE",
"160 159 CURVE SMOOTH",
"160 432 LINE SMOOTH",
"160 484 OFFCURVE",
"168 495 OFFCURVE",
"217 497 CURVE",
"217 525 LINE",
"130 521 OFFCURVE",
"131 521 OFFCURVE",
"43 525 CURVE",
"43 497 LINE",
"92 495 OFFCURVE",
"100 484 OFFCURVE",
"100 432 CURVE SMOOTH",
"100 175 LINE SMOOTH",
"100 70 OFFCURVE",
"130 -12 OFFCURVE",
"266 -12 CURVE SMOOTH",
"385 -12 OFFCURVE",
"424 65 OFFCURVE",
"424 165 CURVE SMOOTH",
"424 432 LINE SMOOTH",
"424 484 OFFCURVE",
"432 495 OFFCURVE",
"481 497 CURVE",
"481 525 LINE"
);
}
);
};
layerId = "B1D0FA45-0BED-409D-9800-57F37CCD9690";
paths = (
{
closed = 1;
nodes = (
"470 622 OFFCURVE",
"496 622 OFFCURVE",
"390 627 CURVE",
"390 593 LINE",
"449 591 OFFCURVE",
"458 578 OFFCURVE",
"458 515 CURVE SMOOTH",
"458 187 LINE SMOOTH",
"458 92 OFFCURVE",
"410 39 OFFCURVE",
"331 39 CURVE SMOOTH",
"241 39 OFFCURVE",
"191 88 OFFCURVE",
"191 201 CURVE SMOOTH",
"191 515 LINE SMOOTH",
"191 578 OFFCURVE",
"201 591 OFFCURVE",
"259 593 CURVE",
"259 627 LINE",
"155 622 OFFCURVE",
"156 622 OFFCURVE",
"51 627 CURVE",
"51 593 LINE",
"110 591 OFFCURVE",
"119 578 OFFCURVE",
"119 515 CURVE SMOOTH",
"119 216 LINE SMOOTH",
"119 91 OFFCURVE",
"155 -12 OFFCURVE",
"318 -12 CURVE SMOOTH",
"454 -12 OFFCURVE",
"506 78 OFFCURVE",
"506 200 CURVE SMOOTH",
"506 515 LINE SMOOTH",
"506 578 OFFCURVE",
"516 591 OFFCURVE",
"574 593 CURVE",
"574 627 LINE"
);
}
);
width = 624;
}
);
leftKerningGroup = U;
leftMetricsKey = "=I-15";
rightKerningGroup = U;
rightMetricsKey = "=I-15";
unicode = 0055;
},
{
glyphname = V;
layers = (
{
layerId = "EA62F474-A0CE-4CDB-8144-A83B4E00D785";
paths = (
{
closed = 1;
nodes = (
"497 621 OFFCURVE",
"486 621 OFFCURVE",
"389 627 CURVE",
"389 583 LINE",
"467 581 OFFCURVE",
"458 558 OFFCURVE",
"447 522 CURVE SMOOTH",
"329 147 LINE",
"329 147 OFFCURVE",
"326 147 OFFCURVE",
"326 147 CURVE",
"206 522 LINE SMOOTH",
"194 558 OFFCURVE",
"200 581 OFFCURVE",
"271 583 CURVE",
"271 627 LINE",
"151 618 OFFCURVE",
"138 618 OFFCURVE",
"18 627 CURVE",
"18 583 LINE",
"45 583 OFFCURVE",
"69 563 OFFCURVE",
"75 545 CURVE SMOOTH",
"250 0 LINE",
"250 0 OFFCURVE",
"343 0 OFFCURVE",
"344 0 CURVE",
"519 545 LINE SMOOTH",
"525 563 OFFCURVE",
"549 583 OFFCURVE",
"577 583 CURVE",
"577 627 LINE"
);
}
);
width = 590;
},
{
background = {
paths = (
{
closed = 1;
nodes = (
"375 519 OFFCURVE",
"404 519 OFFCURVE",
"317 524 CURVE",
"317 496 LINE",
"358 494 OFFCURVE",
"386 493 OFFCURVE",
"373 453 CURVE SMOOTH",
"258 93 LINE",
"258 93 OFFCURVE",
"255 93 OFFCURVE",
"255 93 CURVE",
"135 452 LINE SMOOTH",
"121 495 OFFCURVE",
"149 494 OFFCURVE",
"189 496 CURVE",
"189 524 LINE",
"95 519 OFFCURVE",
"106 519 OFFCURVE",
"25 524 CURVE",
"25 496 LINE",
"53 495 OFFCURVE",
"59 490 OFFCURVE",
"63 477 CURVE SMOOTH",
"221 0 LINE",
"221 0 OFFCURVE",
"268 0 OFFCURVE",
"269 0 CURVE",
"424 477 LINE SMOOTH",
"428 490 OFFCURVE",
"435 495 OFFCURVE",
"463 496 CURVE",
"463 524 LINE"
);
}
);
};
guideLines = (
{
angle = 90;
position = "{253, 348}";
}
);
layerId = "B1D0FA45-0BED-409D-9800-57F37CCD9690";
paths = (
{
closed = 1;
nodes = (
"449 621 OFFCURVE",
"483 621 OFFCURVE",
"379 627 CURVE",
"379 593 LINE",
"428 591 OFFCURVE",
"458 581 OFFCURVE",
"443 533 CURVE SMOOTH",
"308 111 LINE",
"308 111 OFFCURVE",
"305 111 OFFCURVE",
"305 111 CURVE",
"162 541 LINE SMOOTH",
"144 592 OFFCURVE",
"178 591 OFFCURVE",
"226 593 CURVE",
"226 627 LINE",
"114 621 OFFCURVE",
"127 621 OFFCURVE",
"30 627 CURVE",
"30 593 LINE",
"63 592 OFFCURVE",
"71 586 OFFCURVE",
"75 570 CURVE SMOOTH",
"264 0 LINE",
"264 0 OFFCURVE",
"320 0 OFFCURVE",
"322 0 CURVE",
"503 561 LINE SMOOTH",
"509 577 OFFCURVE",
"521 592 OFFCURVE",
"554 593 CURVE",
"554 627 LINE"
);
}
);
width = 583;
}
);
unicode = 0056;
},
{
glyphname = W;
layers = (
{
layerId = "EA62F474-A0CE-4CDB-8144-A83B4E00D785";
paths = (
{
closed = 1;
nodes = (
"769 618 OFFCURVE",
"732 618 OFFCURVE",
"646 627 CURVE",
"646 583 LINE",
"718 581 OFFCURVE",
"720 558 OFFCURVE",
"712 522 CURVE",
"640 147 LINE",
"640 147 OFFCURVE",
"637 147 OFFCURVE",
"637 147 CURVE",
"496 622 LINE",
"497 622 OFFCURVE",
"429 622 OFFCURVE",
"429 622 CURVE",
"299 147 LINE",
"299 147 OFFCURVE",
"295 147 OFFCURVE",
"295 147 CURVE",
"211 522 LINE SMOOTH",
"202 558 OFFCURVE",
"205 581 OFFCURVE",
"277 583 CURVE",
"277 627 LINE",
"155 618 OFFCURVE",
"143 618 OFFCURVE",
"23 627 CURVE",
"23 583 LINE",
"51 583 OFFCURVE",
"75 563 OFFCURVE",
"80 545 CURVE SMOOTH",
"221 0 LINE",
"221 0 OFFCURVE",
"318 0 OFFCURVE",
"319 0 CURVE",
"433 423 LINE",
"568 0 LINE",
"568 0 OFFCURVE",
"664 0 OFFCURVE",
"664 0 CURVE",
"786 545 LINE SMOOTH",
"791 563 OFFCURVE",
"816 583 OFFCURVE",
"844 583 CURVE",
"844 627 LINE"
);
}
);
width = 862;
},
{
background = {
paths = (
{
closed = 1;
nodes = (
"581 520 OFFCURVE",
"615 520 OFFCURVE",
"528 524 CURVE",
"528 496 LINE",
"568 494 OFFCURVE",
"596 495 OFFCURVE",
"582 452 CURVE",
"500 93 LINE",
"500 93 OFFCURVE",
"497 93 OFFCURVE",
"497 93 CURVE",
"377 520 LINE",
"377 520 OFFCURVE",
"342 520 OFFCURVE",
"342 520 CURVE",
"230 93 LINE",
"230 93 OFFCURVE",
"227 93 OFFCURVE",
"227 93 CURVE",
"139 452 LINE",
"125 495 OFFCURVE",
"153 494 OFFCURVE",
"193 496 CURVE",
"193 524 LINE",
"106 520 OFFCURVE",
"117 520 OFFCURVE",
"29 524 CURVE",
"29 496 LINE",
"57 495 OFFCURVE",
"63 490 OFFCURVE",
"67 477 CURVE",
"193 0 LINE",
"193 0 OFFCURVE",
"240 0 OFFCURVE",
"241 0 CURVE",
"350 393 LINE",
"463 0 LINE",
"464 0 OFFCURVE",
"511 0 OFFCURVE",
"511 0 CURVE",
"631 477 LINE",
"635 490 OFFCURVE",
"641 495 OFFCURVE",
"669 496 CURVE",
"669 524 LINE"
);
}
);
};
layerId = "B1D0FA45-0BED-409D-9800-57F37CCD9690";
paths = (
{
closed = 1;
nodes = (
"697 621 OFFCURVE",
"732 621 OFFCURVE",
"628 627 CURVE",
"628 593 LINE",
"677 591 OFFCURVE",
"702 581 OFFCURVE",
"692 533 CURVE SMOOTH",
"598 111 LINE",
"598 111 OFFCURVE",
"594 111 OFFCURVE",
"594 111 CURVE",
"451 622 LINE",
"451 622 OFFCURVE",
"409 622 OFFCURVE",
"409 622 CURVE",
"275 111 LINE",
"275 111 OFFCURVE",
"271 111 OFFCURVE",
"271 111 CURVE",
"166 541 LINE",
"150 592 OFFCURVE",
"183 591 OFFCURVE",
"231 593 CURVE",
"231 627 LINE",
"127 622 OFFCURVE",
"140 622 OFFCURVE",
"35 627 CURVE",
"35 593 LINE",
"68 592 OFFCURVE",
"75 586 OFFCURVE",
"80 570 CURVE",
"231 0 LINE",
"231 0 OFFCURVE",
"287 0 OFFCURVE",
"289 0 CURVE",
"419 470 LINE",
"554 0 LINE",
"556 0 OFFCURVE",
"612 0 OFFCURVE",
"612 0 CURVE",
"752 561 LINE SMOOTH",
"757 579 OFFCURVE",
"769 592 OFFCURVE",
"803 593 CURVE",
"803 627 LINE"
);
}
);
width = 837;
}
);
leftMetricsKey = "=V+5";
rightMetricsKey = "=V+5";
unicode = 0057;
},
{
glyphname = X;
layers = (
{
layerId = "EA62F474-A0CE-4CDB-8144-A83B4E00D785";
paths = (
{
closed = 1;
nodes = (
"287 272 LINE",
"396 103 LINE SMOOTH",
"416 72 OFFCURVE",
"402 43 OFFCURVE",
"330 40 CURVE",
"330 -3 LINE",
"451 4 OFFCURVE",
"482 4 OFFCURVE",
"602 -3 CURVE",
"602 40 LINE",
"574 40 OFFCURVE",
"555 63 OFFCURVE",
"545 80 CURVE SMOOTH",
"356 367 LINE"
);
},
{
closed = 1;
nodes = (
"97 80 LINE SMOOTH",
"85 64 OFFCURVE",
"57 40 OFFCURVE",
"30 40 CURVE",
"30 -3 LINE",
"111 3 OFFCURVE",
"158 3 OFFCURVE",
"247 -3 CURVE",
"247 40 LINE",
"175 43 OFFCURVE",
"167 73 OFFCURVE",
"190 103 CURVE SMOOTH",
"330 293 LINE",
"283 329 LINE"
);
},
{
closed = 1;
nodes = (
"183 618 OFFCURVE",
"156 618 OFFCURVE",
"44 627 CURVE",
"44 583 LINE",
"72 583 OFFCURVE",
"92 562 OFFCURVE",
"102 545 CURVE",
"278 272 LINE",
"347 367 LINE",
"246 522 LINE SMOOTH",
"224 553 OFFCURVE",
"239 581 OFFCURVE",
"311 583 CURVE",
"311 627 LINE"
);
},
{
closed = 1;
nodes = (
"519 618 OFFCURVE",
"470 618 OFFCURVE",
"383 627 CURVE",
"383 583 LINE",
"454 581 OFFCURVE",
"462 551 OFFCURVE",
"439 522 CURVE SMOOTH",
"283 316 LINE",
"329 280 LINE",
"526 545 LINE SMOOTH",
"538 561 OFFCURVE",
"566 583 OFFCURVE",
"593 583 CURVE",
"593 627 LINE"
);
}
);
width = 638;
},
{
background = {
paths = (
{
closed = 1;
nodes = (
"219 235 LINE",
"318 70 LINE SMOOTH",
"341 31 OFFCURVE",
"325 28 OFFCURVE",
"285 26 CURVE",
"285 -2 LINE",
"352 2 OFFCURVE",
"381 2 OFFCURVE",
"453 -2 CURVE",
"453 26 LINE",
"421 27 OFFCURVE",
"404 43 OFFCURVE",
"395 59 CURVE SMOOTH",
"257 291 LINE"
);
},
{
closed = 1;
nodes = (
"79 59 LINE",
"70 43 OFFCURVE",
"53 27 OFFCURVE",
"21 26 CURVE",
"21 -2 LINE",
"80 2 OFFCURVE",
"98 2 OFFCURVE",
"161 -2 CURVE",
"161 26 LINE",
"121 28 OFFCURVE",
"103 32 OFFCURVE",
"128 70 CURVE SMOOTH",
"250 260 LINE",
"226 288 LINE"
);
},
{
closed = 1;
nodes = (
"128 520 OFFCURVE",
"99 520 OFFCURVE",
"27 524 CURVE",
"27 496 LINE",
"59 495 OFFCURVE",
"62 488 OFFCURVE",
"69 477 CURVE SMOOTH",
"213 235 LINE",
"251 291 LINE",
"155 452 LINE SMOOTH",
"132 491 OFFCURVE",
"155 494 OFFCURVE",
"195 496 CURVE",
"195 524 LINE"
);
},
{
closed = 1;
nodes = (
"379 520 OFFCURVE",
"351 520 OFFCURVE",
"301 524 CURVE",
"301 496 LINE",
"341 494 OFFCURVE",
"366 490 OFFCURVE",
"341 452 CURVE SMOOTH",
"226 275 LINE",
"250 247 LINE",
"399 477 LINE SMOOTH",
"406 488 OFFCURVE",
"409 495 OFFCURVE",
"441 496 CURVE",
"441 524 LINE"
);
}
);
};
layerId = "B1D0FA45-0BED-409D-9800-57F37CCD9690";
paths = (
{
closed = 1;
nodes = (
"262 282 LINE",
"380 84 LINE SMOOTH",
"408 37 OFFCURVE",
"389 33 OFFCURVE",
"341 31 CURVE",
"341 -3 LINE",
"421 3 OFFCURVE",
"455 3 OFFCURVE",
"542 -3 CURVE",
"542 31 LINE",
"503 32 OFFCURVE",
"483 52 OFFCURVE",
"473 71 CURVE SMOOTH",
"307 348 LINE"
);
},
{
closed = 1;
nodes = (
"98 76 LINE SMOOTH",
"86 59 OFFCURVE",
"60 31 OFFCURVE",
"25 31 CURVE",
"25 -3 LINE",
"96 3 OFFCURVE",
"117 3 OFFCURVE",
"192 -3 CURVE",
"192 31 LINE",
"147 35 OFFCURVE",
"132 48 OFFCURVE",
"159 92 CURVE SMOOTH",
"299 311 LINE",
"270 344 LINE"
);
},
{
closed = 1;
nodes = (
"153 622 OFFCURVE",
"119 622 OFFCURVE",
"32 627 CURVE",
"32 593 LINE",
"71 592 OFFCURVE",
"75 583 OFFCURVE",
"83 570 CURVE SMOOTH",
"255 282 LINE",
"300 348 LINE",
"186 541 LINE SMOOTH",
"158 587 OFFCURVE",
"186 591 OFFCURVE",
"234 593 CURVE",
"234 627 LINE"
);
},
{
closed = 1;
nodes = (
"454 622 OFFCURVE",
"420 622 OFFCURVE",
"360 627 CURVE",
"360 593 LINE",
"404 591 OFFCURVE",
"433 578 OFFCURVE",
"403 534 CURVE SMOOTH",
"270 329 LINE",
"299 295 LINE",
"473 563 LINE SMOOTH",
"485 581 OFFCURVE",
"499 593 OFFCURVE",
"527 593 CURVE",
"527 627 LINE"
);
}
);
width = 567;
}
);
unicode = 0058;
},
{
glyphname = Y;
layers = (
{
anchors = (
{
name = top;
position = "{322, 622}";
}
);
background = {
paths = (
{
closed = 0;
nodes = (
"134 309 LINE",
"132 309 LINE",
"38 457 LINE SMOOTH"
);
}
);
};
layerId = "EA62F474-A0CE-4CDB-8144-A83B4E00D785";
paths = (
{
closed = 1;
nodes = (
"502 621 OFFCURVE",
"466 621 OFFCURVE",
"378 627 CURVE",
"378 583 LINE",
"455 581 OFFCURVE",
"451 553 OFFCURVE",
"433 522 CURVE SMOOTH",
"328 347 LINE",
"326 347 LINE",
"213 522 LINE SMOOTH",
"191 555 OFFCURVE",
"189 581 OFFCURVE",
"268 583 CURVE",
"268 627 LINE",
"147 618 OFFCURVE",
"126 618 OFFCURVE",
"6 627 CURVE",
"6 583 LINE",
"33 583 OFFCURVE",
"52 561 OFFCURVE",
"63 545 CURVE",
"244 259 LINE",
"244 132 LINE SMOOTH",
"244 66 OFFCURVE",
"236 43 OFFCURVE",
"156 40 CURVE",
"156 -3 LINE",
"286 4 OFFCURVE",
"319 4 OFFCURVE",
"449 -3 CURVE",
"449 40 LINE",
"370 43 OFFCURVE",
"362 66 OFFCURVE",
"362 132 CURVE",
"362 288 LINE",
"514 545 LINE SMOOTH",
"529 569 OFFCURVE",
"545 583 OFFCURVE",
"571 583 CURVE",
"571 627 LINE"
);
}
);
width = 573;
},
{
anchors = (
{
name = top;
position = "{306, 616}";
}
);
background = {
paths = (
{
closed = 1;
nodes = (
"396 520 OFFCURVE",
"373 520 OFFCURVE",
"310 524 CURVE",
"310 496 LINE",
"351 494 OFFCURVE",
"382 489 OFFCURVE",
"359 454 CURVE",
"253 271 LINE",
"250 271 LINE",
"142 452 LINE SMOOTH",
"119 491 OFFCURVE",
"152 494 OFFCURVE",
"192 496 CURVE",
"192 524 LINE",
"105 520 OFFCURVE",
"103 520 OFFCURVE",
"15 524 CURVE",
"15 496 LINE",
"43 495 OFFCURVE",
"50 489 OFFCURVE",
"57 477 CURVE SMOOTH",
"208 226.333 LINE",
"208 91 LINE SMOOTH",
"208 39 OFFCURVE",
"200 28 OFFCURVE",
"151 26 CURVE",
"151 -2 LINE",
"229 2 OFFCURVE",
"248 2 OFFCURVE",
"325 -2 CURVE",
"325 26 LINE",
"276 28 OFFCURVE",
"268 39 OFFCURVE",
"268 91 CURVE SMOOTH",
"268 224.323 LINE",
"417 477 LINE SMOOTH",
"424 489 OFFCURVE",
"428 495 OFFCURVE",
"456 496 CURVE",
"456 524 LINE"
);
}
);
};
layerId = "B1D0FA45-0BED-409D-9800-57F37CCD9690";
paths = (
{
closed = 1;
nodes = (
"474 622 OFFCURVE",
"446 622 OFFCURVE",
"371 627 CURVE",
"371 593 LINE",
"415 591 OFFCURVE",
"451 581 OFFCURVE",
"426 537 CURVE SMOOTH",
"303 324 LINE",
"299 324 LINE",
"170 541 LINE SMOOTH",
"143 587 OFFCURVE",
"182 591 OFFCURVE",
"230 593 CURVE",
"230 627 LINE",
"126 622 OFFCURVE",
"123 622 OFFCURVE",
"18 627 CURVE",
"18 593 LINE",
"52 592 OFFCURVE",
"60 585 OFFCURVE",
"68 570 CURVE SMOOTH",
"248 270 LINE",
"248 109 LINE SMOOTH",
"248 47 OFFCURVE",
"239 33 OFFCURVE",
"180 31 CURVE",
"180 -3 LINE",
"274 3 OFFCURVE",
"296 3 OFFCURVE",
"389 -3 CURVE",
"389 31 LINE",
"330 33 OFFCURVE",
"320 47 OFFCURVE",
"320 109 CURVE SMOOTH",
"320 269 LINE",
"495 566 LINE SMOOTH",
"503 581 OFFCURVE",
"512 592 OFFCURVE",
"546 593 CURVE",
"546 627 LINE"
);
}
);
width = 563;
}
);
leftKerningGroup = Y;
rightKerningGroup = Y;
unicode = 0059;
},
{
glyphname = Z;
layers = (
{
anchors = (
{
name = top;
position = "{272, 622}";
}
);
layerId = "EA62F474-A0CE-4CDB-8144-A83B4E00D785";
paths = (
{
closed = 1;
nodes = (
"43 452 LINE",
"90 452 LINE",
"108 525 OFFCURVE",
"132 577 OFFCURVE",
"240 577 CURVE SMOOTH",
"338 577 LINE",
"36 32 LINE",
"36 0 LINE",
"258 0 LINE SMOOTH",
"324 0 OFFCURVE",
"371 -1 OFFCURVE",
"457 -7 CURVE",
"497 200 LINE",
"454 200 LINE",
"431 115 OFFCURVE",
"387 48 OFFCURVE",
"270 48 CURVE SMOOTH",
"180 48 LINE",
"470 577 LINE",
"470 625 LINE",
"240 625 LINE SMOOTH",
"178 625 OFFCURVE",
"134 626 OFFCURVE",
"54 631 CURVE"
);
}
);
width = 515;
},
{
anchors = (
{
name = top;
position = "{260, 616}";
}
);
background = {
paths = (
{
closed = 1;
nodes = (
"308 522 OFFCURVE",
"262 522 OFFCURVE",
"221 522 CURVE SMOOTH",
"125 522 LINE SMOOTH",
"103 522 OFFCURVE",
"82 522 OFFCURVE",
"38 524 CURVE",
"38 496 LINE",
"87 494 OFFCURVE",
"95 483 OFFCURVE",
"95 431 CURVE SMOOTH",
"95 91 LINE SMOOTH",
"95 39 OFFCURVE",
"87 28 OFFCURVE",
"38 26 CURVE",
"38 -2 LINE",
"82 0 OFFCURVE",
"103 0 OFFCURVE",
"125 0 CURVE SMOOTH",
"220 0 LINE SMOOTH",
"268 0 OFFCURVE",
"306 0 OFFCURVE",
"367 -4 CURVE",
"396 142 LINE",
"367 142 LINE",
"350 79 OFFCURVE",
"330 35 OFFCURVE",
"221 35 CURVE SMOOTH",
"155 35 LINE",
"155 487 LINE",
"224 487 LINE SMOOTH",
"304 487 OFFCURVE",
"325 461 OFFCURVE",
"343 381 CURVE",
"371 381 LINE",
"361 526 LINE"
);
},
{
closed = 1;
nodes = (
"259 334 LINE",
"257 285 OFFCURVE",
"233 275 OFFCURVE",
"188 275 CURVE SMOOTH",
"124 275 LINE",
"124 240 LINE",
"188 240 LINE SMOOTH",
"233 240 OFFCURVE",
"257 230 OFFCURVE",
"259 181 CURVE",
"287 181 LINE",
"282 269 OFFCURVE",
"282 247 OFFCURVE",
"287 334 CURVE"
);
}
);
};
layerId = "B1D0FA45-0BED-409D-9800-57F37CCD9690";
paths = (
{
closed = 1;
nodes = (
"54 464 LINE",
"87 464 LINE",
"109 559 OFFCURVE",
"138 582 OFFCURVE",
"230 582 CURVE SMOOTH",
"368 582 LINE",
"48 33 LINE",
"48 0 LINE",
"266 0 LINE SMOOTH",
"323 0 OFFCURVE",
"368 0 OFFCURVE",
"442 -5 CURVE",
"476 170 LINE",
"442 170 LINE",
"421 95 OFFCURVE",
"397 45 OFFCURVE",
"267 42 CURVE SMOOTH",
"135 42 LINE",
"451 582 LINE",
"451 625 LINE",
"234 625 LINE SMOOTH",
"184 625 OFFCURVE",
"129 625 OFFCURVE",
"66 629 CURVE"
);
}
);
width = 512;
}
);
leftKerningGroup = Z;
rightKerningGroup = Z;
unicode = 005A;
},
{
glyphname = a;
layers = (
{
anchors = (
{
name = top;
position = "{228, 497}";
}
);
background = {
paths = (
{
closed = 1;
nodes = (
"317 25 LINE",
"267 27 OFFCURVE",
"259 38 OFFCURVE",
"259 87 CURVE",
"259 277 LINE SMOOTH",
"259 356 OFFCURVE",
"218 384 OFFCURVE",
"150 384 CURVE SMOOTH",
"113 384 OFFCURVE",
"81 375 OFFCURVE",
"49 361 CURVE",
"49 262 LINE",
"80 262 LINE",
"80 326 OFFCURVE",
"110 357 OFFCURVE",
"148 357 CURVE SMOOTH",
"189 357 OFFCURVE",
"204 333 OFFCURVE",
"204 281 CURVE SMOOTH",
"204 206 LINE",
"69 206 OFFCURVE",
"10 170 OFFCURVE",
"10 87 CURVE SMOOTH",
"10 20 OFFCURVE",
"47 -10 OFFCURVE",
"108 -10 CURVE SMOOTH",
"150 -10 OFFCURVE",
"202 35 OFFCURVE",
"218 98 CURVE",
"205 118 LINE",
"190 65 OFFCURVE",
"159 35 OFFCURVE",
"118 35 CURVE SMOOTH",
"86 35 OFFCURVE",
"67 54 OFFCURVE",
"67 94 CURVE SMOOTH",
"67 148 OFFCURVE",
"95 182 OFFCURVE",
"204 182 CURVE",
"204 81 LINE",
"204 81 OFFCURVE",
"210 84 OFFCURVE",
"210 84 CURVE",
"210 -1 LINE",
"246 2 OFFCURVE",
"281 3 OFFCURVE",
"317 0 CURVE"
);
}
);
};
layerId = "EA62F474-A0CE-4CDB-8144-A83B4E00D785";
rightMetricsKey = "=n";
paths = (
{
closed = 1;
nodes = (
"172 485 OFFCURVE",
"123 471 OFFCURVE",
"76 451 CURVE",
"76 305 LINE",
"134 305 LINE",
"134 394 OFFCURVE",
"155 443 OFFCURVE",
"206 443 CURVE SMOOTH",
"258 443 OFFCURVE",
"279 415 OFFCURVE",
"279 348 CURVE SMOOTH",
"279 262 LINE",
"121 262 OFFCURVE",
"30 215 OFFCURVE",
"30 109 CURVE SMOOTH",
"30 25 OFFCURVE",
"73 -15 OFFCURVE",
"155 -15 CURVE SMOOTH",
"213 -15 OFFCURVE",
"280 32 OFFCURVE",
"299 119 CURVE",
"279 144 LINE",
"264 91 OFFCURVE",
"231 60 OFFCURVE",
"190 60 CURVE SMOOTH",
"155 60 OFFCURVE",
"138 83 OFFCURVE",
"138 123 CURVE SMOOTH",
"138 177 OFFCURVE",
"167 218 OFFCURVE",
"278 218 CURVE",
"278 97 LINE",
"278 97 OFFCURVE",
"288 100 OFFCURVE",
"288 100 CURVE",
"288 -3 LINE",
"346 4 OFFCURVE",
"404 3 OFFCURVE",
"462 -3 CURVE",
"462 37 LINE",
"389 40 OFFCURVE",
"386 61 OFFCURVE",
"386 123 CURVE",
"386 339 LINE SMOOTH",
"386 452 OFFCURVE",
"318 485 OFFCURVE",
"226 485 CURVE SMOOTH"
);
}
);
width = 469;
},
{
anchors = (
{
name = top;
position = "{207, 478}";
}
);
background = {
paths = (
{
closed = 1;
nodes = (
"100 262 LINE",
"100 326 OFFCURVE",
"130 357 OFFCURVE",
"168 357 CURVE SMOOTH",
"209 357 OFFCURVE",
"224 333 OFFCURVE",
"224 281 CURVE SMOOTH",
"224 206 LINE",
"89 206 OFFCURVE",
"30 170 OFFCURVE",
"30 87 CURVE SMOOTH",
"30 20 OFFCURVE",
"67 -10 OFFCURVE",
"128 -10 CURVE SMOOTH",
"170 -10 OFFCURVE",
"218 24 OFFCURVE",
"238 94 CURVE",
"225 120 LINE",
"211 64 OFFCURVE",
"179 35 OFFCURVE",
"138 35 CURVE SMOOTH",
"106 35 OFFCURVE",
"87 54 OFFCURVE",
"87 94 CURVE SMOOTH",
"87 148 OFFCURVE",
"115 182 OFFCURVE",
"224 182 CURVE",
"224 81 LINE",
"224 81 OFFCURVE",
"230 84 OFFCURVE",
"230 84 CURVE",
"230 50 LINE SMOOTH",
"230 10 OFFCURVE",
"245 -10 OFFCURVE",
"279 -10 CURVE SMOOTH",
"298 -10 OFFCURVE",
"317 -1 OFFCURVE",
"340 15 CURVE",
"334 37 LINE",
"321 33 OFFCURVE",
"311 31 OFFCURVE",
"303 31 CURVE SMOOTH",
"284 31 OFFCURVE",
"279 44 OFFCURVE",
"279 75 CURVE SMOOTH",
"279 277 LINE SMOOTH",
"279 356 OFFCURVE",
"238 384 OFFCURVE",
"170 384 CURVE SMOOTH",
"133 384 OFFCURVE",
"101 375 OFFCURVE",
"69 361 CURVE",
"69 262 LINE"
);
},
{
closed = 1;
nodes = (
"133 384 OFFCURVE",
"101 375 OFFCURVE",
"69 361 CURVE",
"69 262 LINE",
"100 262 LINE",
"100 326 OFFCURVE",
"130 357 OFFCURVE",
"168 357 CURVE SMOOTH",
"209 357 OFFCURVE",
"224 333 OFFCURVE",
"224 281 CURVE SMOOTH",
"224 206 LINE",
"89 206 OFFCURVE",
"30 170 OFFCURVE",
"30 87 CURVE SMOOTH",
"30 20 OFFCURVE",
"67 -10 OFFCURVE",
"128 -10 CURVE SMOOTH",
"170 -10 OFFCURVE",
"222 35 OFFCURVE",
"238 98 CURVE",
"225 118 LINE",
"210 65 OFFCURVE",
"179 35 OFFCURVE",
"138 35 CURVE SMOOTH",
"106 35 OFFCURVE",
"87 54 OFFCURVE",
"87 94 CURVE SMOOTH",
"87 148 OFFCURVE",
"115 182 OFFCURVE",
"224 182 CURVE",
"224 81 LINE",
"224 81 OFFCURVE",
"230 83 OFFCURVE",
"230 83 CURVE",
"230 -2 LINE",
"266 1 OFFCURVE",
"297 2 OFFCURVE",
"337 -1 CURVE",
"337 24 LINE",
"287 26 OFFCURVE",
"279 37 OFFCURVE",
"279 86 CURVE",
"279 277 LINE SMOOTH",
"279 356 OFFCURVE",
"238 384 OFFCURVE",
"170 384 CURVE SMOOTH"
);
}
);
};
layerId = "B1D0FA45-0BED-409D-9800-57F37CCD9690";
rightMetricsKey = "=n";
paths = (
{
closed = 1;
nodes = (
"159 459 OFFCURVE",
"121 449 OFFCURVE",
"83 431 CURVE",
"83 314 LINE",
"120 314 LINE",
"120 390 OFFCURVE",
"155 427 OFFCURVE",
"201 427 CURVE SMOOTH",
"250 427 OFFCURVE",
"268 398 OFFCURVE",
"268 336 CURVE SMOOTH",
"268 250 LINE",
"107 250 OFFCURVE",
"36 203 OFFCURVE",
"36 104 CURVE SMOOTH",
"36 24 OFFCURVE",
"80 -12 OFFCURVE",
"153 -12 CURVE SMOOTH",
"203 -12 OFFCURVE",
"266 36 OFFCURVE",
"284 111 CURVE",
"270 141 LINE",
"251 78 OFFCURVE",
"214 42 OFFCURVE",
"165 42 CURVE SMOOTH",
"127 42 OFFCURVE",
"104 64 OFFCURVE",
"104 112 CURVE SMOOTH",
"104 177 OFFCURVE",
"138 218 OFFCURVE",
"268 218 CURVE",
"268 97 LINE",
"268 97 OFFCURVE",
"275 99 OFFCURVE",
"275 99 CURVE",
"275 -3 LINE",
"318 1 OFFCURVE",
"355 3 OFFCURVE",
"403 -1 CURVE",
"403 29 LINE",
"343 31 OFFCURVE",
"334 44 OFFCURVE",
"334 103 CURVE",
"334 331 LINE SMOOTH",
"334 426 OFFCURVE",
"284 459 OFFCURVE",
"203 459 CURVE SMOOTH"
);
}
);
width = 427;
}
);
leftKerningGroup = a;
rightKerningGroup = a;
rightMetricsKey = n;
unicode = 0061;
},
{
glyphname = ae;
layers = (
{
anchors = (
{
name = top;
position = "{207, 478}";
}
);
background = {
paths = (
{
closed = 1;
nodes = (
"133 384 OFFCURVE",
"101 375 OFFCURVE",
"69 361 CURVE",
"69 262 LINE",
"100 262 LINE",
"100 326 OFFCURVE",
"130 357 OFFCURVE",
"168 357 CURVE SMOOTH",
"209 357 OFFCURVE",
"224 333 OFFCURVE",
"224 281 CURVE SMOOTH",
"224 209 LINE",
"89 209 OFFCURVE",
"30 170 OFFCURVE",
"30 87 CURVE SMOOTH",
"30 20 OFFCURVE",
"67 -10 OFFCURVE",
"128 -10 CURVE SMOOTH",
"170 -10 OFFCURVE",
"222 35 OFFCURVE",
"238 98 CURVE",
"225 118 LINE",
"210 65 OFFCURVE",
"179 35 OFFCURVE",
"138 35 CURVE SMOOTH",
"106 35 OFFCURVE",
"87 54 OFFCURVE",
"87 94 CURVE SMOOTH",
"87 148 OFFCURVE",
"115 179 OFFCURVE",
"224 179 CURVE",
"224 81 LINE",
"224 81 OFFCURVE",
"230 83 OFFCURVE",
"230 83 CURVE",
"230 -2 LINE",
"266 1 OFFCURVE",
"297 2 OFFCURVE",
"337 -1 CURVE",
"337 24 LINE",
"287 26 OFFCURVE",
"279 37 OFFCURVE",
"279 86 CURVE",
"279 277 LINE SMOOTH",
"279 356 OFFCURVE",
"238 384 OFFCURVE",
"170 384 CURVE SMOOTH"
);
}
);
};
layerId = "B1D0FA45-0BED-409D-9800-57F37CCD9690";
paths = (
{
closed = 1;
nodes = (
"363 461 OFFCURVE",
"267 375 OFFCURVE",
"267 202 CURVE SMOOTH",
"267 64 OFFCURVE",
"328 -12 OFFCURVE",
"425 -12 CURVE SMOOTH",
"493 -12 OFFCURVE",
"550 23 OFFCURVE",
"589 93 CURVE",
"589 93 OFFCURVE",
"570 104 OFFCURVE",
"570 104 CURVE",
"527 63 OFFCURVE",
"486 43 OFFCURVE",
"440 43 CURVE SMOOTH",
"367 43 OFFCURVE",
"336 116 OFFCURVE",
"336 220 CURVE SMOOTH",
"336 359 OFFCURVE",
"372 428 OFFCURVE",
"443 428 CURVE SMOOTH",
"512 428 OFFCURVE",
"517 334 OFFCURVE",
"518 252 CURVE",
"323 252 LINE",
"316 216 LINE",
"587 216 LINE",
"587 318 OFFCURVE",
"597 461 OFFCURVE",
"454 461 CURVE SMOOTH"
);
},
{
closed = 1;
nodes = (
"159 459 OFFCURVE",
"121 449 OFFCURVE",
"83 431 CURVE",
"83 314 LINE",
"120 314 LINE",
"120 390 OFFCURVE",
"155 427 OFFCURVE",
"201 427 CURVE SMOOTH",
"250 427 OFFCURVE",
"268 398 OFFCURVE",
"268 336 CURVE SMOOTH",
"268 250 LINE",
"107 250 OFFCURVE",
"36 203 OFFCURVE",
"36 104 CURVE SMOOTH",
"36 24 OFFCURVE",
"80 -12 OFFCURVE",
"153 -12 CURVE SMOOTH",
"203 -12 OFFCURVE",
"266 42 OFFCURVE",
"284 117 CURVE",
"270 141 LINE",
"251 78 OFFCURVE",
"214 42 OFFCURVE",
"165 42 CURVE SMOOTH",
"127 42 OFFCURVE",
"104 64 OFFCURVE",
"104 112 CURVE SMOOTH",
"104 177 OFFCURVE",
"138 214 OFFCURVE",
"268 214 CURVE",
"268 112 LINE",
"334 155 LINE",
"334 331 LINE SMOOTH",
"334 425 OFFCURVE",
"279 459 OFFCURVE",
"203 459 CURVE SMOOTH"
);
}
);
width = 625;
},
{
anchors = (
{
name = top;
position = "{483, 497}";
}
);
background = {
paths = (
{
closed = 1;
nodes = (
"323 108 LINE",
"323 284 LINE SMOOTH",
"323 378 OFFCURVE",
"266 405 OFFCURVE",
"189 405 CURVE SMOOTH",
"144 405 OFFCURVE",
"103 394 OFFCURVE",
"64 377 CURVE",
"64 255 LINE",
"112 255 LINE",
"112 329 OFFCURVE",
"130 370 OFFCURVE",
"172 370 CURVE SMOOTH",
"215 370 OFFCURVE",
"233 347 OFFCURVE",
"233 291 CURVE SMOOTH",
"233 218 LINE",
"101 218 OFFCURVE",
"25 180 OFFCURVE",
"25 91 CURVE SMOOTH",
"25 21 OFFCURVE",
"61 -12 OFFCURVE",
"130 -12 CURVE SMOOTH",
"178 -12 OFFCURVE",
"234 27 OFFCURVE",
"250 99 CURVE",
"233 121 LINE",
"221 76 OFFCURVE",
"193 50 OFFCURVE",
"159 50 CURVE SMOOTH",
"130 50 OFFCURVE",
"115 69 OFFCURVE",
"115 103 CURVE SMOOTH",
"115 148 OFFCURVE",
"140 182 OFFCURVE",
"232 182 CURVE",
"232 108 LINE"
);
},
{
closed = 1;
nodes = (
"316 405 OFFCURVE",
"232 341 OFFCURVE",
"232 175 CURVE SMOOTH",
"232 53 OFFCURVE",
"290 -13 OFFCURVE",
"383 -13 CURVE SMOOTH",
"447 -13 OFFCURVE",
"505 16 OFFCURVE",
"542 80 CURVE",
"542 80 OFFCURVE",
"517 97 OFFCURVE",
"517 97 CURVE",
"483 62 OFFCURVE",
"445 47 OFFCURVE",
"409 47 CURVE SMOOTH",
"355 47 OFFCURVE",
"328 96 OFFCURVE",
"328 191 CURVE SMOOTH",
"328 310 OFFCURVE",
"351 370 OFFCURVE",
"395 370 CURVE SMOOTH",
"430 370 OFFCURVE",
"438 312 OFFCURVE",
"440 248 CURVE",
"286 248 LINE",
"279 210 LINE",
"537 210 LINE",
"537 300 OFFCURVE",
"536 405 OFFCURVE",
"411 405 CURVE SMOOTH"
);
}
);
};
layerId = "EA62F474-A0CE-4CDB-8144-A83B4E00D785";
paths = (
{
closed = 1;
nodes = (
"390 485 OFFCURVE",
"278 397 OFFCURVE",
"278 210 CURVE SMOOTH",
"278 63 OFFCURVE",
"347 -16 OFFCURVE",
"458 -16 CURVE SMOOTH",
"535 -16 OFFCURVE",
"604 19 OFFCURVE",
"649 96 CURVE",
"649 96 OFFCURVE",
"618 116 OFFCURVE",
"618 116 CURVE",
"578 75 OFFCURVE",
"533 56 OFFCURVE",
"489 56 CURVE SMOOTH",
"425 56 OFFCURVE",
"392 115 OFFCURVE",
"392 228 CURVE SMOOTH",
"392 371 OFFCURVE",
"420 443 OFFCURVE",
"473 443 CURVE SMOOTH",
"517 443 OFFCURVE",
"526 363 OFFCURVE",
"526 272 CURVE",
"342 272 LINE",
"334 227 LINE",
"642 227 LINE",
"642 366 OFFCURVE",
"641 485 OFFCURVE",
"491 485 CURVE SMOOTH"
);
},
{
closed = 1;
nodes = (
"172 485 OFFCURVE",
"123 471 OFFCURVE",
"76 451 CURVE",
"76 305 LINE",
"134 305 LINE",
"134 394 OFFCURVE",
"155 443 OFFCURVE",
"206 443 CURVE SMOOTH",
"258 443 OFFCURVE",
"279 415 OFFCURVE",
"279 348 CURVE SMOOTH",
"279 271 LINE",
"121 271 OFFCURVE",
"30 222 OFFCURVE",
"30 115 CURVE SMOOTH",
"30 31 OFFCURVE",
"73 -15 OFFCURVE",
"155 -15 CURVE SMOOTH",
"213 -15 OFFCURVE",
"280 32 OFFCURVE",
"299 119 CURVE",
"279 144 LINE",
"264 91 OFFCURVE",
"231 60 OFFCURVE",
"190 60 CURVE SMOOTH",
"155 60 OFFCURVE",
"138 88 OFFCURVE",
"138 129 CURVE SMOOTH",
"138 183 OFFCURVE",
"167 228 OFFCURVE",
"278 228 CURVE",
"278 129 LINE",
"386 129 LINE",
"386 339 LINE SMOOTH",
"386 438 OFFCURVE",
"311 485 OFFCURVE",
"226 485 CURVE SMOOTH"
);
}
);
width = 667;
}
);
leftKerningGroup = a;
leftMetricsKey = a;
rightKerningGroup = e;
rightMetricsKey = e;
unicode = 00E6;
},
{
glyphname = b;
layers = (
{
background = {
paths = (
{
closed = 1;
nodes = (
"-5 527 LINE",
"-5 495 LINE",
"56 493 OFFCURVE",
"58 475 OFFCURVE",
"58 429 CURVE SMOOTH",
"58 10 LINE",
"106 -4 OFFCURVE",
"159 -12 OFFCURVE",
"202 -12 CURVE SMOOTH",
"319 -12 OFFCURVE",
"393 56 OFFCURVE",
"393 219 CURVE SMOOTH",
"393 336 OFFCURVE",
"341 405 OFFCURVE",
"246 405 CURVE SMOOTH",
"192 405 OFFCURVE",
"145 366 OFFCURVE",
"123 294 CURVE",
"148 265 LINE",
"163 319 OFFCURVE",
"189 351 OFFCURVE",
"224 351 CURVE SMOOTH",
"272 351 OFFCURVE",
"296 296 OFFCURVE",
"296 198 CURVE SMOOTH",
"296 93 OFFCURVE",
"275 24 OFFCURVE",
"216 24 CURVE SMOOTH",
"182 24 OFFCURVE",
"148 40 OFFCURVE",
"148 81 CURVE SMOOTH",
"148 544 LINE",
"129 552 LINE"
);
}
);
};
layerId = "EA62F474-A0CE-4CDB-8144-A83B4E00D785";
paths = (
{
closed = 1;
nodes = (
"12 630 LINE",
"12 592 LINE",
"85 590 OFFCURVE",
"87 569 OFFCURVE",
"87 513 CURVE SMOOTH",
"87 12 LINE",
"144 -5 OFFCURVE",
"208 -15 OFFCURVE",
"259 -15 CURVE SMOOTH",
"399 -15 OFFCURVE",
"488 67 OFFCURVE",
"488 262 CURVE SMOOTH",
"488 396 OFFCURVE",
"433 485 OFFCURVE",
"319 485 CURVE SMOOTH",
"248 485 OFFCURVE",
"191 438 OFFCURVE",
"165 351 CURVE",
"195 317 LINE",
"213 382 OFFCURVE",
"244 420 OFFCURVE",
"286 420 CURVE SMOOTH",
"343 420 OFFCURVE",
"372 354 OFFCURVE",
"372 236 CURVE SMOOTH",
"372 111 OFFCURVE",
"347 29 OFFCURVE",
"276 29 CURVE SMOOTH",
"236 29 OFFCURVE",
"195 48 OFFCURVE",
"195 97 CURVE SMOOTH",
"195 650 LINE",
"172 661 LINE"
);
}
);
width = 513;
},
{
background = {
paths = (
{
closed = 1;
nodes = (
"20 532 LINE",
"20 506 LINE",
"69 506 OFFCURVE",
"78 497 OFFCURVE",
"78 457 CURVE SMOOTH",
"78 11 LINE",
"116 -3 OFFCURVE",
"165 -10 OFFCURVE",
"205 -10 CURVE SMOOTH",
"298 -10 OFFCURVE",
"359 73 OFFCURVE",
"359 207 CURVE SMOOTH",
"359 322 OFFCURVE",
"312 384 OFFCURVE",
"232 384 CURVE SMOOTH",
"185 384 OFFCURVE",
"143 347 OFFCURVE",
"124 286 CURVE",
"131 254 LINE",
"148 309 OFFCURVE",
"181 338 OFFCURVE",
"220 338 CURVE SMOOTH",
"275 338 OFFCURVE",
"300 285 OFFCURVE",
"300 190 CURVE SMOOTH",
"300 88 OFFCURVE",
"278 17 OFFCURVE",
"210 17 CURVE SMOOTH",
"173 17 OFFCURVE",
"133 35 OFFCURVE",
"133 71 CURVE SMOOTH",
"133 545 LINE",
"121 550 LINE"
);
}
);
};
layerId = "B1D0FA45-0BED-409D-9800-57F37CCD9690";
rightMetricsKey = "=o";
paths = (
{
closed = 1;
nodes = (
"24 637 LINE",
"24 605 LINE",
"83 605 OFFCURVE",
"93 594 OFFCURVE",
"93 546 CURVE SMOOTH",
"93 13 LINE",
"139 -4 OFFCURVE",
"198 -12 OFFCURVE",
"246 -12 CURVE SMOOTH",
"356 -12 OFFCURVE",
"430 87 OFFCURVE",
"430 247 CURVE SMOOTH",
"430 386 OFFCURVE",
"368 459 OFFCURVE",
"284 459 CURVE SMOOTH",
"230 459 OFFCURVE",
"175 422 OFFCURVE",
"148 342 CURVE",
"156 304 LINE",
"177 370 OFFCURVE",
"216 404 OFFCURVE",
"263 404 CURVE SMOOTH",
"329 404 OFFCURVE",
"359 341 OFFCURVE",
"359 227 CURVE SMOOTH",
"359 105 OFFCURVE",
"332 20 OFFCURVE",
"251 20 CURVE SMOOTH",
"207 20 OFFCURVE",
"159 42 OFFCURVE",
"159 85 CURVE SMOOTH",
"159 652 LINE",
"144 658 LINE"
);
}
);
width = 470;
}
);
rightKerningGroup = o;
rightMetricsKey = o;
unicode = 0062;
},
{
glyphname = c;
layers = (
{
anchors = (
{
name = bottom;
position = "{199, -30}";
}
);
background = {
paths = (
{
closed = 1;
nodes = (
"103 310 OFFCURVE",
"126 370 OFFCURVE",
"170 370 CURVE SMOOTH",
"205 370 OFFCURVE",
"213 312 OFFCURVE",
"215 248 CURVE",
"61 248 LINE",
"54 210 LINE",
"312 210 LINE",
"312 300 OFFCURVE",
"311 405 OFFCURVE",
"186 405 CURVE SMOOTH",
"91 405 OFFCURVE",
"7 341 OFFCURVE",
"7 175 CURVE SMOOTH",
"7 53 OFFCURVE",
"65 -13 OFFCURVE",
"158 -13 CURVE SMOOTH",
"222 -13 OFFCURVE",
"280 16 OFFCURVE",
"317 80 CURVE",
"317 80 OFFCURVE",
"292 97 OFFCURVE",
"292 97 CURVE",
"258 62 OFFCURVE",
"220 47 OFFCURVE",
"184 47 CURVE SMOOTH",
"130 47 OFFCURVE",
"103 96 OFFCURVE",
"103 191 CURVE SMOOTH"
);
}
);
};
layerId = "EA62F474-A0CE-4CDB-8144-A83B4E00D785";
paths = (
{
closed = 1;
nodes = (
"110 483 OFFCURVE",
"27 379 OFFCURVE",
"27 211 CURVE SMOOTH",
"27 67 OFFCURVE",
"90 -12 OFFCURVE",
"212 -12 CURVE SMOOTH",
"260 -12 OFFCURVE",
"343 9 OFFCURVE",
"386 98 CURVE",
"386 98 OFFCURVE",
"354 117 OFFCURVE",
"354 117 CURVE",
"322 73 OFFCURVE",
"282 57 OFFCURVE",
"240 57 CURVE SMOOTH",
"171 57 OFFCURVE",
"141 119 OFFCURVE",
"141 231 CURVE SMOOTH",
"141 362 OFFCURVE",
"167 442 OFFCURVE",
"244 442 CURVE SMOOTH",
"291 442 OFFCURVE",
"324 397 OFFCURVE",
"324 324 CURVE",
"372 324 LINE",
"372 467 LINE",
"330 478 OFFCURVE",
"293 483 OFFCURVE",
"259 483 CURVE SMOOTH"
);
}
);
width = 410;
},
{
anchors = (
{
name = bottom;
position = "{183, -30}";
}
);
background = {
paths = (
{
closed = 1;
nodes = (
"250 46 OFFCURVE",
"215 36 OFFCURVE",
"179 36 CURVE SMOOTH",
"118 36 OFFCURVE",
"91 87 OFFCURVE",
"91 183 CURVE SMOOTH",
"91 291 OFFCURVE",
"117 357 OFFCURVE",
"184 357 CURVE SMOOTH",
"223 357 OFFCURVE",
"249 321 OFFCURVE",
"249 260 CURVE",
"282 260 LINE",
"282 372 LINE",
"252 380 OFFCURVE",
"225 384 OFFCURVE",
"201 384 CURVE SMOOTH",
"91 384 OFFCURVE",
"34 300 OFFCURVE",
"34 161 CURVE SMOOTH",
"34 54 OFFCURVE",
"79 -10 OFFCURVE",
"167 -10 CURVE SMOOTH",
"202 -10 OFFCURVE",
"259 7 OFFCURVE",
"292 78 CURVE",
"292 78 OFFCURVE",
"278 87 OFFCURVE",
"278 87 CURVE"
);
}
);
};
layerId = "B1D0FA45-0BED-409D-9800-57F37CCD9690";
leftMetricsKey = "=o";
paths = (
{
closed = 1;
nodes = (
"112 459 OFFCURVE",
"40 360 OFFCURVE",
"40 200 CURVE SMOOTH",
"40 63 OFFCURVE",
"95 -12 OFFCURVE",
"200 -12 CURVE SMOOTH",
"242 -12 OFFCURVE",
"318 8 OFFCURVE",
"355 93 CURVE",
"355 93 OFFCURVE",
"339 104 OFFCURVE",
"339 104 CURVE",
"304 59 OFFCURVE",
"258 43 OFFCURVE",
"214 43 CURVE SMOOTH",
"141 43 OFFCURVE",
"110 104 OFFCURVE",
"110 219 CURVE SMOOTH",
"110 348 OFFCURVE",
"140 427 OFFCURVE",
"220 427 CURVE SMOOTH",
"267 427 OFFCURVE",
"298 384 OFFCURVE",
"298 311 CURVE",
"338 311 LINE",
"338 445 LINE",
"302 454 OFFCURVE",
"270 459 OFFCURVE",
"240 459 CURVE SMOOTH"
);
}
);
width = 382;
}
);
leftKerningGroup = o;
leftMetricsKey = o;
rightKerningGroup = c;
unicode = 0063;
},
{
glyphname = d;
layers = (
{
background = {
paths = (
{
closed = 1;
nodes = (
"189 526 LINE",
"189 494 LINE",
"250 492 OFFCURVE",
"252 474 OFFCURVE",
"252 428 CURVE SMOOTH",
"252 98 LINE",
"256 84 LINE",
"256 -4 LINE",
"275 -12 LINE",
"405 12 LINE",
"405 45 LINE",
"344 47 OFFCURVE",
"342 65 OFFCURVE",
"342 111 CURVE SMOOTH",
"342 544 LINE",
"323 552 LINE"
);
},
{
closed = 1;
nodes = (
"86 405 OFFCURVE",
"7 321 OFFCURVE",
"7 174 CURVE SMOOTH",
"7 60 OFFCURVE",
"54 -12 OFFCURVE",
"154 -12 CURVE SMOOTH",
"208 -12 OFFCURVE",
"255 27 OFFCURVE",
"277 99 CURVE",
"252 112 LINE",
"230 65 OFFCURVE",
"208 43 OFFCURVE",
"176 43 CURVE SMOOTH",
"132 43 OFFCURVE",
"104 94 OFFCURVE",
"104 195 CURVE SMOOTH",
"104 300 OFFCURVE",
"125 370 OFFCURVE",
"184 370 CURVE SMOOTH",
"218 370 OFFCURVE",
"252 354 OFFCURVE",
"252 313 CURVE",
"338 383 LINE",
"292 397 OFFCURVE",
"240 405 OFFCURVE",
"198 405 CURVE SMOOTH"
);
}
);
};
layerId = "EA62F474-A0CE-4CDB-8144-A83B4E00D785";
rightMetricsKey = "=u";
paths = (
{
closed = 1;
nodes = (
"244 629 LINE",
"244 591 LINE",
"317 589 OFFCURVE",
"319 567 OFFCURVE",
"319 512 CURVE SMOOTH",
"319 117 LINE",
"324 100 LINE",
"324 -5 LINE",
"347 -15 LINE",
"502 15 LINE",
"502 54 LINE",
"430 56 OFFCURVE",
"427 78 OFFCURVE",
"427 132 CURVE SMOOTH",
"427 650 LINE",
"404 661 LINE"
);
},
{
closed = 1;
nodes = (
"121 485 OFFCURVE",
"27 384 OFFCURVE",
"27 208 CURVE SMOOTH",
"27 72 OFFCURVE",
"80 -15 OFFCURVE",
"202 -15 CURVE SMOOTH",
"267 -15 OFFCURVE",
"323 32 OFFCURVE",
"350 119 CURVE",
"319 134 LINE",
"293 78 OFFCURVE",
"267 52 OFFCURVE",
"228 52 CURVE SMOOTH",
"176 52 OFFCURVE",
"143 112 OFFCURVE",
"143 234 CURVE SMOOTH",
"143 359 OFFCURVE",
"167 443 OFFCURVE",
"238 443 CURVE SMOOTH",
"279 443 OFFCURVE",
"319 423 OFFCURVE",
"319 374 CURVE",
"422 458 LINE",
"367 475 OFFCURVE",
"305 485 OFFCURVE",
"255 485 CURVE SMOOTH"
);
}
);
width = 526;
},
{
background = {
paths = (
{
closed = 1;
nodes = (
"372 -158 LINE",
"372 -132 LINE",
"323 -132 OFFCURVE",
"314 -123 OFFCURVE",
"314 -83 CURVE SMOOTH",
"314 363 LINE",
"276 377 OFFCURVE",
"227 384 OFFCURVE",
"187 384 CURVE SMOOTH",
"94 384 OFFCURVE",
"33 301 OFFCURVE",
"33 167 CURVE SMOOTH",
"33 51 OFFCURVE",
"84 -10 OFFCURVE",
"154 -10 CURVE SMOOTH",
"200 -10 OFFCURVE",
"246 21 OFFCURVE",
"268 88 CURVE",
"261 120 LINE",
"244 65 OFFCURVE",
"211 36 OFFCURVE",
"172 36 CURVE SMOOTH",
"117 36 OFFCURVE",
"92 89 OFFCURVE",
"92 184 CURVE SMOOTH",
"92 286 OFFCURVE",
"114 357 OFFCURVE",
"182 357 CURVE SMOOTH",
"219 357 OFFCURVE",
"259 339 OFFCURVE",
"259 303 CURVE SMOOTH",
"259 -171 LINE",
"271 -176 LINE"
);
}
);
};
layerId = "B1D0FA45-0BED-409D-9800-57F37CCD9690";
rightMetricsKey = "=u";
paths = (
{
closed = 1;
nodes = (
"242 637 LINE",
"242 606 LINE",
"300 606 OFFCURVE",
"311 595 OFFCURVE",
"311 547 CURVE SMOOTH",
"311 116 LINE",
"316 111 LINE",
"316 -6 LINE",
"330 -12 LINE",
"446 8 LINE",
"446 40 LINE",
"387 40 OFFCURVE",
"377 51 OFFCURVE",
"377 98 CURVE SMOOTH",
"377 652 LINE",
"362 658 LINE"
);
},
{
closed = 1;
nodes = (
"131 459 OFFCURVE",
"40 382 OFFCURVE",
"40 200 CURVE",
"40 61 OFFCURVE",
"100 -12 OFFCURVE",
"184 -12 CURVE SMOOTH",
"239 -12 OFFCURVE",
"294 25 OFFCURVE",
"320 105 CURVE",
"312 144 LINE",
"292 78 OFFCURVE",
"252 43 OFFCURVE",
"206 43 CURVE SMOOTH",
"140 43 OFFCURVE",
"110 107 OFFCURVE",
"110 220 CURVE",
"110 316 OFFCURVE",
"122 427 OFFCURVE",
"224 427 CURVE SMOOTH",
"280 427 OFFCURVE",
"311 395 OFFCURVE",
"311 331 CURVE",
"327 437 LINE",
"302 450 OFFCURVE",
"267 459 OFFCURVE",
"230 459 CURVE SMOOTH"
);
}
);
width = 465;
}
);
leftKerningGroup = o;
leftMetricsKey = o;
rightMetricsKey = u;
unicode = 0064;
},
{
glyphname = eth;
layers = (
{
components = (
{
name = partialdiff;
transform = "{1, 0, 0, 1, -6, 0}";
}
);
guideLines = (
{
position = "{186, 17}";
}
);
layerId = "B1D0FA45-0BED-409D-9800-57F37CCD9690";
leftMetricsKey = "=o-6";
paths = (
{
closed = 1;
nodes = (
"153 499 LINE",
"176 469 LINE",
"352 609 LINE",
"328 638 LINE"
);
}
);
width = 426;
},
{
background = {
paths = (
{
closed = 1;
nodes = (
"133 417 LINE",
"152 392 LINE",
"299 509 LINE",
"279 534 LINE"
);
}
);
};
components = (
{
name = partialdiff;
}
);
layerId = "EA62F474-A0CE-4CDB-8144-A83B4E00D785";
paths = (
{
closed = 1;
nodes = (
"156 502 LINE",
"188 466 LINE",
"363 605 LINE",
"331 642 LINE"
);
}
);
width = 455;
}
);
leftKerningGroup = o;
leftMetricsKey = o;
rightMetricsKey = zero;
unicode = 00F0;
},
{
glyphname = e;
layers = (
{
anchors = (
{
name = top;
position = "{232, 497}";
}
);
background = {
paths = (
{
closed = 1;
nodes = (
"109 384 OFFCURVE",
"33 316 OFFCURVE",
"33 168 CURVE SMOOTH",
"33 53 OFFCURVE",
"85 -10 OFFCURVE",
"166 -10 CURVE SMOOTH",
"223 -10 OFFCURVE",
"271 18 OFFCURVE",
"303 77 CURVE",
"303 77 OFFCURVE",
"288 86 OFFCURVE",
"288 86 CURVE",
"252 51 OFFCURVE",
"217 36 OFFCURVE",
"179 36 CURVE SMOOTH",
"125 36 OFFCURVE",
"92 85 OFFCURVE",
"92 183 CURVE SMOOTH",
"92 299 OFFCURVE",
"122 357 OFFCURVE",
"181 357 CURVE SMOOTH",
"229 357 OFFCURVE",
"243 298 OFFCURVE",
"244 230 CURVE",
"81 230 LINE",
"75 200 LINE",
"302 200 LINE",
"302 285 OFFCURVE",
"300 384 OFFCURVE",
"191 384 CURVE SMOOTH"
);
}
);
};
layerId = "EA62F474-A0CE-4CDB-8144-A83B4E00D785";
leftMetricsKey = "=o";
paths = (
{
closed = 1;
nodes = (
"124 485 OFFCURVE",
"27 408 OFFCURVE",
"27 210 CURVE SMOOTH",
"27 63 OFFCURVE",
"97 -16 OFFCURVE",
"211 -16 CURVE SMOOTH",
"288 -16 OFFCURVE",
"359 19 OFFCURVE",
"404 96 CURVE",
"404 96 OFFCURVE",
"374 116 OFFCURVE",
"374 116 CURVE",
"332 75 OFFCURVE",
"286 56 OFFCURVE",
"242 56 CURVE SMOOTH",
"176 56 OFFCURVE",
"140 115 OFFCURVE",
"140 228 CURVE SMOOTH",
"140 371 OFFCURVE",
"167 443 OFFCURVE",
"224 443 CURVE SMOOTH",
"268 443 OFFCURVE",
"280 374 OFFCURVE",
"283 296 CURVE",
"92 296 LINE",
"84 251 LINE",
"398 251 LINE",
"398 351 OFFCURVE",
"372 485 OFFCURVE",
"239 485 CURVE SMOOTH"
);
}
);
width = 422;
},
{
anchors = (
{
name = top;
position = "{228, 478}";
}
);
background = {
paths = (
{
closed = 1;
nodes = (
"109 384 OFFCURVE",
"33 316 OFFCURVE",
"33 168 CURVE SMOOTH",
"33 53 OFFCURVE",
"85 -10 OFFCURVE",
"166 -10 CURVE SMOOTH",
"223 -10 OFFCURVE",
"271 18 OFFCURVE",
"303 77 CURVE",
"303 77 OFFCURVE",
"288 86 OFFCURVE",
"288 86 CURVE",
"252 51 OFFCURVE",
"217 36 OFFCURVE",
"179 36 CURVE SMOOTH",
"118 36 OFFCURVE",
"92 85 OFFCURVE",
"92 183 CURVE SMOOTH",
"92 299 OFFCURVE",
"122 357 OFFCURVE",
"181 357 CURVE SMOOTH",
"229 357 OFFCURVE",
"243 296 OFFCURVE",
"244 228 CURVE",
"81 228 LINE",
"75 200 LINE",
"302 200 LINE",
"302 285 OFFCURVE",
"300 384 OFFCURVE",
"191 384 CURVE SMOOTH"
);
}
);
};
layerId = "B1D0FA45-0BED-409D-9800-57F37CCD9690";
leftMetricsKey = "=o";
paths = (
{
closed = 1;
nodes = (
"131 459 OFFCURVE",
"40 378 OFFCURVE",
"40 201 CURVE SMOOTH",
"40 63 OFFCURVE",
"102 -12 OFFCURVE",
"199 -12 CURVE SMOOTH",
"267 -12 OFFCURVE",
"324 21 OFFCURVE",
"362 92 CURVE",
"362 92 OFFCURVE",
"344 103 OFFCURVE",
"344 103 CURVE",
"302 61 OFFCURVE",
"259 43 OFFCURVE",
"214 43 CURVE SMOOTH",
"150 43 OFFCURVE",
"110 102 OFFCURVE",
"110 219 CURVE SMOOTH",
"110 358 OFFCURVE",
"146 427 OFFCURVE",
"216 427 CURVE SMOOTH",
"274 427 OFFCURVE",
"291 356 OFFCURVE",
"292 275 CURVE",
"97 275 LINE",
"90 239 LINE",
"362 239 LINE",
"362 341 OFFCURVE",
"359 459 OFFCURVE",
"228 459 CURVE SMOOTH"
);
}
);
width = 398;
}
);
leftKerningGroup = o;
leftMetricsKey = o;
rightKerningGroup = e;
unicode = 0065;
},
{
glyphname = f;
layers = (
{
background = {
paths = (
{
closed = 1;
nodes = (
"116 550 OFFCURVE",
"36 478 OFFCURVE",
"36 322 CURVE SMOOTH",
"36 202 OFFCURVE",
"93 133 OFFCURVE",
"196 133 CURVE SMOOTH",
"293 133 OFFCURVE",
"373 206 OFFCURVE",
"373 363 CURVE SMOOTH",
"373 485 OFFCURVE",
"316 550 OFFCURVE",
"213 550 CURVE SMOOTH"
);
},
{
closed = 1;
nodes = (
"252 513 OFFCURVE",
"277 445 OFFCURVE",
"277 354 CURVE SMOOTH",
"277 231 OFFCURVE",
"253 169 OFFCURVE",
"215 169 CURVE SMOOTH",
"161 169 OFFCURVE",
"132 241 OFFCURVE",
"132 332 CURVE SMOOTH",
"132 455 OFFCURVE",
"152 513 OFFCURVE",
"198 513 CURVE SMOOTH"
);
}
);
};
guideLines = (
{
angle = 90;
position = "{68, 321}";
}
);
layerId = "EA62F474-A0CE-4CDB-8144-A83B4E00D785";
paths = (
{
closed = 1;
nodes = (
"150 658 OFFCURVE",
"93 581 OFFCURVE",
"93 495 CURVE SMOOTH",
"93 123 LINE",
"93 61 OFFCURVE",
"91 40 OFFCURVE",
"18 37 CURVE",
"18 -3 LINE",
"147 3 OFFCURVE",
"144 3 OFFCURVE",
"291 -3 CURVE",
"291 37 LINE",
"203 40 OFFCURVE",
"201 61 OFFCURVE",
"201 123 CURVE",
"201 505 LINE SMOOTH",
"201 571 OFFCURVE",
"212 615 OFFCURVE",
"258 615 CURVE SMOOTH",
"296 615 OFFCURVE",
"312 590 OFFCURVE",
"312 526 CURVE",
"359 526 LINE",
"359 646 LINE",
"327 653 OFFCURVE",
"322 658 OFFCURVE",
"272 658 CURVE SMOOTH"
);
},
{
closed = 1;
nodes = (
"93 470 LINE",
"23 454 LINE",
"23 425 LINE",
"327 425 LINE",
"327 470 LINE"
);
}
);
width = 365;
},
{
background = {
paths = (
{
closed = 1;
nodes = (
"105 550 OFFCURVE",
"45 467 OFFCURVE",
"45 333 CURVE SMOOTH",
"45 219 OFFCURVE",
"90 156 OFFCURVE",
"178 156 CURVE SMOOTH",
"280 156 OFFCURVE",
"336 239 OFFCURVE",
"336 373 CURVE SMOOTH",
"336 487 OFFCURVE",
"295 550 OFFCURVE",
"212 550 CURVE SMOOTH"
);
},
{
closed = 1;
nodes = (
"253 523 OFFCURVE",
"279 469 OFFCURVE",
"279 367 CURVE SMOOTH",
"279 253 OFFCURVE",
"256 183 OFFCURVE",
"189 183 CURVE SMOOTH",
"128 183 OFFCURVE",
"102 237 OFFCURVE",
"102 339 CURVE SMOOTH",
"102 453 OFFCURVE",
"125 523 OFFCURVE",
"192 523 CURVE SMOOTH"
);
},
{
closed = 1;
nodes = (
"109 550 OFFCURVE",
"88 473 OFFCURVE",
"88 414 CURVE SMOOTH",
"88 85 LINE",
"88 36 OFFCURVE",
"80 25 OFFCURVE",
"30 23 CURVE",
"30 -2 LINE",
"116 2 OFFCURVE",
"116 2 OFFCURVE",
"210 -2 CURVE",
"210 23 LINE",
"151 25 OFFCURVE",
"143 36 OFFCURVE",
"143 85 CURVE",
"143 440 LINE SMOOTH",
"143 475 OFFCURVE",
"148 520 OFFCURVE",
"190 520 CURVE SMOOTH",
"225 520 OFFCURVE",
"238 496 OFFCURVE",
"238 449 CURVE",
"270 449 LINE",
"270 538 LINE",
"238 546 OFFCURVE",
"229 550 OFFCURVE",
"191 550 CURVE SMOOTH"
);
},
{
closed = 1;
nodes = (
"88 374 LINE",
"30 360 LINE",
"30 344 LINE",
"236 344 LINE",
"236 374 LINE"
);
}
);
};
guideLines = (
{
angle = 90;
position = "{30, 22}";
}
);
layerId = "B1D0FA45-0BED-409D-9800-57F37CCD9690";
leftMetricsKey = "=n";
paths = (
{
closed = 1;
nodes = (
"144 658 OFFCURVE",
"105 566 OFFCURVE",
"105 495 CURVE SMOOTH",
"105 102 LINE",
"105 43 OFFCURVE",
"96 30 OFFCURVE",
"36 28 CURVE",
"36 -3 LINE",
"139 3 OFFCURVE",
"139 3 OFFCURVE",
"251 -3 CURVE",
"251 28 LINE",
"180 30 OFFCURVE",
"171 43 OFFCURVE",
"171 102 CURVE",
"171 526 LINE SMOOTH",
"171 569 OFFCURVE",
"177 622 OFFCURVE",
"227 622 CURVE SMOOTH",
"270 622 OFFCURVE",
"284 593 OFFCURVE",
"284 537 CURVE",
"323 537 LINE",
"323 643 LINE",
"299 653 OFFCURVE",
"275 658 OFFCURVE",
"243 658 CURVE SMOOTH"
);
},
{
closed = 1;
nodes = (
"105 447 LINE",
"36 431 LINE",
"36 408 LINE",
"282 408 LINE",
"282 447 LINE"
);
}
);
width = 335;
}
);
leftKerningGroup = f;
leftMetricsKey = n;
rightKerningGroup = f;
unicode = 0066;
},
{
glyphname = g;
layers = (
{
background = {
paths = (
{
closed = 1;
nodes = (
"94 146 OFFCURVE",
"55 111 OFFCURVE",
"55 64 CURVE SMOOTH",
"55 12 OFFCURVE",
"92 -16 OFFCURVE",
"165 -16 CURVE SMOOTH",
"248 -16 LINE SMOOTH",
"291 -16 OFFCURVE",
"308 -30 OFFCURVE",
"308 -59 CURVE SMOOTH",
"308 -103 OFFCURVE",
"256 -134 OFFCURVE",
"204 -134 CURVE SMOOTH",
"130 -134 OFFCURVE",
"91 -95 OFFCURVE",
"91 -63 CURVE SMOOTH",
"91 -28 OFFCURVE",
"109 -4 OFFCURVE",
"131 9 CURVE",
"107 29 LINE",
"61 17 OFFCURVE",
"20 -24 OFFCURVE",
"20 -77 CURVE SMOOTH",
"20 -139 OFFCURVE",
"86 -175 OFFCURVE",
"181 -175 CURVE SMOOTH",
"304 -175 OFFCURVE",
"375 -100 OFFCURVE",
"375 -25 CURVE SMOOTH",
"375 30 OFFCURVE",
"339 67 OFFCURVE",
"267 67 CURVE SMOOTH",
"165 67 LINE SMOOTH",
"129 67 OFFCURVE",
"110 76 OFFCURVE",
"110 94 CURVE SMOOTH",
"110 107 OFFCURVE",
"121 123 OFFCURVE",
"147 127 CURVE",
"147 126 OFFCURVE",
"145 142 OFFCURVE",
"145 142 CURVE"
);
},
{
closed = 1;
nodes = (
"224 371 OFFCURVE",
"240 328 OFFCURVE",
"240 267 CURVE SMOOTH",
"240 203 OFFCURVE",
"226 148 OFFCURVE",
"187 148 CURVE SMOOTH",
"141 148 OFFCURVE",
"125 188 OFFCURVE",
"125 248 CURVE SMOOTH",
"125 312 OFFCURVE",
"139 371 OFFCURVE",
"178 371 CURVE SMOOTH"
);
},
{
closed = 1;
nodes = (
"108 405 OFFCURVE",
"36 354 OFFCURVE",
"36 243 CURVE SMOOTH",
"36 160 OFFCURVE",
"83 113 OFFCURVE",
"173 113 CURVE SMOOTH",
"259 113 OFFCURVE",
"327 162 OFFCURVE",
"327 272 CURVE SMOOTH",
"327 307 OFFCURVE",
"314 339 OFFCURVE",
"292 360 CURVE",
"297 370 LINE",
"275 393 OFFCURVE",
"240 405 OFFCURVE",
"193 405 CURVE SMOOTH"
);
},
{
closed = 1;
nodes = (
"276 319 LINE",
"296 319 LINE",
"322 328 OFFCURVE",
"354 325 OFFCURVE",
"382 325 CURVE",
"382 366 LINE",
"337 366 OFFCURVE",
"297 379 OFFCURVE",
"255 396 CURVE"
);
}
);
};
layerId = "EA62F474-A0CE-4CDB-8144-A83B4E00D785";
paths = (
{
closed = 1;
nodes = (
"112 175 OFFCURVE",
"66 132 OFFCURVE",
"66 76 CURVE SMOOTH",
"66 15 OFFCURVE",
"110 -19 OFFCURVE",
"198 -19 CURVE SMOOTH",
"296 -19 LINE SMOOTH",
"348 -19 OFFCURVE",
"368 -36 OFFCURVE",
"368 -71 CURVE SMOOTH",
"368 -123 OFFCURVE",
"306 -160 OFFCURVE",
"244 -160 CURVE SMOOTH",
"155 -160 OFFCURVE",
"122 -114 OFFCURVE",
"122 -75 CURVE SMOOTH",
"122 -33 OFFCURVE",
"144 -5 OFFCURVE",
"170 11 CURVE",
"128 35 LINE",
"73 20 OFFCURVE",
"24 -29 OFFCURVE",
"24 -92 CURVE SMOOTH",
"24 -167 OFFCURVE",
"103 -210 OFFCURVE",
"216 -210 CURVE SMOOTH",
"363 -210 OFFCURVE",
"449 -120 OFFCURVE",
"449 -30 CURVE SMOOTH",
"449 36 OFFCURVE",
"406 80 OFFCURVE",
"319 80 CURVE SMOOTH",
"198 80 LINE SMOOTH",
"155 80 OFFCURVE",
"132 91 OFFCURVE",
"132 112 CURVE SMOOTH",
"132 128 OFFCURVE",
"144 147 OFFCURVE",
"176 152 CURVE",
"176 151 OFFCURVE",
"174 170 OFFCURVE",
"174 170 CURVE"
);
},
{
closed = 1;
nodes = (
"268 443 OFFCURVE",
"287 392 OFFCURVE",
"287 319 CURVE SMOOTH",
"287 243 OFFCURVE",
"270 177 OFFCURVE",
"224 177 CURVE SMOOTH",
"168 177 OFFCURVE",
"150 224 OFFCURVE",
"150 296 CURVE SMOOTH",
"150 374 OFFCURVE",
"167 443 OFFCURVE",
"213 443 CURVE SMOOTH"
);
},
{
closed = 1;
nodes = (
"129 485 OFFCURVE",
"43 423 OFFCURVE",
"43 291 CURVE SMOOTH",
"43 191 OFFCURVE",
"99 135 OFFCURVE",
"207 135 CURVE SMOOTH",
"310 135 OFFCURVE",
"391 194 OFFCURVE",
"391 326 CURVE SMOOTH",
"391 367 OFFCURVE",
"375 406 OFFCURVE",
"350 431 CURVE",
"355 443 LINE",
"329 470 OFFCURVE",
"287 485 OFFCURVE",
"231 485 CURVE SMOOTH"
);
},
{
closed = 1;
nodes = (
"330 382 LINE",
"354 382 LINE",
"385 392 OFFCURVE",
"423 389 OFFCURVE",
"457 389 CURVE",
"457 438 LINE",
"403 438 OFFCURVE",
"355 454 OFFCURVE",
"305 474 CURVE"
);
}
);
width = 482;
},
{
background = {
paths = (
{
closed = 1;
nodes = (
"93 139 OFFCURVE",
"59 112 OFFCURVE",
"59 70 CURVE SMOOTH",
"59 27 OFFCURVE",
"91 -4 OFFCURVE",
"158 -4 CURVE SMOOTH",
"230 -4 LINE SMOOTH",
"272 -4 OFFCURVE",
"291 -20 OFFCURVE",
"291 -57 CURVE SMOOTH",
"291 -108 OFFCURVE",
"245 -147 OFFCURVE",
"190 -147 CURVE SMOOTH",
"105 -147 OFFCURVE",
"82 -103 OFFCURVE",
"82 -64 CURVE SMOOTH",
"82 -22 OFFCURVE",
"96 3 OFFCURVE",
"120 17 CURVE",
"104 26 LINE",
"62 14 OFFCURVE",
"25 -25 OFFCURVE",
"25 -78 CURVE SMOOTH",
"25 -139 OFFCURVE",
"85 -175 OFFCURVE",
"171 -175 CURVE SMOOTH",
"283 -175 OFFCURVE",
"347 -105 OFFCURVE",
"347 -35 CURVE SMOOTH",
"347 15 OFFCURVE",
"315 49 OFFCURVE",
"249 49 CURVE SMOOTH",
"150 49 LINE SMOOTH",
"116 49 OFFCURVE",
"99 62 OFFCURVE",
"99 84 CURVE SMOOTH",
"99 100 OFFCURVE",
"114 120 OFFCURVE",
"136 126 CURVE",
"136 125 OFFCURVE",
"140 135 OFFCURVE",
"140 135 CURVE"
);
},
{
closed = 1;
nodes = (
"222 354 OFFCURVE",
"241 313 OFFCURVE",
"241 258 CURVE SMOOTH",
"241 199 OFFCURVE",
"226 146 OFFCURVE",
"176 146 CURVE SMOOTH",
"119 146 OFFCURVE",
"100 185 OFFCURVE",
"100 240 CURVE SMOOTH",
"100 299 OFFCURVE",
"115 354 OFFCURVE",
"165 354 CURVE SMOOTH"
);
},
{
closed = 1;
nodes = (
"103 384 OFFCURVE",
"39 338 OFFCURVE",
"39 237 CURVE SMOOTH",
"39 161 OFFCURVE",
"80 119 OFFCURVE",
"160 119 CURVE SMOOTH",
"236 119 OFFCURVE",
"300 166 OFFCURVE",
"300 266 CURVE SMOOTH",
"300 298 OFFCURVE",
"289 325 OFFCURVE",
"270 344 CURVE",
"270 352 LINE",
"250 373 OFFCURVE",
"219 384 OFFCURVE",
"178 384 CURVE SMOOTH"
);
},
{
closed = 1;
nodes = (
"234 329 LINE",
"256 329 LINE",
"284 335 OFFCURVE",
"316 333 OFFCURVE",
"345 333 CURVE",
"345 362 LINE",
"299 362 OFFCURVE",
"257 370 OFFCURVE",
"213 381 CURVE"
);
}
);
};
guideLines = (
{
angle = 90;
position = "{348, 113}";
}
);
layerId = "B1D0FA45-0BED-409D-9800-57F37CCD9690";
paths = (
{
closed = 1;
nodes = (
"111 167 OFFCURVE",
"71 127 OFFCURVE",
"71 84 CURVE SMOOTH",
"71 32 OFFCURVE",
"109 -5 OFFCURVE",
"194 -5 CURVE SMOOTH",
"263 -5 LINE SMOOTH",
"326 -5 OFFCURVE",
"348 -24 OFFCURVE",
"348 -68 CURVE SMOOTH",
"348 -129 OFFCURVE",
"293 -176 OFFCURVE",
"227 -176 CURVE SMOOTH",
"126 -176 OFFCURVE",
"98 -123 OFFCURVE",
"98 -76 CURVE SMOOTH",
"98 -27 OFFCURVE",
"115 4 OFFCURVE",
"144 20 CURVE",
"124 31 LINE",
"75 17 OFFCURVE",
"30 -30 OFFCURVE",
"30 -93 CURVE SMOOTH",
"30 -162 OFFCURVE",
"102 -210 OFFCURVE",
"204 -210 CURVE SMOOTH",
"339 -210 OFFCURVE",
"415 -126 OFFCURVE",
"415 -42 CURVE SMOOTH",
"415 18 OFFCURVE",
"377 59 OFFCURVE",
"284 59 CURVE SMOOTH",
"186 59 LINE SMOOTH",
"139 59 OFFCURVE",
"119 75 OFFCURVE",
"119 100 CURVE SMOOTH",
"119 120 OFFCURVE",
"136 144 OFFCURVE",
"163 151 CURVE",
"163 150 OFFCURVE",
"167 162 OFFCURVE",
"167 162 CURVE"
);
},
{
closed = 1;
nodes = (
"266 423 OFFCURVE",
"288 374 OFFCURVE",
"288 308 CURVE SMOOTH",
"288 238 OFFCURVE",
"270 175 OFFCURVE",
"211 175 CURVE SMOOTH",
"143 175 OFFCURVE",
"120 222 OFFCURVE",
"120 287 CURVE SMOOTH",
"120 358 OFFCURVE",
"138 423 OFFCURVE",
"198 423 CURVE SMOOTH"
);
},
{
closed = 1;
nodes = (
"123 459 OFFCURVE",
"47 404 OFFCURVE",
"47 283 CURVE SMOOTH",
"47 192 OFFCURVE",
"96 143 OFFCURVE",
"191 143 CURVE SMOOTH",
"282 143 OFFCURVE",
"359 199 OFFCURVE",
"359 318 CURVE SMOOTH",
"359 356 OFFCURVE",
"346 389 OFFCURVE",
"323 411 CURVE",
"323 421 LINE",
"299 446 OFFCURVE",
"262 459 OFFCURVE",
"213 459 CURVE SMOOTH"
);
},
{
closed = 1;
nodes = (
"280 394 LINE",
"306 394 LINE",
"339 401 OFFCURVE",
"378 398 OFFCURVE",
"413 398 CURVE",
"413 433 LINE",
"358 433 OFFCURVE",
"307 443 OFFCURVE",
"255 455 CURVE"
);
}
);
width = 439;
}
);
unicode = 0067;
},
{
glyphname = h;
layers = (
{
background = {
paths = (
{
closed = 1;
nodes = (
"130 550 LINE",
"0 525 LINE",
"0 493 LINE",
"35 493 OFFCURVE",
"41 489 OFFCURVE",
"52 477 CURVE",
"60 466 OFFCURVE",
"63 453 OFFCURVE",
"63 427 CURVE",
"63 112 LINE SMOOTH",
"63 82 OFFCURVE",
"64 55 OFFCURVE",
"55 47 CURVE",
"44 38 OFFCURVE",
"32 31 OFFCURVE",
"0 30 CURVE",
"0 -3 LINE",
"108 3 OFFCURVE",
"106 3 OFFCURVE",
"214 -3 CURVE",
"214 30 LINE",
"182 31 OFFCURVE",
"172 38 OFFCURVE",
"161 47 CURVE",
"152 55 OFFCURVE",
"153 82 OFFCURVE",
"153 112 CURVE SMOOTH",
"153 295 LINE",
"149 309 LINE",
"149 542 LINE"
);
},
{
closed = 1;
nodes = (
"300 82 OFFCURVE",
"301 55 OFFCURVE",
"292 47 CURVE",
"281 38 OFFCURVE",
"271 31 OFFCURVE",
"239 30 CURVE",
"239 -3 LINE",
"347 3 OFFCURVE",
"345 3 OFFCURVE",
"453 -3 CURVE",
"453 30 LINE",
"421 31 OFFCURVE",
"409 38 OFFCURVE",
"398 47 CURVE",
"389 55 OFFCURVE",
"390 82 OFFCURVE",
"390 112 CURVE SMOOTH",
"390 298 LINE SMOOTH",
"390 371 OFFCURVE",
"344 405 OFFCURVE",
"279 405 CURVE SMOOTH",
"223 405 OFFCURVE",
"155 362 OFFCURVE",
"129 284 CURVE",
"131 283 OFFCURVE",
"140 256 OFFCURVE",
"140 256 CURVE",
"161 302 OFFCURVE",
"200 343 OFFCURVE",
"242 343 CURVE SMOOTH",
"273 343 OFFCURVE",
"300 326 OFFCURVE",
"300 283 CURVE SMOOTH",
"300 112 LINE SMOOTH"
);
}
);
};
guideLines = (
{
angle = 90;
position = "{153, 363}";
},
{
position = "{258, 675}";
}
);
layerId = "EA62F474-A0CE-4CDB-8144-A83B4E00D785";
paths = (
{
closed = 1;
nodes = (
"284 485 OFFCURVE",
"203 433 OFFCURVE",
"172 339 CURVE",
"186 306 LINE",
"211 362 OFFCURVE",
"258 410 OFFCURVE",
"307 410 CURVE SMOOTH",
"344 410 OFFCURVE",
"377 390 OFFCURVE",
"377 339 CURVE SMOOTH",
"377 123 LINE",
"377 61 OFFCURVE",
"374 40 OFFCURVE",
"304 37 CURVE",
"304 -3 LINE",
"433 3 OFFCURVE",
"431 3 OFFCURVE",
"559 -3 CURVE",
"559 37 LINE",
"487 40 OFFCURVE",
"485 61 OFFCURVE",
"485 123 CURVE",
"485 356 LINE SMOOTH",
"485 443 OFFCURVE",
"430 485 OFFCURVE",
"351 485 CURVE SMOOTH"
);
},
{
closed = 1;
nodes = (
"18 628 LINE",
"18 590 LINE",
"91 587 OFFCURVE",
"93 566 OFFCURVE",
"93 511 CURVE",
"93 123 LINE",
"93 61 OFFCURVE",
"91 40 OFFCURVE",
"18 37 CURVE",
"18 -3 LINE",
"147 3 OFFCURVE",
"144 3 OFFCURVE",
"274 -3 CURVE",
"274 37 LINE",
"203 40 OFFCURVE",
"201 61 OFFCURVE",
"201 123 CURVE",
"201 649 LINE",
"178 658 LINE"
);
}
);
width = 566;
},
{
background = {
paths = (
{
closed = 1;
nodes = (
"30 532 LINE",
"131 550 LINE",
"143 545 LINE",
"143 84 LINE",
"143 35 OFFCURVE",
"151 24 OFFCURVE",
"201 22 CURVE",
"201 -3 LINE",
"116 1 OFFCURVE",
"116 1 OFFCURVE",
"30 -3 CURVE",
"30 22 LINE",
"80 24 OFFCURVE",
"88 35 OFFCURVE",
"88 84 CURVE SMOOTH",
"88 457 LINE SMOOTH",
"88 497 OFFCURVE",
"79 506 OFFCURVE",
"30 506 CURVE"
);
},
{
closed = 1;
nodes = (
"299 279 LINE SMOOTH",
"299 319 OFFCURVE",
"275 335 OFFCURVE",
"246 335 CURVE SMOOTH",
"201 335 OFFCURVE",
"162 304 OFFCURVE",
"143 251 CURVE",
"143 251 OFFCURVE",
"136 272 OFFCURVE",
"136 272 CURVE",
"135 273 LINE",
"157 343 OFFCURVE",
"215 384 OFFCURVE",
"262 384 CURVE SMOOTH",
"313 384 OFFCURVE",
"354 354 OFFCURVE",
"354 289 CURVE SMOOTH",
"354 84 LINE",
"354 35 OFFCURVE",
"362 24 OFFCURVE",
"412 22 CURVE",
"412 -3 LINE",
"327 1 OFFCURVE",
"327 1 OFFCURVE",
"241 -3 CURVE",
"241 22 LINE",
"291 24 OFFCURVE",
"299 35 OFFCURVE",
"299 84 CURVE"
);
}
);
};
guideLines = (
{
angle = 90;
position = "{143, 494}";
}
);
layerId = "B1D0FA45-0BED-409D-9800-57F37CCD9690";
leftMetricsKey = "=n";
rightMetricsKey = "=n";
paths = (
{
closed = 1;
nodes = (
"258 459 OFFCURVE",
"194 413 OFFCURVE",
"162 335 CURVE",
"171 300 LINE",
"194 363 OFFCURVE",
"240 401 OFFCURVE",
"294 401 CURVE SMOOTH",
"334 401 OFFCURVE",
"358 383 OFFCURVE",
"358 319 CURVE SMOOTH",
"358 102 LINE SMOOTH",
"358 43 OFFCURVE",
"348 30 OFFCURVE",
"288 28 CURVE",
"288 -3 LINE",
"391 3 OFFCURVE",
"391 3 OFFCURVE",
"493 -3 CURVE",
"493 28 LINE",
"433 30 OFFCURVE",
"423 43 OFFCURVE",
"423 102 CURVE SMOOTH",
"423 303 LINE SMOOTH",
"423 431 OFFCURVE",
"389 459 OFFCURVE",
"314 459 CURVE SMOOTH"
);
},
{
closed = 1;
nodes = (
"36 637 LINE",
"36 605 LINE",
"95 605 OFFCURVE",
"105 594 OFFCURVE",
"105 546 CURVE SMOOTH",
"105 102 LINE SMOOTH",
"105 43 OFFCURVE",
"96 30 OFFCURVE",
"36 28 CURVE",
"36 -3 LINE",
"139 3 OFFCURVE",
"139 3 OFFCURVE",
"240 -3 CURVE",
"240 28 LINE",
"180 30 OFFCURVE",
"171 43 OFFCURVE",
"171 102 CURVE SMOOTH",
"171 652 LINE",
"156 658 LINE"
);
}
);
width = 517;
}
);
leftKerningGroup = l;
leftMetricsKey = n;
rightKerningGroup = n;
rightMetricsKey = n;
unicode = 0068;
},
{
glyphname = i;
layers = (
{
background = {
paths = (
{
closed = 0;
nodes = (
"78 112 LINE SMOOTH",
"78 82 OFFCURVE",
"79 55 OFFCURVE",
"70 47 CURVE",
"59 38 OFFCURVE",
"47 31 OFFCURVE",
"15 30 CURVE",
"15 -3 LINE",
"123 3 OFFCURVE",
"121 3 OFFCURVE",
"229 -3 CURVE",
"229 30 LINE",
"197 31 OFFCURVE",
"187 38 OFFCURVE",
"176 47 CURVE",
"167 55 OFFCURVE",
"168 82 OFFCURVE",
"168 112 CURVE SMOOTH"
);
}
);
};
components = (
{
name = idotless;
},
{
alignment = -1;
name = dotaccent;
transform = "{1, 0, 0, 1, -4, -20}";
}
);
guideLines = (
{
angle = 90;
position = "{15, 268}";
}
);
layerId = "EA62F474-A0CE-4CDB-8144-A83B4E00D785";
width = 300;
},
{
background = {
paths = (
{
closed = 1;
nodes = (
"75 556 OFFCURVE",
"61 540 OFFCURVE",
"61 514 CURVE SMOOTH",
"61 487 OFFCURVE",
"75 475 OFFCURVE",
"102 475 CURVE SMOOTH",
"130 475 OFFCURVE",
"144 487 OFFCURVE",
"144 514 CURVE SMOOTH",
"144 540 OFFCURVE",
"130 556 OFFCURVE",
"102 556 CURVE SMOOTH"
);
},
{
closed = 1;
nodes = (
"121 384 LINE",
"20 366 LINE",
"20 341 LINE",
"50 341 OFFCURVE",
"59 339 OFFCURVE",
"69 329 CURVE",
"76 321 OFFCURVE",
"78 311 OFFCURVE",
"78 292 CURVE SMOOTH",
"78 84 LINE SMOOTH",
"78 61 OFFCURVE",
"76 42 OFFCURVE",
"67 35 CURVE",
"59 28 OFFCURVE",
"46 23 OFFCURVE",
"20 22 CURVE",
"20 -3 LINE",
"106 1 OFFCURVE",
"105 1 OFFCURVE",
"190 -3 CURVE",
"190 22 LINE",
"164 23 OFFCURVE",
"150 28 OFFCURVE",
"141 35 CURVE",
"133 42 OFFCURVE",
"133 61 OFFCURVE",
"133 84 CURVE SMOOTH",
"133 379 LINE"
);
}
);
};
components = (
{
name = idotless;
},
{
alignment = -1;
name = dotaccent;
transform = "{1, 0, 0, 1, -1, -24}";
}
);
guideLines = (
{
angle = 90;
position = "{20, 179}";
}
);
layerId = "B1D0FA45-0BED-409D-9800-57F37CCD9690";
width = 259;
}
);
leftKerningGroup = i;
rightKerningGroup = i;
unicode = 0069;
},
{
glyphname = idotless;
layers = (
{
anchors = (
{
name = top;
position = "{134, 478}";
}
);
background = {
paths = (
{
closed = 1;
nodes = (
"97 467 LINE",
"118 446 LINE",
"220 540 LINE",
"189 571 LINE"
);
}
);
};
layerId = "B1D0FA45-0BED-409D-9800-57F37CCD9690";
paths = (
{
closed = 1;
nodes = (
"36 438 LINE",
"36 408 LINE",
"95 408 OFFCURVE",
"105 397 OFFCURVE",
"105 350 CURVE SMOOTH",
"105 100 LINE SMOOTH",
"105 42 OFFCURVE",
"96 29 OFFCURVE",
"36 27 CURVE",
"36 -4 LINE",
"139 1 OFFCURVE",
"139 1 OFFCURVE",
"240 -4 CURVE",
"240 27 LINE",
"180 29 OFFCURVE",
"171 42 OFFCURVE",
"171 100 CURVE",
"171 454 LINE",
"156 459 LINE"
);
}
);
width = 259;
},
{
anchors = (
{
name = top;
position = "{146, 497}";
}
);
layerId = "EA62F474-A0CE-4CDB-8144-A83B4E00D785";
paths = (
{
closed = 1;
nodes = (
"18 452 LINE",
"18 416 LINE",
"91 414 OFFCURVE",
"93 392 OFFCURVE",
"93 338 CURVE",
"93 123 LINE",
"93 61 OFFCURVE",
"91 40 OFFCURVE",
"18 37 CURVE",
"18 -3 LINE",
"138 3 OFFCURVE",
"156 3 OFFCURVE",
"276 -3 CURVE",
"276 37 LINE",
"203 40 OFFCURVE",
"201 61 OFFCURVE",
"201 123 CURVE",
"201 474 LINE",
"178 483 LINE"
);
}
);
width = 300;
}
);
leftKerningGroup = n;
rightKerningGroup = u;
unicode = 0131;
},
{
glyphname = j;
layers = (
{
components = (
{
alignment = -1;
name = dotaccent;
transform = "{1, 0, 0, 1, -3, -20}";
}
);
layerId = "EA62F474-A0CE-4CDB-8144-A83B4E00D785";
paths = (
{
closed = 1;
nodes = (
"18 452 LINE",
"18 416 LINE",
"91 414 OFFCURVE",
"93 392 OFFCURVE",
"93 338 CURVE SMOOTH",
"93 96 LINE SMOOTH",
"93 -56 OFFCURVE",
"61 -119 OFFCURVE",
"-17 -187 CURVE",
"0 -210 LINE",
"126 -150 OFFCURVE",
"201 -81 OFFCURVE",
"201 63 CURVE SMOOTH",
"201 474 LINE",
"178 483 LINE"
);
}
);
width = 260;
},
{
components = (
{
name = dotaccent;
transform = "{1, 0, 0, 1, -8, -24}";
}
);
layerId = "B1D0FA45-0BED-409D-9800-57F37CCD9690";
paths = (
{
closed = 1;
nodes = (
"31 438 LINE",
"31 408 LINE",
"90 408 OFFCURVE",
"100 397 OFFCURVE",
"100 350 CURVE SMOOTH",
"100 69 LINE SMOOTH",
"100 -68 OFFCURVE",
"67 -128 OFFCURVE",
"-7 -190 CURVE",
"8 -210 LINE",
"107 -150 OFFCURVE",
"167 -81 OFFCURVE",
"167 63 CURVE SMOOTH",
"167 454 LINE",
"152 459 LINE"
);
}
);
width = 246;
}
);
unicode = 006A;
},
{
glyphname = k;
layers = (
{
background = {
paths = (
{
closed = 1;
nodes = (
"15 524 LINE",
"15 492 LINE",
"76 490 OFFCURVE",
"78 472 OFFCURVE",
"78 426 CURVE SMOOTH",
"78 103 LINE SMOOTH",
"78 51 OFFCURVE",
"76 33 OFFCURVE",
"15 31 CURVE",
"15 -2 LINE",
"65 0 OFFCURVE",
"94 1 OFFCURVE",
"123 1 CURVE SMOOTH",
"152 1 OFFCURVE",
"181 0 OFFCURVE",
"231 -2 CURVE",
"231 31 LINE",
"170 33 OFFCURVE",
"168 51 OFFCURVE",
"168 103 CURVE SMOOTH",
"168 542 LINE",
"149 550 LINE"
);
},
{
closed = 1;
nodes = (
"178 194 LINE",
"305 0 LINE",
"330 1 OFFCURVE",
"349 2 OFFCURVE",
"368 2 CURVE SMOOTH",
"388 2 OFFCURVE",
"409 1 OFFCURVE",
"437 0 CURVE",
"437 33 LINE",
"401 33 OFFCURVE",
"376 55 OFFCURVE",
"358 83 CURVE SMOOTH",
"243 262 LINE"
);
},
{
closed = 1;
nodes = (
"386 394 OFFCURVE",
"360 393 OFFCURVE",
"334 393 CURVE SMOOTH",
"303 393 OFFCURVE",
"272 394 OFFCURVE",
"240 395 CURVE",
"240 362 LINE",
"272 360 OFFCURVE",
"287 350 OFFCURVE",
"287 336 CURVE SMOOTH",
"287 329 OFFCURVE",
"282 320 OFFCURVE",
"273 311 CURVE SMOOTH",
"106 139 LINE",
"138 115 LINE",
"326 309 LINE SMOOTH",
"358 342 OFFCURVE",
"372 360 OFFCURVE",
"413 362 CURVE",
"413 395 LINE"
);
}
);
};
layerId = "EA62F474-A0CE-4CDB-8144-A83B4E00D785";
paths = (
{
closed = 1;
nodes = (
"18 627 LINE",
"18 589 LINE",
"91 586 OFFCURVE",
"93 565 OFFCURVE",
"93 510 CURVE SMOOTH",
"93 123 LINE SMOOTH",
"93 61 OFFCURVE",
"91 40 OFFCURVE",
"18 37 CURVE",
"18 -3 LINE",
"78 0 OFFCURVE",
"112 1 OFFCURVE",
"147 1 CURVE SMOOTH",
"182 1 OFFCURVE",
"216 0 OFFCURVE",
"276 -3 CURVE",
"276 37 LINE",
"203 40 OFFCURVE",
"201 61 OFFCURVE",
"201 123 CURVE SMOOTH",
"201 649 LINE",
"178 658 LINE"
);
},
{
closed = 1;
nodes = (
"213 232 LINE",
"365 0 LINE",
"395 1 OFFCURVE",
"418 3 OFFCURVE",
"440 3 CURVE SMOOTH",
"464 3 OFFCURVE",
"489 1 OFFCURVE",
"523 0 CURVE",
"523 40 LINE",
"479 40 OFFCURVE",
"450 66 OFFCURVE",
"428 99 CURVE SMOOTH",
"291 314 LINE"
);
},
{
closed = 1;
nodes = (
"462 471 OFFCURVE",
"431 470 OFFCURVE",
"399 470 CURVE SMOOTH",
"362 470 OFFCURVE",
"326 471 OFFCURVE",
"287 473 CURVE",
"287 433 LINE",
"326 431 OFFCURVE",
"343 419 OFFCURVE",
"343 402 CURVE SMOOTH",
"343 394 OFFCURVE",
"338 383 OFFCURVE",
"327 372 CURVE SMOOTH",
"252 295 LINE SMOOTH",
"213 251 OFFCURVE",
"171 207 OFFCURVE",
"136 158 CURVE",
"165 138 LINE",
"390 370 LINE SMOOTH",
"428 409 OFFCURVE",
"445 431 OFFCURVE",
"494 433 CURVE",
"494 473 LINE"
);
}
);
width = 535;
},
{
guideLines = (
{
angle = 90;
position = "{364, 250}";
}
);
layerId = "B1D0FA45-0BED-409D-9800-57F37CCD9690";
leftMetricsKey = "=l";
paths = (
{
closed = 1;
nodes = (
"36 637 LINE",
"36 606 LINE",
"95 606 OFFCURVE",
"105 595 OFFCURVE",
"105 547 CURVE SMOOTH",
"105 102 LINE SMOOTH",
"105 43 OFFCURVE",
"96 30 OFFCURVE",
"36 28 CURVE",
"36 -3 LINE",
"87 0 OFFCURVE",
"114 1 OFFCURVE",
"139 1 CURVE SMOOTH",
"164 1 OFFCURVE",
"190 0 OFFCURVE",
"240 -3 CURVE",
"240 28 LINE",
"180 30 OFFCURVE",
"171 43 OFFCURVE",
"171 102 CURVE SMOOTH",
"171 652 LINE",
"156 658 LINE"
);
},
{
closed = 1;
nodes = (
"200 235 LINE",
"343 0 LINE",
"356 1 OFFCURVE",
"371 1 OFFCURVE",
"386 1 CURVE SMOOTH",
"407 1 OFFCURVE",
"430 1 OFFCURVE",
"457 0 CURVE",
"457 30 LINE",
"421 31 OFFCURVE",
"396 43 OFFCURVE",
"380 68 CURVE",
"247 284 LINE"
);
},
{
closed = 1;
nodes = (
"403 446 OFFCURVE",
"368 446 OFFCURVE",
"344 446 CURVE SMOOTH",
"305 446 OFFCURVE",
"278 447 OFFCURVE",
"246 449 CURVE",
"246 419 LINE",
"282 416 OFFCURVE",
"299 408 OFFCURVE",
"299 394 CURVE SMOOTH",
"299 385 OFFCURVE",
"293 374 OFFCURVE",
"282 362 CURVE SMOOTH",
"219 291 LINE SMOOTH",
"184 252 OFFCURVE",
"150 210 OFFCURVE",
"121 167 CURVE",
"143 151 LINE",
"330 360 LINE",
"362 398 OFFCURVE",
"382 416 OFFCURVE",
"428 419 CURVE",
"428 449 LINE"
);
}
);
width = 478;
}
);
leftKerningGroup = l;
leftMetricsKey = l;
unicode = 006B;
},
{
glyphname = l;
layers = (
{
layerId = "EA62F474-A0CE-4CDB-8144-A83B4E00D785";
paths = (
{
closed = 1;
nodes = (
"18 627 LINE",
"18 589 LINE",
"91 586 OFFCURVE",
"93 565 OFFCURVE",
"93 510 CURVE",
"93 123 LINE",
"93 61 OFFCURVE",
"91 40 OFFCURVE",
"18 37 CURVE",
"18 -3 LINE",
"138 3 OFFCURVE",
"156 3 OFFCURVE",
"276 -3 CURVE",
"276 37 LINE",
"203 40 OFFCURVE",
"201 61 OFFCURVE",
"201 123 CURVE",
"201 649 LINE",
"178 658 LINE"
);
}
);
width = 300;
},
{
layerId = "B1D0FA45-0BED-409D-9800-57F37CCD9690";
leftMetricsKey = "=i";
rightMetricsKey = "=i";
paths = (
{
closed = 1;
nodes = (
"36 637 LINE",
"36 606 LINE",
"95 606 OFFCURVE",
"105 595 OFFCURVE",
"105 547 CURVE SMOOTH",
"105 102 LINE SMOOTH",
"105 43 OFFCURVE",
"96 30 OFFCURVE",
"36 28 CURVE",
"36 -3 LINE",
"139 3 OFFCURVE",
"139 3 OFFCURVE",
"240 -3 CURVE",
"240 28 LINE",
"180 30 OFFCURVE",
"171 43 OFFCURVE",
"171 102 CURVE",
"171 652 LINE",
"156 658 LINE"
);
}
);
width = 259;
}
);
leftKerningGroup = l;
leftMetricsKey = i;
rightMetricsKey = i;
unicode = 006C;
},
{
glyphname = lslash;
layers = (
{
background = {
paths = (
{
closed = 1;
nodes = (
"124 252 LINE",
"213 304 LINE",
"194 335 LINE",
"124 295 LINE"
);
},
{
closed = 1;
nodes = (
"124 300 LINE",
"38 250 LINE",
"57 218 LINE",
"124 257 LINE"
);
}
);
};
components = (
{
name = l;
transform = "{1, 0, 0, 1, 10, 0}";
}
);
guideLines = (
{
angle = 90;
position = "{40, 328}";
},
{
angle = 90;
position = "{211, 327}";
}
);
layerId = "B1D0FA45-0BED-409D-9800-57F37CCD9690";
paths = (
{
closed = 1;
nodes = (
"150 351 LINE",
"149 302 LINE",
"256 363 LINE",
"234 399 LINE"
);
},
{
closed = 1;
nodes = (
"47 298 LINE",
"69 260 LINE",
"149 307 LINE",
"150 358 LINE"
);
}
);
width = 285;
},
{
background = {
paths = (
{
closed = 1;
nodes = (
"131 298 LINE",
"130 247 LINE",
"238 310 LINE",
"216 347 LINE"
);
},
{
closed = 1;
nodes = (
"26 243 LINE",
"48 205 LINE",
"130 253 LINE",
"131 304 LINE"
);
},
{
closed = 1;
nodes = (
"348 244 LINE",
"601 244 LINE",
"601 292 LINE",
"348 292 LINE"
);
}
);
};
components = (
{
name = l;
transform = "{1, 0, 0, 1, 10, 0}";
}
);
layerId = "EA62F474-A0CE-4CDB-8144-A83B4E00D785";
paths = (
{
closed = 1;
nodes = (
"165 332 LINE",
"161 270 LINE",
"294 335 LINE",
"270 384 LINE"
);
},
{
closed = 1;
nodes = (
"35 276 LINE",
"59 226 LINE",
"161 276 LINE",
"165 339 LINE"
);
}
);
width = 328;
}
);
leftMetricsKey = "=l+10";
rightMetricsKey = "=l+10";
unicode = 0142;
},
{
glyphname = m;
layers = (
{
background = {
paths = (
{
closed = 1;
nodes = (
"130 405 LINE",
"0 380 LINE",
"0 348 LINE",
"35 348 OFFCURVE",
"41 344 OFFCURVE",
"52 332 CURVE",
"60 321 OFFCURVE",
"63 308 OFFCURVE",
"63 282 CURVE SMOOTH",
"63 112 LINE SMOOTH",
"63 82 OFFCURVE",
"64 55 OFFCURVE",
"55 47 CURVE",
"44 38 OFFCURVE",
"32 31 OFFCURVE",
"0 30 CURVE",
"0 -3 LINE",
"108 3 OFFCURVE",
"101 3 OFFCURVE",
"209 -3 CURVE",
"209 30 LINE",
"177 31 OFFCURVE",
"172 38 OFFCURVE",
"161 47 CURVE",
"152 55 OFFCURVE",
"153 82 OFFCURVE",
"153 112 CURVE SMOOTH",
"153 295 LINE",
"149 309 LINE",
"149 397 LINE"
);
},
{
closed = 0;
nodes = (
"129 284 LINE",
"131 283 OFFCURVE",
"140 256 OFFCURVE",
"140 256 CURVE"
);
},
{
closed = 1;
nodes = (
"377 371 OFFCURVE",
"334 405 OFFCURVE",
"271 405 CURVE SMOOTH",
"218 405 OFFCURVE",
"154 362 OFFCURVE",
"129 284 CURVE",
"131 283 OFFCURVE",
"140 256 OFFCURVE",
"140 256 CURVE",
"159 302 OFFCURVE",
"195 343 OFFCURVE",
"234 343 CURVE SMOOTH",
"262 343 OFFCURVE",
"287 326 OFFCURVE",
"287 283 CURVE SMOOTH",
"287 112 LINE SMOOTH",
"287 82 OFFCURVE",
"288 55 OFFCURVE",
"279 47 CURVE",
"268 38 OFFCURVE",
"263 31 OFFCURVE",
"231 30 CURVE",
"231 -3 LINE",
"339 3 OFFCURVE",
"327 3 OFFCURVE",
"435 -3 CURVE",
"435 30 LINE",
"403 31 OFFCURVE",
"396 38 OFFCURVE",
"385 47 CURVE",
"376 55 OFFCURVE",
"377 82 OFFCURVE",
"377 112 CURVE SMOOTH",
"377 298 LINE SMOOTH"
);
},
{
closed = 0;
nodes = (
"353 284 LINE",
"355 283 OFFCURVE",
"364 256 OFFCURVE",
"364 256 CURVE"
);
},
{
closed = 1;
nodes = (
"601 371 OFFCURVE",
"558 405 OFFCURVE",
"495 405 CURVE SMOOTH",
"442 405 OFFCURVE",
"378 362 OFFCURVE",
"353 284 CURVE",
"355 283 OFFCURVE",
"364 256 OFFCURVE",
"364 256 CURVE",
"383 302 OFFCURVE",
"419 343 OFFCURVE",
"458 343 CURVE SMOOTH",
"486 343 OFFCURVE",
"511 326 OFFCURVE",
"511 283 CURVE SMOOTH",
"511 112 LINE SMOOTH",
"511 82 OFFCURVE",
"512 55 OFFCURVE",
"503 47 CURVE",
"492 38 OFFCURVE",
"487 31 OFFCURVE",
"455 30 CURVE",
"455 -3 LINE",
"563 3 OFFCURVE",
"556 3 OFFCURVE",
"664 -3 CURVE",
"664 30 LINE",
"632 31 OFFCURVE",
"620 38 OFFCURVE",
"609 47 CURVE",
"600 55 OFFCURVE",
"601 82 OFFCURVE",
"601 112 CURVE SMOOTH",
"601 298 LINE SMOOTH"
);
}
);
};
layerId = "EA62F474-A0CE-4CDB-8144-A83B4E00D785";
rightMetricsKey = "=n";
paths = (
{
closed = 1;
nodes = (
"546 485 OFFCURVE",
"470 433 OFFCURVE",
"440 339 CURVE",
"454 306 LINE",
"476 362 OFFCURVE",
"519 410 OFFCURVE",
"566 410 CURVE SMOOTH",
"599 410 OFFCURVE",
"629 390 OFFCURVE",
"629 339 CURVE SMOOTH",
"629 123 LINE",
"629 61 OFFCURVE",
"627 40 OFFCURVE",
"562 37 CURVE",
"562 -3 LINE",
"664 3 OFFCURVE",
"707 3 OFFCURVE",
"812 -3 CURVE",
"812 37 LINE",
"739 40 OFFCURVE",
"737 61 OFFCURVE",
"737 123 CURVE",
"737 356 LINE SMOOTH",
"737 443 OFFCURVE",
"685 485 OFFCURVE",
"610 485 CURVE SMOOTH"
);
},
{
closed = 1;
nodes = (
"18 454 LINE",
"18 416 LINE",
"91 414 OFFCURVE",
"93 392 OFFCURVE",
"93 338 CURVE",
"93 122 LINE",
"93 60 OFFCURVE",
"91 39 OFFCURVE",
"18 36 CURVE",
"18 -4 LINE",
"147 4 OFFCURVE",
"144 4 OFFCURVE",
"268 -4 CURVE",
"268 36 LINE",
"203 39 OFFCURVE",
"201 60 OFFCURVE",
"201 122 CURVE",
"201 353 LINE",
"196 370 LINE",
"196 475 LINE",
"174 485 LINE"
);
},
{
closed = 1;
nodes = (
"279 485 OFFCURVE",
"202 433 OFFCURVE",
"172 339 CURVE",
"175 339 OFFCURVE",
"186 306 OFFCURVE",
"186 306 CURVE",
"208 362 OFFCURVE",
"251 410 OFFCURVE",
"298 410 CURVE SMOOTH",
"331 410 OFFCURVE",
"362 390 OFFCURVE",
"362 339 CURVE SMOOTH",
"362 123 LINE",
"362 61 OFFCURVE",
"359 40 OFFCURVE",
"292 37 CURVE",
"292 -3 LINE",
"394 3 OFFCURVE",
"431 3 OFFCURVE",
"538 -3 CURVE",
"538 37 LINE",
"471 40 OFFCURVE",
"469 61 OFFCURVE",
"469 123 CURVE",
"469 356 LINE SMOOTH",
"469 443 OFFCURVE",
"418 485 OFFCURVE",
"342 485 CURVE SMOOTH"
);
}
);
width = 819;
},
{
background = {
paths = (
{
closed = 1;
nodes = (
"415 384 OFFCURVE",
"362 342 OFFCURVE",
"341 272 CURVE",
"348 250 LINE",
"366 303 OFFCURVE",
"402 335 OFFCURVE",
"445 335 CURVE SMOOTH",
"478 335 OFFCURVE",
"498 320 OFFCURVE",
"498 267 CURVE SMOOTH",
"498 85 LINE SMOOTH",
"498 36 OFFCURVE",
"490 25 OFFCURVE",
"440 23 CURVE",
"440 -2 LINE",
"526 2 OFFCURVE",
"526 2 OFFCURVE",
"611 -2 CURVE",
"611 23 LINE",
"561 25 OFFCURVE",
"553 36 OFFCURVE",
"553 85 CURVE SMOOTH",
"553 253 LINE SMOOTH",
"553 360 OFFCURVE",
"524 384 OFFCURVE",
"461 384 CURVE SMOOTH"
);
},
{
closed = 1;
nodes = (
"30 367 LINE",
"30 341 LINE",
"79 341 OFFCURVE",
"88 332 OFFCURVE",
"88 292 CURVE SMOOTH",
"88 85 LINE SMOOTH",
"88 36 OFFCURVE",
"80 25 OFFCURVE",
"30 23 CURVE",
"30 -2 LINE",
"116 2 OFFCURVE",
"116 2 OFFCURVE",
"201 -2 CURVE",
"201 23 LINE",
"151 25 OFFCURVE",
"143 36 OFFCURVE",
"143 85 CURVE SMOOTH",
"143 277 LINE",
"139 281 LINE",
"139 379 LINE",
"127 384 LINE"
);
},
{
closed = 1;
nodes = (
"210 384 OFFCURVE",
"157 342 OFFCURVE",
"136 272 CURVE",
"136 272 OFFCURVE",
"143 250 OFFCURVE",
"143 250 CURVE",
"161 303 OFFCURVE",
"197 335 OFFCURVE",
"240 335 CURVE SMOOTH",
"273 335 OFFCURVE",
"293 320 OFFCURVE",
"293 267 CURVE SMOOTH",
"293 85 LINE SMOOTH",
"293 36 OFFCURVE",
"285 25 OFFCURVE",
"235 23 CURVE",
"235 -2 LINE",
"321 2 OFFCURVE",
"321 2 OFFCURVE",
"406 -2 CURVE",
"406 23 LINE",
"356 25 OFFCURVE",
"348 36 OFFCURVE",
"348 85 CURVE SMOOTH",
"348 253 LINE SMOOTH",
"348 360 OFFCURVE",
"319 384 OFFCURVE",
"256 384 CURVE SMOOTH"
);
}
);
};
guideLines = (
{
angle = 90;
position = "{30, 226}";
}
);
layerId = "B1D0FA45-0BED-409D-9800-57F37CCD9690";
leftMetricsKey = "=n";
rightMetricsKey = "=n";
paths = (
{
closed = 1;
nodes = (
"497 459 OFFCURVE",
"443 418 OFFCURVE",
"408 334 CURVE",
"416 299 LINE",
"438 362 OFFCURVE",
"481 401 OFFCURVE",
"533 401 CURVE SMOOTH",
"571 401 OFFCURVE",
"595 383 OFFCURVE",
"595 319 CURVE SMOOTH",
"595 102 LINE SMOOTH",
"595 43 OFFCURVE",
"586 30 OFFCURVE",
"526 28 CURVE",
"526 -3 LINE",
"629 3 OFFCURVE",
"629 3 OFFCURVE",
"730 -3 CURVE",
"730 28 LINE",
"671 30 OFFCURVE",
"661 43 OFFCURVE",
"661 102 CURVE SMOOTH",
"661 303 LINE SMOOTH",
"661 431 OFFCURVE",
"627 459 OFFCURVE",
"551 459 CURVE SMOOTH"
);
},
{
closed = 1;
nodes = (
"36 439 LINE",
"36 408 LINE",
"95 408 OFFCURVE",
"105 397 OFFCURVE",
"105 350 CURVE SMOOTH",
"105 102 LINE SMOOTH",
"105 43 OFFCURVE",
"96 30 OFFCURVE",
"36 28 CURVE",
"36 -3 LINE",
"139 3 OFFCURVE",
"139 3 OFFCURVE",
"240 -3 CURVE",
"240 28 LINE",
"180 30 OFFCURVE",
"171 43 OFFCURVE",
"171 102 CURVE SMOOTH",
"171 331 LINE",
"167 336 LINE",
"167 454 LINE",
"152 459 LINE"
);
},
{
closed = 1;
nodes = (
"251 459 OFFCURVE",
"199 418 OFFCURVE",
"163 334 CURVE",
"163 334 OFFCURVE",
"171 299 OFFCURVE",
"171 299 CURVE",
"192 362 OFFCURVE",
"236 401 OFFCURVE",
"287 401 CURVE SMOOTH",
"327 401 OFFCURVE",
"351 383 OFFCURVE",
"351 319 CURVE SMOOTH",
"351 102 LINE SMOOTH",
"351 43 OFFCURVE",
"341 30 OFFCURVE",
"282 28 CURVE",
"282 -3 LINE",
"384 3 OFFCURVE",
"384 3 OFFCURVE",
"486 -3 CURVE",
"486 28 LINE",
"426 30 OFFCURVE",
"416 43 OFFCURVE",
"416 102 CURVE SMOOTH",
"416 303 LINE SMOOTH",
"416 431 OFFCURVE",
"382 459 OFFCURVE",
"306 459 CURVE SMOOTH"
);
}
);
width = 754;
}
);
leftKerningGroup = n;
leftMetricsKey = n;
rightKerningGroup = n;
rightMetricsKey = n;
unicode = 006D;
},
{
glyphname = n;
layers = (
{
anchors = (
{
name = top;
position = "{293, 497}";
}
);
background = {
paths = (
{
closed = 1;
nodes = (
"130 550 LINE",
"0 525 LINE",
"0 493 LINE",
"35 493 OFFCURVE",
"41 489 OFFCURVE",
"52 477 CURVE",
"60 466 OFFCURVE",
"63 453 OFFCURVE",
"63 427 CURVE",
"63 112 LINE SMOOTH",
"63 82 OFFCURVE",
"64 55 OFFCURVE",
"55 47 CURVE",
"44 38 OFFCURVE",
"32 31 OFFCURVE",
"0 30 CURVE",
"0 -3 LINE",
"108 3 OFFCURVE",
"106 3 OFFCURVE",
"214 -3 CURVE",
"214 30 LINE",
"182 31 OFFCURVE",
"172 38 OFFCURVE",
"161 47 CURVE",
"152 55 OFFCURVE",
"153 82 OFFCURVE",
"153 112 CURVE SMOOTH",
"153 295 LINE",
"149 309 LINE",
"149 542 LINE"
);
},
{
closed = 1;
nodes = (
"300 82 OFFCURVE",
"301 55 OFFCURVE",
"292 47 CURVE",
"281 38 OFFCURVE",
"271 31 OFFCURVE",
"239 30 CURVE",
"239 -3 LINE",
"347 3 OFFCURVE",
"345 3 OFFCURVE",
"453 -3 CURVE",
"453 30 LINE",
"421 31 OFFCURVE",
"409 38 OFFCURVE",
"398 47 CURVE",
"389 55 OFFCURVE",
"390 82 OFFCURVE",
"390 112 CURVE SMOOTH",
"390 298 LINE SMOOTH",
"390 371 OFFCURVE",
"344 405 OFFCURVE",
"279 405 CURVE SMOOTH",
"223 405 OFFCURVE",
"155 362 OFFCURVE",
"129 284 CURVE",
"131 283 OFFCURVE",
"140 256 OFFCURVE",
"140 256 CURVE",
"161 302 OFFCURVE",
"200 343 OFFCURVE",
"242 343 CURVE SMOOTH",
"273 343 OFFCURVE",
"300 326 OFFCURVE",
"300 283 CURVE SMOOTH",
"300 112 LINE SMOOTH"
);
}
);
};
layerId = "EA62F474-A0CE-4CDB-8144-A83B4E00D785";
paths = (
{
closed = 1;
nodes = (
"284 485 OFFCURVE",
"203 433 OFFCURVE",
"172 339 CURVE",
"175 339 OFFCURVE",
"186 307 OFFCURVE",
"186 307 CURVE",
"211 362 OFFCURVE",
"258 410 OFFCURVE",
"307 410 CURVE SMOOTH",
"344 410 OFFCURVE",
"377 390 OFFCURVE",
"377 339 CURVE SMOOTH",
"377 123 LINE",
"377 61 OFFCURVE",
"374 40 OFFCURVE",
"304 37 CURVE",
"304 -3 LINE",
"410 3 OFFCURVE",
"455 3 OFFCURVE",
"559 -3 CURVE",
"559 37 LINE",
"487 40 OFFCURVE",
"485 61 OFFCURVE",
"485 123 CURVE",
"485 356 LINE SMOOTH",
"485 443 OFFCURVE",
"430 485 OFFCURVE",
"351 485 CURVE SMOOTH"
);
},
{
closed = 1;
nodes = (
"18 454 LINE",
"18 416 LINE",
"91 414 OFFCURVE",
"93 392 OFFCURVE",
"93 338 CURVE",
"93 123 LINE",
"93 61 OFFCURVE",
"91 40 OFFCURVE",
"18 37 CURVE",
"18 -3 LINE",
"116 3 OFFCURVE",
"163 3 OFFCURVE",
"274 -3 CURVE",
"274 37 LINE",
"203 40 OFFCURVE",
"201 61 OFFCURVE",
"201 123 CURVE",
"201 353 LINE",
"196 370 LINE",
"196 475 LINE",
"174 485 LINE"
);
}
);
width = 566;
},
{
anchors = (
{
name = top;
position = "{258, 478}";
}
);
background = {
paths = (
{
closed = 1;
nodes = (
"215 384 OFFCURVE",
"157 343 OFFCURVE",
"135 273 CURVE",
"136 272 OFFCURVE",
"143 250 OFFCURVE",
"143 250 CURVE",
"162 303 OFFCURVE",
"201 335 OFFCURVE",
"246 335 CURVE",
"279 335 OFFCURVE",
"299 320 OFFCURVE",
"299 267 CURVE",
"299 85 LINE",
"299 36 OFFCURVE",
"291 25 OFFCURVE",
"241 23 CURVE",
"241 -2 LINE",
"327 2 OFFCURVE",
"327 2 OFFCURVE",
"412 -2 CURVE",
"412 23 LINE",
"362 25 OFFCURVE",
"354 36 OFFCURVE",
"354 85 CURVE",
"354 253 LINE",
"354 360 OFFCURVE",
"325 384 OFFCURVE",
"262 384 CURVE"
);
},
{
closed = 1;
nodes = (
"30 367 LINE",
"30 341 LINE",
"79 341 OFFCURVE",
"88 332 OFFCURVE",
"88 292 CURVE SMOOTH",
"88 85 LINE SMOOTH",
"88 36 OFFCURVE",
"80 25 OFFCURVE",
"30 23 CURVE",
"30 -2 LINE",
"116 2 OFFCURVE",
"116 2 OFFCURVE",
"201 -2 CURVE",
"201 23 LINE",
"151 25 OFFCURVE",
"143 36 OFFCURVE",
"143 85 CURVE",
"143 277 LINE",
"139 281 LINE",
"139 379 LINE",
"127 384 LINE"
);
}
);
};
layerId = "B1D0FA45-0BED-409D-9800-57F37CCD9690";
leftMetricsKey = "=i";
paths = (
{
closed = 1;
nodes = (
"258 459 OFFCURVE",
"200 419 OFFCURVE",
"162 335 CURVE",
"163 334 OFFCURVE",
"171 299 OFFCURVE",
"171 299 CURVE",
"194 362 OFFCURVE",
"240 401 OFFCURVE",
"294 401 CURVE",
"334 401 OFFCURVE",
"358 383 OFFCURVE",
"358 319 CURVE",
"358 102 LINE",
"358 43 OFFCURVE",
"348 30 OFFCURVE",
"288 28 CURVE",
"288 -3 LINE",
"391 3 OFFCURVE",
"391 3 OFFCURVE",
"493 -3 CURVE",
"493 28 LINE",
"433 30 OFFCURVE",
"423 43 OFFCURVE",
"423 102 CURVE",
"423 303 LINE",
"423 431 OFFCURVE",
"389 459 OFFCURVE",
"314 459 CURVE"
);
},
{
closed = 1;
nodes = (
"36 439 LINE",
"36 408 LINE",
"95 408 OFFCURVE",
"105 397 OFFCURVE",
"105 350 CURVE SMOOTH",
"105 102 LINE SMOOTH",
"105 43 OFFCURVE",
"96 30 OFFCURVE",
"36 28 CURVE",
"36 -3 LINE",
"139 3 OFFCURVE",
"139 3 OFFCURVE",
"240 -3 CURVE",
"240 28 LINE",
"180 30 OFFCURVE",
"171 43 OFFCURVE",
"171 102 CURVE",
"171 331 LINE",
"167 336 LINE",
"167 454 LINE",
"152 459 LINE"
);
}
);
width = 517;
}
);
leftKerningGroup = n;
leftMetricsKey = i;
rightKerningGroup = n;
unicode = 006E;
},
{
glyphname = o;
layers = (
{
anchors = (
{
name = top;
position = "{231, 497}";
}
);
background = {
paths = (
{
closed = 1;
nodes = (
"132 21 OFFCURVE",
"106 96 OFFCURVE",
"106 187 CURVE SMOOTH",
"106 310 OFFCURVE",
"123 370 OFFCURVE",
"169 370 CURVE SMOOTH",
"223 370 OFFCURVE",
"245 300 OFFCURVE",
"245 209 CURVE SMOOTH",
"245 86 OFFCURVE",
"224 21 OFFCURVE",
"186 21 CURVE SMOOTH"
);
},
{
closed = 1;
nodes = (
"262 -12 OFFCURVE",
"341 65 OFFCURVE",
"341 224 CURVE SMOOTH",
"341 341 OFFCURVE",
"287 405 OFFCURVE",
"184 405 CURVE SMOOTH",
"89 405 OFFCURVE",
"10 330 OFFCURVE",
"10 171 CURVE SMOOTH",
"10 54 OFFCURVE",
"64 -12 OFFCURVE",
"167 -12 CURVE SMOOTH"
);
},
{
closed = 1;
nodes = (
"129 25 OFFCURVE",
"106 80 OFFCURVE",
"106 180 CURVE SMOOTH",
"106 297 OFFCURVE",
"130 369 OFFCURVE",
"190 369 CURVE SMOOTH",
"242 369 OFFCURVE",
"264 314 OFFCURVE",
"264 214 CURVE SMOOTH",
"264 97 OFFCURVE",
"241 25 OFFCURVE",
"183 25 CURVE SMOOTH"
);
},
{
closed = 1;
nodes = (
"290 -10 OFFCURVE",
"360 77 OFFCURVE",
"360 218 CURVE SMOOTH",
"360 338 OFFCURVE",
"307 404 OFFCURVE",
"205 404 CURVE SMOOTH",
"80 404 OFFCURVE",
"10 317 OFFCURVE",
"10 176 CURVE SMOOTH",
"10 56 OFFCURVE",
"63 -10 OFFCURVE",
"165 -10 CURVE SMOOTH"
);
},
{
closed = 1;
nodes = (
"125 477 LINE",
"146 456 LINE",
"255 544 LINE",
"211 587 LINE"
);
},
{
closed = 1;
nodes = (
"117 471 LINE",
"140 448 LINE",
"263 547 LINE",
"214 595 LINE"
);
}
);
};
layerId = "EA62F474-A0CE-4CDB-8144-A83B4E00D785";
paths = (
{
closed = 1;
nodes = (
"122 485 OFFCURVE",
"27 398 OFFCURVE",
"27 212 CURVE SMOOTH",
"27 68 OFFCURVE",
"95 -15 OFFCURVE",
"218 -15 CURVE SMOOTH",
"334 -15 OFFCURVE",
"430 73 OFFCURVE",
"430 260 CURVE SMOOTH",
"430 407 OFFCURVE",
"362 485 OFFCURVE",
"238 485 CURVE SMOOTH"
);
},
{
closed = 1;
nodes = (
"284 440 OFFCURVE",
"315 359 OFFCURVE",
"315 250 CURVE SMOOTH",
"315 103 OFFCURVE",
"286 29 OFFCURVE",
"240 29 CURVE SMOOTH",
"176 29 OFFCURVE",
"141 115 OFFCURVE",
"141 224 CURVE SMOOTH",
"141 371 OFFCURVE",
"165 440 OFFCURVE",
"220 440 CURVE SMOOTH"
);
}
);
width = 455;
},
{
anchors = (
{
name = top;
position = "{228, 478}";
}
);
background = {
anchors = (
{
name = top;
position = "{191, 400}";
}
);
paths = (
{
closed = 1;
nodes = (
"94 384 OFFCURVE",
"33 301 OFFCURVE",
"33 167 CURVE SMOOTH",
"33 53 OFFCURVE",
"79 -10 OFFCURVE",
"167 -10 CURVE SMOOTH",
"269 -10 OFFCURVE",
"326 73 OFFCURVE",
"326 207 CURVE SMOOTH",
"326 321 OFFCURVE",
"284 384 OFFCURVE",
"201 384 CURVE SMOOTH"
);
},
{
closed = 1;
nodes = (
"242 357 OFFCURVE",
"267 303 OFFCURVE",
"267 201 CURVE SMOOTH",
"267 87 OFFCURVE",
"245 17 OFFCURVE",
"178 17 CURVE SMOOTH",
"117 17 OFFCURVE",
"92 71 OFFCURVE",
"92 173 CURVE SMOOTH",
"92 287 OFFCURVE",
"114 357 OFFCURVE",
"181 357 CURVE SMOOTH"
);
}
);
};
layerId = "B1D0FA45-0BED-409D-9800-57F37CCD9690";
paths = (
{
closed = 1;
nodes = (
"109 459 OFFCURVE",
"40 365 OFFCURVE",
"40 200 CURVE SMOOTH",
"40 59 OFFCURVE",
"91 -12 OFFCURVE",
"200 -12 CURVE SMOOTH",
"323 -12 OFFCURVE",
"390 83 OFFCURVE",
"390 247 CURVE SMOOTH",
"390 389 OFFCURVE",
"341 459 OFFCURVE",
"240 459 CURVE SMOOTH"
);
},
{
closed = 1;
nodes = (
"290 427 OFFCURVE",
"319 362 OFFCURVE",
"319 240 CURVE SMOOTH",
"319 104 OFFCURVE",
"293 20 OFFCURVE",
"213 20 CURVE SMOOTH",
"140 20 OFFCURVE",
"110 85 OFFCURVE",
"110 207 CURVE SMOOTH",
"110 343 OFFCURVE",
"136 427 OFFCURVE",
"216 427 CURVE SMOOTH"
);
}
);
width = 430;
}
);
leftKerningGroup = o;
rightKerningGroup = o;
unicode = 006F;
},
{
glyphname = oslash;
layers = (
{
background = {
paths = (
{
closed = 1;
nodes = (
"35 9 LINE",
"64 -11 LINE",
"326 365 LINE",
"296 385 LINE"
);
}
);
};
components = (
{
name = o;
}
);
guideLines = (
{
angle = 90;
position = "{326, 252}";
},
{
angle = 90;
position = "{35, 154}";
}
);
layerId = "B1D0FA45-0BED-409D-9800-57F37CCD9690";
paths = (
{
closed = 1;
nodes = (
"42 9 LINE",
"72 -12 LINE",
"391 439 LINE",
"360 461 LINE"
);
}
);
width = 431;
},
{
components = (
{
name = o;
}
);
guideLines = (
{
angle = 90;
position = "{27, 181}";
},
{
angle = 90;
position = "{364, 240}";
}
);
layerId = "EA62F474-A0CE-4CDB-8144-A83B4E00D785";
paths = (
{
closed = 1;
nodes = (
"32 5 LINE",
"71 -21 LINE",
"435 462 LINE",
"396 488 LINE"
);
}
);
width = 460;
}
);
leftKerningGroup = o;
leftMetricsKey = o;
rightKerningGroup = o;
rightMetricsKey = o;
unicode = 00F8;
},
{
glyphname = oe;
layers = (
{
anchors = (
{
name = top;
position = "{226, 478}";
}
);
background = {
paths = (
{
closed = 1;
nodes = (
"342 384 OFFCURVE",
"267 316 OFFCURVE",
"267 168 CURVE SMOOTH",
"267 53 OFFCURVE",
"318 -10 OFFCURVE",
"399 -10 CURVE SMOOTH",
"456 -10 OFFCURVE",
"504 18 OFFCURVE",
"536 77 CURVE",
"536 77 OFFCURVE",
"521 86 OFFCURVE",
"521 86 CURVE",
"485 51 OFFCURVE",
"450 36 OFFCURVE",
"412 36 CURVE SMOOTH",
"351 36 OFFCURVE",
"324 85 OFFCURVE",
"324 183 CURVE SMOOTH",
"324 299 OFFCURVE",
"355 357 OFFCURVE",
"414 357 CURVE SMOOTH",
"462 357 OFFCURVE",
"476 296 OFFCURVE",
"477 228 CURVE",
"314 228 LINE",
"308 200 LINE",
"535 200 LINE",
"535 285 OFFCURVE",
"533 384 OFFCURVE",
"424 384 CURVE SMOOTH"
);
},
{
closed = 1;
nodes = (
"93 384 OFFCURVE",
"33 301 OFFCURVE",
"33 167 CURVE SMOOTH",
"33 53 OFFCURVE",
"78 -10 OFFCURVE",
"166 -10 CURVE SMOOTH",
"268 -10 OFFCURVE",
"324 73 OFFCURVE",
"324 207 CURVE SMOOTH",
"324 321 OFFCURVE",
"283 384 OFFCURVE",
"200 384 CURVE SMOOTH"
);
},
{
closed = 1;
nodes = (
"241 357 OFFCURVE",
"267 303 OFFCURVE",
"267 201 CURVE SMOOTH",
"267 87 OFFCURVE",
"244 17 OFFCURVE",
"177 17 CURVE SMOOTH",
"116 17 OFFCURVE",
"90 71 OFFCURVE",
"90 173 CURVE SMOOTH",
"90 287 OFFCURVE",
"113 357 OFFCURVE",
"180 357 CURVE SMOOTH"
);
}
);
};
layerId = "B1D0FA45-0BED-409D-9800-57F37CCD9690";
paths = (
{
closed = 1;
nodes = (
"111 459 OFFCURVE",
"40 360 OFFCURVE",
"40 200 CURVE SMOOTH",
"40 63 OFFCURVE",
"93 -12 OFFCURVE",
"199 -12 CURVE SMOOTH",
"320 -12 OFFCURVE",
"387 111 OFFCURVE",
"387 247 CURVE SMOOTH",
"387 360 OFFCURVE",
"339 459 OFFCURVE",
"239 459 CURVE SMOOTH"
);
},
{
closed = 1;
nodes = (
"288 427 OFFCURVE",
"319 362 OFFCURVE",
"319 240 CURVE SMOOTH",
"319 104 OFFCURVE",
"292 20 OFFCURVE",
"212 20 CURVE SMOOTH",
"139 20 OFFCURVE",
"108 85 OFFCURVE",
"108 207 CURVE SMOOTH",
"108 343 OFFCURVE",
"135 427 OFFCURVE",
"215 427 CURVE SMOOTH"
);
},
{
closed = 1;
nodes = (
"409 459 OFFCURVE",
"319 354 OFFCURVE",
"319 201 CURVE SMOOTH",
"319 87 OFFCURVE",
"380 -12 OFFCURVE",
"477 -12 CURVE SMOOTH",
"546 -12 OFFCURVE",
"603 21 OFFCURVE",
"641 92 CURVE",
"641 92 OFFCURVE",
"623 103 OFFCURVE",
"623 103 CURVE",
"581 61 OFFCURVE",
"538 43 OFFCURVE",
"493 43 CURVE SMOOTH",
"420 43 OFFCURVE",
"387 102 OFFCURVE",
"387 219 CURVE SMOOTH",
"387 358 OFFCURVE",
"425 427 OFFCURVE",
"495 427 CURVE SMOOTH",
"553 427 OFFCURVE",
"569 354 OFFCURVE",
"570 272 CURVE",
"375 272 LINE",
"368 239 LINE",
"640 239 LINE",
"640 341 OFFCURVE",
"638 459 OFFCURVE",
"507 459 CURVE SMOOTH"
);
}
);
width = 677;
},
{
anchors = (
{
name = top;
position = "{231, 497}";
}
);
background = {
paths = (
{
closed = 1;
nodes = (
"348 405 OFFCURVE",
"264 341 OFFCURVE",
"264 175 CURVE SMOOTH",
"264 53 OFFCURVE",
"322 -13 OFFCURVE",
"415 -13 CURVE SMOOTH",
"479 -13 OFFCURVE",
"537 16 OFFCURVE",
"574 80 CURVE",
"574 80 OFFCURVE",
"549 97 OFFCURVE",
"549 97 CURVE",
"515 62 OFFCURVE",
"477 47 OFFCURVE",
"441 47 CURVE SMOOTH",
"387 47 OFFCURVE",
"360 96 OFFCURVE",
"360 191 CURVE SMOOTH",
"360 310 OFFCURVE",
"383 370 OFFCURVE",
"427 370 CURVE SMOOTH",
"462 370 OFFCURVE",
"470 312 OFFCURVE",
"472 248 CURVE",
"318 248 LINE",
"311 210 LINE",
"569 210 LINE",
"569 300 OFFCURVE",
"568 405 OFFCURVE",
"443 405 CURVE SMOOTH"
);
},
{
closed = 1;
nodes = (
"102 405 OFFCURVE",
"22 333 OFFCURVE",
"22 177 CURVE SMOOTH",
"22 57 OFFCURVE",
"79 -12 OFFCURVE",
"182 -12 CURVE SMOOTH",
"279 -12 OFFCURVE",
"359 61 OFFCURVE",
"359 218 CURVE SMOOTH",
"359 340 OFFCURVE",
"302 405 OFFCURVE",
"199 405 CURVE SMOOTH"
);
},
{
closed = 1;
nodes = (
"238 368 OFFCURVE",
"263 300 OFFCURVE",
"263 209 CURVE SMOOTH",
"263 86 OFFCURVE",
"239 24 OFFCURVE",
"201 24 CURVE SMOOTH",
"147 24 OFFCURVE",
"118 96 OFFCURVE",
"118 187 CURVE SMOOTH",
"118 310 OFFCURVE",
"138 368 OFFCURVE",
"184 368 CURVE SMOOTH"
);
}
);
};
layerId = "EA62F474-A0CE-4CDB-8144-A83B4E00D785";
paths = (
{
closed = 1;
nodes = (
"122 485 OFFCURVE",
"27 398 OFFCURVE",
"27 212 CURVE SMOOTH",
"27 68 OFFCURVE",
"95 -15 OFFCURVE",
"218 -15 CURVE SMOOTH",
"334 -15 OFFCURVE",
"430 103 OFFCURVE",
"430 260 CURVE SMOOTH",
"430 377 OFFCURVE",
"362 485 OFFCURVE",
"238 485 CURVE SMOOTH"
);
},
{
closed = 1;
nodes = (
"284 440 OFFCURVE",
"315 359 OFFCURVE",
"315 250 CURVE SMOOTH",
"315 103 OFFCURVE",
"286 29 OFFCURVE",
"240 29 CURVE SMOOTH",
"176 29 OFFCURVE",
"141 115 OFFCURVE",
"141 224 CURVE SMOOTH",
"141 371 OFFCURVE",
"165 440 OFFCURVE",
"220 440 CURVE SMOOTH"
);
},
{
closed = 1;
nodes = (
"416 485 OFFCURVE",
"316 378 OFFCURVE",
"316 210 CURVE SMOOTH",
"316 93 OFFCURVE",
"385 -16 OFFCURVE",
"497 -16 CURVE SMOOTH",
"573 -16 OFFCURVE",
"642 19 OFFCURVE",
"686 96 CURVE",
"686 96 OFFCURVE",
"657 116 OFFCURVE",
"657 116 CURVE",
"616 75 OFFCURVE",
"570 56 OFFCURVE",
"527 56 CURVE SMOOTH",
"463 56 OFFCURVE",
"431 115 OFFCURVE",
"431 228 CURVE SMOOTH",
"431 371 OFFCURVE",
"458 443 OFFCURVE",
"511 443 CURVE SMOOTH",
"553 443 OFFCURVE",
"562 374 OFFCURVE",
"565 296 CURVE",
"380 296 LINE",
"372 251 LINE",
"681 251 LINE",
"681 359 OFFCURVE",
"679 485 OFFCURVE",
"530 485 CURVE SMOOTH"
);
}
);
width = 704;
}
);
leftKerningGroup = o;
leftMetricsKey = o;
rightKerningGroup = e;
rightMetricsKey = e;
unicode = 0153;
},
{
glyphname = p;
layers = (
{
background = {
paths = (
{
closed = 1;
nodes = (
"0 527 LINE",
"0 495 LINE",
"61 493 OFFCURVE",
"63 475 OFFCURVE",
"63 429 CURVE SMOOTH",
"63 10 LINE",
"111 -4 OFFCURVE",
"164 -12 OFFCURVE",
"207 -12 CURVE SMOOTH",
"324 -12 OFFCURVE",
"398 56 OFFCURVE",
"398 219 CURVE SMOOTH",
"398 331 OFFCURVE",
"352 405 OFFCURVE",
"257 405 CURVE SMOOTH",
"198 405 OFFCURVE",
"150 366 OFFCURVE",
"128 294 CURVE",
"153 265 LINE",
"168 319 OFFCURVE",
"194 351 OFFCURVE",
"229 351 CURVE SMOOTH",
"277 351 OFFCURVE",
"301 296 OFFCURVE",
"301 198 CURVE SMOOTH",
"301 93 OFFCURVE",
"280 24 OFFCURVE",
"221 24 CURVE SMOOTH",
"187 24 OFFCURVE",
"153 40 OFFCURVE",
"153 81 CURVE SMOOTH",
"153 544 LINE",
"134 552 LINE"
);
}
);
};
layerId = "EA62F474-A0CE-4CDB-8144-A83B4E00D785";
paths = (
{
closed = 1;
nodes = (
"258 485 OFFCURVE",
"198 438 OFFCURVE",
"171 351 CURVE",
"201 317 LINE",
"220 384 OFFCURVE",
"251 420 OFFCURVE",
"291 420 CURVE SMOOTH",
"348 420 OFFCURVE",
"378 356 OFFCURVE",
"378 247 CURVE SMOOTH",
"378 127 OFFCURVE",
"353 33 OFFCURVE",
"282 33 CURVE SMOOTH",
"242 33 OFFCURVE",
"201 52 OFFCURVE",
"201 102 CURVE",
"98 20 LINE",
"153 3 OFFCURVE",
"215 -9 OFFCURVE",
"266 -9 CURVE SMOOTH",
"411 -9 OFFCURVE",
"494 103 OFFCURVE",
"494 271 CURVE SMOOTH",
"494 398 OFFCURVE",
"438 485 OFFCURVE",
"322 485 CURVE SMOOTH"
);
},
{
closed = 1;
nodes = (
"18 455 LINE",
"18 416 LINE",
"91 414 OFFCURVE",
"93 392 OFFCURVE",
"93 338 CURVE SMOOTH",
"93 -73 LINE SMOOTH",
"93 -135 OFFCURVE",
"91 -156 OFFCURVE",
"18 -159 CURVE",
"18 -199 LINE",
"136 -194 OFFCURVE",
"168 -194 OFFCURVE",
"291 -199 CURVE",
"291 -159 LINE",
"203 -156 OFFCURVE",
"201 -135 OFFCURVE",
"201 -73 CURVE SMOOTH",
"201 353 LINE",
"190 370 LINE",
"190 475 LINE",
"167 485 LINE"
);
}
);
width = 519;
},
{
background = {
guideLines = (
{
position = "{369, 207}";
},
{
position = "{312, 190}";
}
);
paths = (
{
closed = 1;
nodes = (
"30 532 LINE",
"30 506 LINE",
"79 506 OFFCURVE",
"88 497 OFFCURVE",
"88 457 CURVE SMOOTH",
"88 11 LINE",
"126 -3 OFFCURVE",
"175 -10 OFFCURVE",
"215 -10 CURVE SMOOTH",
"308 -10 OFFCURVE",
"369 73 OFFCURVE",
"369 207 CURVE SMOOTH",
"369 323 OFFCURVE",
"318 384 OFFCURVE",
"248 384 CURVE SMOOTH",
"202 384 OFFCURVE",
"156 353 OFFCURVE",
"134 286 CURVE",
"141 254 LINE",
"158 309 OFFCURVE",
"191 338 OFFCURVE",
"230 338 CURVE SMOOTH",
"285 338 OFFCURVE",
"310 285 OFFCURVE",
"310 190 CURVE SMOOTH",
"310 88 OFFCURVE",
"288 17 OFFCURVE",
"220 17 CURVE SMOOTH",
"183 17 OFFCURVE",
"143 35 OFFCURVE",
"143 71 CURVE SMOOTH",
"143 545 LINE",
"131 550 LINE"
);
}
);
};
guideLines = (
{
position = "{369, 207}";
},
{
position = "{312, 190}";
}
);
layerId = "B1D0FA45-0BED-409D-9800-57F37CCD9690";
leftMetricsKey = "=i";
rightMetricsKey = "=o";
paths = (
{
closed = 1;
nodes = (
"238 459 OFFCURVE",
"183 415 OFFCURVE",
"160 342 CURVE",
"168 304 LINE",
"189 370 OFFCURVE",
"228 404 OFFCURVE",
"275 404 CURVE SMOOTH",
"334 404 OFFCURVE",
"371 354 OFFCURVE",
"371 227 CURVE SMOOTH",
"371 135 OFFCURVE",
"355 20 OFFCURVE",
"267 20 CURVE SMOOTH",
"211 20 OFFCURVE",
"171 52 OFFCURVE",
"171 115 CURVE",
"164 11 LINE",
"189 -3 OFFCURVE",
"224 -12 OFFCURVE",
"260 -12 CURVE SMOOTH",
"363 -12 OFFCURVE",
"442 83 OFFCURVE",
"442 247 CURVE SMOOTH",
"442 391 OFFCURVE",
"378 459 OFFCURVE",
"293 459 CURVE SMOOTH"
);
},
{
closed = 1;
nodes = (
"36 439 LINE",
"36 408 LINE",
"95 408 OFFCURVE",
"105 397 OFFCURVE",
"105 350 CURVE SMOOTH",
"105 -95 LINE SMOOTH",
"105 -153 OFFCURVE",
"96 -167 OFFCURVE",
"36 -168 CURVE",
"36 -199 LINE",
"139 -194 OFFCURVE",
"139 -194 OFFCURVE",
"251 -199 CURVE",
"251 -168 LINE",
"180 -167 OFFCURVE",
"171 -153 OFFCURVE",
"171 -95 CURVE SMOOTH",
"171 331 LINE",
"167 336 LINE",
"167 454 LINE",
"152 459 LINE"
);
}
);
width = 482;
}
);
leftKerningGroup = p;
leftMetricsKey = i;
rightKerningGroup = o;
rightMetricsKey = o;
unicode = 0070;
},
{
glyphname = thorn;
layers = (
{
layerId = "B1D0FA45-0BED-409D-9800-57F37CCD9690";
paths = (
{
closed = 1;
nodes = (
"36 637 LINE",
"36 606 LINE",
"95 606 OFFCURVE",
"105 595 OFFCURVE",
"105 547 CURVE SMOOTH",
"105 -95 LINE SMOOTH",
"105 -153 OFFCURVE",
"96 -167 OFFCURVE",
"36 -168 CURVE",
"36 -199 LINE",
"139 -194 OFFCURVE",
"139 -194 OFFCURVE",
"251 -199 CURVE",
"251 -168 LINE",
"180 -167 OFFCURVE",
"171 -153 OFFCURVE",
"171 -95 CURVE SMOOTH",
"171 7 LINE",
"195 -4 OFFCURVE",
"227 -12 OFFCURVE",
"260 -12 CURVE SMOOTH",
"360 -12 OFFCURVE",
"442 83 OFFCURVE",
"442 247 CURVE SMOOTH",
"442 391 OFFCURVE",
"382 459 OFFCURVE",
"288 459 CURVE SMOOTH",
"238 459 OFFCURVE",
"192 423 OFFCURVE",
"171 365 CURVE",
"171 652 LINE",
"156 658 LINE"
);
},
{
closed = 1;
nodes = (
"334 404 OFFCURVE",
"374 354 OFFCURVE",
"374 227 CURVE SMOOTH",
"374 135 OFFCURVE",
"355 20 OFFCURVE",
"267 20 CURVE SMOOTH",
"211 20 OFFCURVE",
"171 52 OFFCURVE",
"171 115 CURVE SMOOTH",
"171 302 LINE",
"182 365 OFFCURVE",
"228 404 OFFCURVE",
"272 404 CURVE SMOOTH"
);
}
);
width = 482;
},
{
layerId = "EA62F474-A0CE-4CDB-8144-A83B4E00D785";
paths = (
{
closed = 1;
nodes = (
"18 627 LINE",
"18 589 LINE",
"91 586 OFFCURVE",
"93 565 OFFCURVE",
"93 510 CURVE SMOOTH",
"93 -73 LINE SMOOTH",
"93 -135 OFFCURVE",
"91 -156 OFFCURVE",
"18 -159 CURVE",
"18 -199 LINE",
"136 -194 OFFCURVE",
"168 -194 OFFCURVE",
"291 -199 CURVE",
"291 -159 LINE",
"203 -156 OFFCURVE",
"201 -135 OFFCURVE",
"201 -73 CURVE SMOOTH",
"201 -5 LINE",
"224 -7 OFFCURVE",
"246 -9 OFFCURVE",
"266 -9 CURVE SMOOTH",
"411 -9 OFFCURVE",
"494 103 OFFCURVE",
"494 271 CURVE SMOOTH",
"494 398 OFFCURVE",
"438 485 OFFCURVE",
"322 485 CURVE SMOOTH",
"275 485 OFFCURVE",
"232 461 OFFCURVE",
"201 415 CURVE",
"201 649 LINE",
"178 658 LINE"
);
},
{
closed = 1;
nodes = (
"348 420 OFFCURVE",
"378 356 OFFCURVE",
"378 247 CURVE SMOOTH",
"378 127 OFFCURVE",
"353 33 OFFCURVE",
"282 33 CURVE SMOOTH",
"242 33 OFFCURVE",
"201 52 OFFCURVE",
"201 102 CURVE SMOOTH",
"201 317 LINE",
"220 384 OFFCURVE",
"251 420 OFFCURVE",
"291 420 CURVE SMOOTH"
);
}
);
width = 519;
}
);
leftMetricsKey = l;
rightKerningGroup = o;
rightMetricsKey = p;
unicode = 00FE;
},
{
glyphname = q;
layers = (
{
background = {
paths = (
{
closed = 1;
nodes = (
"129 24 OFFCURVE",
"103 96 OFFCURVE",
"103 187 CURVE SMOOTH",
"103 310 OFFCURVE",
"120 369 OFFCURVE",
"166 369 CURVE SMOOTH",
"220 369 OFFCURVE",
"242 300 OFFCURVE",
"242 209 CURVE SMOOTH",
"242 86 OFFCURVE",
"221 24 OFFCURVE",
"183 24 CURVE SMOOTH"
);
},
{
closed = 1;
nodes = (
"261 -12 OFFCURVE",
"338 61 OFFCURVE",
"338 218 CURVE SMOOTH",
"338 340 OFFCURVE",
"284 405 OFFCURVE",
"181 405 CURVE SMOOTH",
"84 405 OFFCURVE",
"7 333 OFFCURVE",
"7 177 CURVE SMOOTH",
"7 57 OFFCURVE",
"61 -12 OFFCURVE",
"164 -12 CURVE SMOOTH"
);
}
);
};
guideLines = (
{
position = "{107, -8}";
}
);
layerId = "EA62F474-A0CE-4CDB-8144-A83B4E00D785";
paths = (
{
closed = 1;
nodes = (
"392 502 LINE",
"383 479 OFFCURVE",
"370 459 OFFCURVE",
"339 459 CURVE SMOOTH",
"310 459 OFFCURVE",
"287 485 OFFCURVE",
"224 485 CURVE SMOOTH",
"128 485 OFFCURVE",
"27 401 OFFCURVE",
"27 216 CURVE SMOOTH",
"27 78 OFFCURVE",
"88 -9 OFFCURVE",
"202 -9 CURVE SMOOTH",
"267 -9 OFFCURVE",
"323 32 OFFCURVE",
"350 109 CURVE",
"326 114 OFFCURVE",
"319 148 OFFCURVE",
"319 148 CURVE",
"302 81 OFFCURVE",
"270 45 OFFCURVE",
"230 45 CURVE SMOOTH",
"172 45 OFFCURVE",
"143 112 OFFCURVE",
"143 234 CURVE SMOOTH",
"143 362 OFFCURVE",
"167 443 OFFCURVE",
"231 443 CURVE SMOOTH",
"283 443 OFFCURVE",
"319 415 OFFCURVE",
"319 362 CURVE SMOOTH",
"319 -73 LINE SMOOTH",
"319 -135 OFFCURVE",
"317 -156 OFFCURVE",
"230 -159 CURVE",
"230 -199 LINE",
"351 -194 OFFCURVE",
"404 -192 OFFCURVE",
"498 -199 CURVE",
"498 -159 LINE",
"425 -156 OFFCURVE",
"422 -135 OFFCURVE",
"422 -73 CURVE SMOOTH",
"422 502 LINE"
);
}
);
width = 486;
},
{
background = {
paths = (
{
closed = 1;
nodes = (
"202 532 LINE",
"202 507 LINE",
"251 507 OFFCURVE",
"260 498 OFFCURVE",
"260 458 CURVE SMOOTH",
"260 97 LINE",
"264 93 LINE",
"264 -5 LINE",
"276 -10 LINE",
"373 7 LINE",
"373 33 LINE",
"324 33 OFFCURVE",
"315 42 OFFCURVE",
"315 82 CURVE SMOOTH",
"315 545 LINE",
"303 550 LINE"
);
},
{
closed = 1;
nodes = (
"109 384 OFFCURVE",
"33 319 OFFCURVE",
"33 167 CURVE",
"33 51 OFFCURVE",
"84 -10 OFFCURVE",
"154 -10 CURVE SMOOTH",
"200 -10 OFFCURVE",
"246 21 OFFCURVE",
"268 88 CURVE",
"261 120 LINE",
"244 65 OFFCURVE",
"211 36 OFFCURVE",
"172 36 CURVE SMOOTH",
"117 36 OFFCURVE",
"92 89 OFFCURVE",
"92 184 CURVE",
"92 264 OFFCURVE",
"102 357 OFFCURVE",
"187 357 CURVE SMOOTH",
"234 357 OFFCURVE",
"260 330 OFFCURVE",
"260 277 CURVE",
"273 365 LINE",
"252 376 OFFCURVE",
"223 384 OFFCURVE",
"192 384 CURVE SMOOTH"
);
}
);
};
guideLines = (
{
position = "{34, 167}";
},
{
position = "{91, 184}";
}
);
layerId = "B1D0FA45-0BED-409D-9800-57F37CCD9690";
leftMetricsKey = "=o";
paths = (
{
closed = 1;
nodes = (
"350 470 LINE",
"346 451 OFFCURVE",
"339 423 OFFCURVE",
"330 423 CURVE SMOOTH",
"318 423 OFFCURVE",
"290 459 OFFCURVE",
"226 459 CURVE SMOOTH",
"129 459 OFFCURVE",
"40 378 OFFCURVE",
"40 200 CURVE SMOOTH",
"40 72 OFFCURVE",
"91 -12 OFFCURVE",
"187 -12 CURVE SMOOTH",
"255 -12 OFFCURVE",
"306 51 OFFCURVE",
"320 107 CURVE",
"320 107 OFFCURVE",
"312 147 OFFCURVE",
"312 147 CURVE",
"298 84 OFFCURVE",
"252 43 OFFCURVE",
"208 43 CURVE SMOOTH",
"139 43 OFFCURVE",
"110 107 OFFCURVE",
"110 220 CURVE SMOOTH",
"110 329 OFFCURVE",
"131 427 OFFCURVE",
"222 427 CURVE SMOOTH",
"278 427 OFFCURVE",
"311 396 OFFCURVE",
"311 339 CURVE SMOOTH",
"311 -95 LINE SMOOTH",
"311 -153 OFFCURVE",
"302 -167 OFFCURVE",
"231 -168 CURVE",
"231 -199 LINE",
"343 -194 OFFCURVE",
"343 -194 OFFCURVE",
"446 -199 CURVE",
"446 -168 LINE",
"386 -167 OFFCURVE",
"377 -153 OFFCURVE",
"377 -95 CURVE SMOOTH",
"377 470 LINE"
);
}
);
width = 443;
}
);
leftKerningGroup = o;
leftMetricsKey = o;
unicode = 0071;
},
{
glyphname = r;
layers = (
{
background = {
paths = (
{
closed = 1;
nodes = (
"130 524 LINE",
"0 499 LINE",
"0 467 LINE",
"35 467 OFFCURVE",
"41 463 OFFCURVE",
"52 451 CURVE",
"60 440 OFFCURVE",
"63 427 OFFCURVE",
"63 401 CURVE",
"63 86 LINE SMOOTH",
"63 56 OFFCURVE",
"64 29 OFFCURVE",
"55 21 CURVE",
"44 12 OFFCURVE",
"32 5 OFFCURVE",
"0 4 CURVE",
"0 -29 LINE",
"108 -23 OFFCURVE",
"106 -23 OFFCURVE",
"214 -29 CURVE",
"214 4 LINE",
"182 5 OFFCURVE",
"172 12 OFFCURVE",
"161 21 CURVE",
"152 29 OFFCURVE",
"153 56 OFFCURVE",
"153 86 CURVE SMOOTH",
"153 269 LINE",
"149 283 LINE",
"149 516 LINE"
);
},
{
closed = 1;
nodes = (
"300 56 OFFCURVE",
"301 29 OFFCURVE",
"292 21 CURVE",
"281 12 OFFCURVE",
"271 5 OFFCURVE",
"239 4 CURVE",
"239 -29 LINE",
"347 -23 OFFCURVE",
"345 -23 OFFCURVE",
"453 -29 CURVE",
"453 4 LINE",
"421 5 OFFCURVE",
"409 12 OFFCURVE",
"398 21 CURVE",
"389 29 OFFCURVE",
"390 56 OFFCURVE",
"390 86 CURVE SMOOTH",
"390 272 LINE SMOOTH",
"390 345 OFFCURVE",
"344 379 OFFCURVE",
"279 379 CURVE SMOOTH",
"223 379 OFFCURVE",
"155 336 OFFCURVE",
"129 258 CURVE",
"131 257 OFFCURVE",
"140 230 OFFCURVE",
"140 230 CURVE",
"161 276 OFFCURVE",
"200 317 OFFCURVE",
"242 317 CURVE SMOOTH",
"273 317 OFFCURVE",
"300 300 OFFCURVE",
"300 257 CURVE SMOOTH",
"300 86 LINE SMOOTH"
);
}
);
};
layerId = "EA62F474-A0CE-4CDB-8144-A83B4E00D785";
paths = (
{
closed = 1;
nodes = (
"18 454 LINE",
"18 416 LINE",
"91 414 OFFCURVE",
"93 392 OFFCURVE",
"93 338 CURVE",
"93 123 LINE",
"93 61 OFFCURVE",
"91 40 OFFCURVE",
"18 37 CURVE",
"18 -3 LINE",
"141 3 OFFCURVE",
"164 3 OFFCURVE",
"291 -3 CURVE",
"291 37 LINE",
"203 40 OFFCURVE",
"201 61 OFFCURVE",
"201 123 CURVE",
"201 353 LINE",
"196 350 LINE",
"196 475 LINE",
"174 485 LINE"
);
},
{
closed = 1;
nodes = (
"244 485 OFFCURVE",
"199 394 OFFCURVE",
"175 307 CURVE",
"174 306 OFFCURVE",
"189 263 OFFCURVE",
"189 263 CURVE",
"214 354 OFFCURVE",
"259 382 OFFCURVE",
"294 382 CURVE SMOOTH",
"314 382 OFFCURVE",
"330 374 OFFCURVE",
"332 359 CURVE",
"367 359 LINE",
"370 362 OFFCURVE",
"378 475 OFFCURVE",
"378 475 CURVE",
"362 483 OFFCURVE",
"346 485 OFFCURVE",
"331 485 CURVE SMOOTH"
);
}
);
width = 391;
},
{
background = {
paths = (
{
closed = 1;
nodes = (
"30 367 LINE",
"30 341 LINE",
"79 341 OFFCURVE",
"88 332 OFFCURVE",
"88 292 CURVE",
"88 85 LINE",
"88 36 OFFCURVE",
"80 25 OFFCURVE",
"30 23 CURVE",
"30 -2 LINE",
"116 2 OFFCURVE",
"116 2 OFFCURVE",
"210 -2 CURVE",
"210 23 LINE",
"151 25 OFFCURVE",
"143 36 OFFCURVE",
"143 85 CURVE",
"143 267 LINE",
"139 263 LINE",
"139 379 LINE",
"127 384 LINE"
);
},
{
closed = 1;
nodes = (
"187 384 OFFCURVE",
"149 315 OFFCURVE",
"133 258 CURVE",
"132 257 OFFCURVE",
"143 236 OFFCURVE",
"143 236 CURVE",
"162 302 OFFCURVE",
"194 317 OFFCURVE",
"220 317 CURVE SMOOTH",
"233 317 OFFCURVE",
"244 311 OFFCURVE",
"246 302 CURVE",
"270 302 LINE",
"271 303 OFFCURVE",
"277 378 OFFCURVE",
"277 378 CURVE",
"266 383 OFFCURVE",
"255 384 OFFCURVE",
"245 384 CURVE SMOOTH"
);
}
);
};
guideLines = (
{
angle = 90;
position = "{30, 167}";
}
);
layerId = "B1D0FA45-0BED-409D-9800-57F37CCD9690";
leftMetricsKey = "=n";
paths = (
{
closed = 1;
nodes = (
"36 439 LINE",
"36 408 LINE",
"95 408 OFFCURVE",
"105 397 OFFCURVE",
"105 350 CURVE",
"105 102 LINE",
"105 43 OFFCURVE",
"96 30 OFFCURVE",
"36 28 CURVE",
"36 -3 LINE",
"139 3 OFFCURVE",
"139 3 OFFCURVE",
"251 -3 CURVE",
"251 28 LINE",
"180 30 OFFCURVE",
"171 43 OFFCURVE",
"171 102 CURVE",
"171 319 LINE",
"167 315 LINE",
"167 454 LINE",
"152 459 LINE"
);
},
{
closed = 1;
nodes = (
"224 459 OFFCURVE",
"187 385 OFFCURVE",
"159 317 CURVE",
"158 316 OFFCURVE",
"171 282 OFFCURVE",
"171 282 CURVE",
"194 362 OFFCURVE",
"232 379 OFFCURVE",
"263 379 CURVE SMOOTH",
"279 379 OFFCURVE",
"292 372 OFFCURVE",
"294 362 CURVE",
"323 362 LINE",
"324 362 OFFCURVE",
"331 452 OFFCURVE",
"331 452 CURVE",
"318 458 OFFCURVE",
"305 459 OFFCURVE",
"293 459 CURVE SMOOTH"
);
}
);
width = 355;
}
);
leftKerningGroup = n;
leftMetricsKey = n;
unicode = 0072;
},
{
glyphname = s;
layers = (
{
anchors = (
{
name = top;
position = "{198, 497}";
}
);
background = {
paths = (
{
closed = 1;
nodes = (
"85 405 OFFCURVE",
"18 376 OFFCURVE",
"18 289 CURVE SMOOTH",
"18 212 OFFCURVE",
"64 185 OFFCURVE",
"108 167 CURVE SMOOTH",
"148 151 OFFCURVE",
"189 133 OFFCURVE",
"189 83 CURVE SMOOTH",
"189 47 OFFCURVE",
"164 23 OFFCURVE",
"131 23 CURVE SMOOTH",
"86 23 OFFCURVE",
"62 61 OFFCURVE",
"51 125 CURVE",
"51 125 OFFCURVE",
"11 125 OFFCURVE",
"11 125 CURVE",
"15 84 OFFCURVE",
"15 50 OFFCURVE",
"15 12 CURVE",
"53 -3 OFFCURVE",
"93 -12 OFFCURVE",
"132 -12 CURVE SMOOTH",
"207 -12 OFFCURVE",
"274 20 OFFCURVE",
"274 112 CURVE SMOOTH",
"274 188 OFFCURVE",
"227 214 OFFCURVE",
"183 232 CURVE SMOOTH",
"142 249 OFFCURVE",
"101 266 OFFCURVE",
"101 315 CURVE SMOOTH",
"101 350 OFFCURVE",
"126 370 OFFCURVE",
"155 370 CURVE SMOOTH",
"197 370 OFFCURVE",
"211 343 OFFCURVE",
"222 285 CURVE",
"253 285 LINE",
"253 321 OFFCURVE",
"255 350 OFFCURVE",
"260 380 CURVE",
"230 396 OFFCURVE",
"191 405 OFFCURVE",
"152 405 CURVE SMOOTH"
);
}
);
};
guideLines = (
{
angle = 90;
position = "{-11, 153}";
}
);
layerId = "EA62F474-A0CE-4CDB-8144-A83B4E00D785";
paths = (
{
closed = 1;
nodes = (
"129 485 OFFCURVE",
"33 450 OFFCURVE",
"33 346 CURVE SMOOTH",
"33 254 OFFCURVE",
"91 222 OFFCURVE",
"144 200 CURVE SMOOTH",
"194 180 OFFCURVE",
"244 159 OFFCURVE",
"244 99 CURVE SMOOTH",
"244 56 OFFCURVE",
"215 28 OFFCURVE",
"175 28 CURVE SMOOTH",
"119 28 OFFCURVE",
"88 73 OFFCURVE",
"75 150 CURVE",
"75 150 OFFCURVE",
"25 150 OFFCURVE",
"25 150 CURVE",
"30 100 OFFCURVE",
"30 60 OFFCURVE",
"30 15 CURVE",
"76 -4 OFFCURVE",
"114 -15 OFFCURVE",
"162 -15 CURVE SMOOTH",
"259 -15 OFFCURVE",
"350 24 OFFCURVE",
"350 134 CURVE SMOOTH",
"350 222 OFFCURVE",
"292 256 OFFCURVE",
"236 278 CURVE SMOOTH",
"187 298 OFFCURVE",
"134 318 OFFCURVE",
"134 377 CURVE SMOOTH",
"134 419 OFFCURVE",
"162 443 OFFCURVE",
"198 443 CURVE SMOOTH",
"246 443 OFFCURVE",
"270 396 OFFCURVE",
"282 336 CURVE",
"323 336 LINE",
"323 379 OFFCURVE",
"326 419 OFFCURVE",
"332 454 CURVE",
"295 474 OFFCURVE",
"259 485 OFFCURVE",
"212 485 CURVE SMOOTH"
);
}
);
width = 379;
},
{
anchors = (
{
name = top;
position = "{183, 478}";
}
);
background = {
paths = (
{
closed = 1;
nodes = (
"104 384 OFFCURVE",
"38 358 OFFCURVE",
"38 282 CURVE SMOOTH",
"38 217 OFFCURVE",
"90 187 OFFCURVE",
"129 169 CURVE SMOOTH",
"175 148 OFFCURVE",
"208 133 OFFCURVE",
"208 85 CURVE SMOOTH",
"208 46 OFFCURVE",
"180 16 OFFCURVE",
"144 16 CURVE SMOOTH",
"87 16 OFFCURVE",
"68 56 OFFCURVE",
"54 117 CURVE",
"54 117 OFFCURVE",
"25 117 OFFCURVE",
"25 117 CURVE",
"29 83 OFFCURVE",
"31 48 OFFCURVE",
"31 13 CURVE",
"64 -2 OFFCURVE",
"95 -10 OFFCURVE",
"130 -10 CURVE SMOOTH",
"197 -10 OFFCURVE",
"260 21 OFFCURVE",
"260 103 CURVE SMOOTH",
"260 164 OFFCURVE",
"219 193 OFFCURVE",
"171 214 CURVE SMOOTH",
"135 230 OFFCURVE",
"89 252 OFFCURVE",
"89 295 CURVE SMOOTH",
"89 333 OFFCURVE",
"116 358 OFFCURVE",
"151 358 CURVE SMOOTH",
"195 358 OFFCURVE",
"215 326 OFFCURVE",
"215 272 CURVE",
"244 272 LINE",
"244 303 OFFCURVE",
"245 334 OFFCURVE",
"250 362 CURVE",
"224 375 OFFCURVE",
"198 384 OFFCURVE",
"163 384 CURVE SMOOTH"
);
}
);
};
layerId = "B1D0FA45-0BED-409D-9800-57F37CCD9690";
paths = (
{
closed = 1;
nodes = (
"124 459 OFFCURVE",
"45 428 OFFCURVE",
"45 338 CURVE SMOOTH",
"45 259 OFFCURVE",
"108 224 OFFCURVE",
"155 202 CURVE SMOOTH",
"210 177 OFFCURVE",
"248 159 OFFCURVE",
"248 102 CURVE SMOOTH",
"248 55 OFFCURVE",
"215 19 OFFCURVE",
"172 19 CURVE SMOOTH",
"114 19 OFFCURVE",
"81 67 OFFCURVE",
"64 140 CURVE",
"64 140 OFFCURVE",
"30 140 OFFCURVE",
"30 140 CURVE",
"35 99 OFFCURVE",
"37 57 OFFCURVE",
"37 16 CURVE",
"76 -3 OFFCURVE",
"114 -12 OFFCURVE",
"155 -12 CURVE SMOOTH",
"236 -12 OFFCURVE",
"311 25 OFFCURVE",
"311 123 CURVE SMOOTH",
"311 196 OFFCURVE",
"262 231 OFFCURVE",
"204 256 CURVE SMOOTH",
"162 275 OFFCURVE",
"107 302 OFFCURVE",
"107 353 CURVE SMOOTH",
"107 398 OFFCURVE",
"139 428 OFFCURVE",
"180 428 CURVE SMOOTH",
"227 428 OFFCURVE",
"258 382 OFFCURVE",
"258 326 CURVE",
"292 326 LINE",
"292 362 OFFCURVE",
"293 399 OFFCURVE",
"299 433 CURVE",
"268 449 OFFCURVE",
"236 459 OFFCURVE",
"195 459 CURVE SMOOTH"
);
}
);
width = 347;
}
);
leftKerningGroup = s;
rightKerningGroup = s;
unicode = 0073;
},
{
glyphname = germandbls;
layers = (
{
background = {
paths = (
{
closed = 1;
nodes = (
"274 384 OFFCURVE",
"208 358 OFFCURVE",
"208 282 CURVE SMOOTH",
"208 217 OFFCURVE",
"260 187 OFFCURVE",
"299 169 CURVE SMOOTH",
"345 148 OFFCURVE",
"378 133 OFFCURVE",
"378 85 CURVE SMOOTH",
"378 46 OFFCURVE",
"350 16 OFFCURVE",
"314 16 CURVE SMOOTH",
"257 16 OFFCURVE",
"238 56 OFFCURVE",
"224 117 CURVE",
"224 117 OFFCURVE",
"195 117 OFFCURVE",
"195 117 CURVE",
"199 83 OFFCURVE",
"201 48 OFFCURVE",
"201 13 CURVE",
"234 -2 OFFCURVE",
"265 -10 OFFCURVE",
"300 -10 CURVE SMOOTH",
"367 -10 OFFCURVE",
"430 21 OFFCURVE",
"430 103 CURVE SMOOTH",
"430 164 OFFCURVE",
"389 193 OFFCURVE",
"341 214 CURVE SMOOTH",
"305 230 OFFCURVE",
"259 252 OFFCURVE",
"259 295 CURVE SMOOTH",
"259 333 OFFCURVE",
"286 358 OFFCURVE",
"321 358 CURVE SMOOTH",
"365 358 OFFCURVE",
"385 326 OFFCURVE",
"385 272 CURVE",
"414 272 LINE",
"414 303 OFFCURVE",
"415 334 OFFCURVE",
"420 362 CURVE",
"394 375 OFFCURVE",
"368 384 OFFCURVE",
"333 384 CURVE SMOOTH"
);
},
{
closed = 1;
nodes = (
"153 550 OFFCURVE",
"80 488 OFFCURVE",
"80 384 CURVE SMOOTH",
"80 85 LINE SMOOTH",
"80 36 OFFCURVE",
"72 25 OFFCURVE",
"22 23 CURVE",
"22 -2 LINE",
"108 2 OFFCURVE",
"108 2 OFFCURVE",
"135 1 CURVE",
"135 407 LINE SMOOTH",
"135 504 OFFCURVE",
"192 519 OFFCURVE",
"230 519 CURVE SMOOTH",
"264 519 OFFCURVE",
"302 491 OFFCURVE",
"302 438 CURVE SMOOTH",
"302 411 OFFCURVE",
"290 393 OFFCURVE",
"274 377 CURVE SMOOTH",
"248 350 OFFCURVE",
"213 329 OFFCURVE",
"213 282 CURVE SMOOTH",
"213 221 OFFCURVE",
"262 184 OFFCURVE",
"301 167 CURVE SMOOTH",
"342 149 OFFCURVE",
"378 137 OFFCURVE",
"378 85 CURVE SMOOTH",
"378 46 OFFCURVE",
"350 16 OFFCURVE",
"314 16 CURVE SMOOTH",
"257 16 OFFCURVE",
"238 56 OFFCURVE",
"224 117 CURVE",
"224 117 OFFCURVE",
"195 117 OFFCURVE",
"195 117 CURVE",
"199 83 OFFCURVE",
"201 48 OFFCURVE",
"201 13 CURVE",
"234 -2 OFFCURVE",
"265 -10 OFFCURVE",
"300 -10 CURVE SMOOTH",
"367 -10 OFFCURVE",
"430 21 OFFCURVE",
"430 103 CURVE SMOOTH",
"430 164 OFFCURVE",
"384 195 OFFCURVE",
"342 214 CURVE SMOOTH",
"307 230 OFFCURVE",
"266 248 OFFCURVE",
"266 295 CURVE SMOOTH",
"266 324 OFFCURVE",
"283 341 OFFCURVE",
"302 358 CURVE SMOOTH",
"325 378 OFFCURVE",
"352 399 OFFCURVE",
"352 444 CURVE SMOOTH",
"352 512 OFFCURVE",
"306 550 OFFCURVE",
"243 550 CURVE SMOOTH"
);
}
);
};
layerId = "B1D0FA45-0BED-409D-9800-57F37CCD9690";
leftMetricsKey = "=f-10";
rightMetricsKey = "=s-15";
paths = (
{
closed = 1;
nodes = (
"182 658 OFFCURVE",
"95 583 OFFCURVE",
"95 459 CURVE SMOOTH",
"95 102 LINE SMOOTH",
"95 43 OFFCURVE",
"86 30 OFFCURVE",
"26 28 CURVE",
"26 -3 LINE",
"129 3 OFFCURVE",
"129 3 OFFCURVE",
"161 1 CURVE",
"161 487 LINE SMOOTH",
"161 603 OFFCURVE",
"229 621 OFFCURVE",
"274 621 CURVE SMOOTH",
"329 621 OFFCURVE",
"361 587 OFFCURVE",
"361 523 CURVE SMOOTH",
"361 491 OFFCURVE",
"346 470 OFFCURVE",
"328 451 CURVE SMOOTH",
"296 419 OFFCURVE",
"254 394 OFFCURVE",
"254 338 CURVE SMOOTH",
"254 264 OFFCURVE",
"313 220 OFFCURVE",
"360 200 CURVE SMOOTH",
"409 178 OFFCURVE",
"452 164 OFFCURVE",
"452 102 CURVE SMOOTH",
"452 55 OFFCURVE",
"418 19 OFFCURVE",
"376 19 CURVE SMOOTH",
"307 19 OFFCURVE",
"284 67 OFFCURVE",
"268 140 CURVE",
"268 140 OFFCURVE",
"233 140 OFFCURVE",
"233 140 CURVE",
"238 99 OFFCURVE",
"240 57 OFFCURVE",
"240 16 CURVE",
"280 -3 OFFCURVE",
"317 -12 OFFCURVE",
"358 -12 CURVE SMOOTH",
"439 -12 OFFCURVE",
"514 25 OFFCURVE",
"514 123 CURVE SMOOTH",
"514 196 OFFCURVE",
"459 234 OFFCURVE",
"409 256 CURVE SMOOTH",
"367 275 OFFCURVE",
"318 296 OFFCURVE",
"318 353 CURVE SMOOTH",
"318 387 OFFCURVE",
"338 408 OFFCURVE",
"361 428 CURVE SMOOTH",
"388 452 OFFCURVE",
"421 479 OFFCURVE",
"421 538 CURVE SMOOTH",
"421 619 OFFCURVE",
"353 658 OFFCURVE",
"290 658 CURVE SMOOTH"
);
}
);
width = 535;
},
{
background = {
paths = (
{
closed = 1;
nodes = (
"165 550 OFFCURVE",
"92 488 OFFCURVE",
"92 384 CURVE SMOOTH",
"92 85 LINE SMOOTH",
"92 36 OFFCURVE",
"84 25 OFFCURVE",
"34 23 CURVE",
"34 -2 LINE",
"120 2 OFFCURVE",
"120 2 OFFCURVE",
"147 1 CURVE",
"147 407 LINE SMOOTH",
"147 504 OFFCURVE",
"204 519 OFFCURVE",
"242 519 CURVE SMOOTH",
"287 519 OFFCURVE",
"314 491 OFFCURVE",
"314 438 CURVE SMOOTH",
"314 411 OFFCURVE",
"302 393 OFFCURVE",
"286 377 CURVE SMOOTH",
"260 350 OFFCURVE",
"225 329 OFFCURVE",
"225 282 CURVE SMOOTH",
"225 221 OFFCURVE",
"274 184 OFFCURVE",
"313 167 CURVE SMOOTH",
"354 149 OFFCURVE",
"390 137 OFFCURVE",
"390 85 CURVE SMOOTH",
"390 46 OFFCURVE",
"362 16 OFFCURVE",
"326 16 CURVE SMOOTH",
"269 16 OFFCURVE",
"250 56 OFFCURVE",
"236 117 CURVE",
"236 117 OFFCURVE",
"207 117 OFFCURVE",
"207 117 CURVE",
"211 83 OFFCURVE",
"213 48 OFFCURVE",
"213 13 CURVE",
"246 -2 OFFCURVE",
"277 -10 OFFCURVE",
"312 -10 CURVE SMOOTH",
"379 -10 OFFCURVE",
"442 21 OFFCURVE",
"442 103 CURVE SMOOTH",
"442 164 OFFCURVE",
"396 195 OFFCURVE",
"354 214 CURVE SMOOTH",
"319 230 OFFCURVE",
"278 248 OFFCURVE",
"278 295 CURVE SMOOTH",
"278 324 OFFCURVE",
"295 341 OFFCURVE",
"314 358 CURVE SMOOTH",
"337 378 OFFCURVE",
"364 401 OFFCURVE",
"364 450 CURVE SMOOTH",
"364 518 OFFCURVE",
"308 550 OFFCURVE",
"255 550 CURVE SMOOTH"
);
}
);
};
layerId = "EA62F474-A0CE-4CDB-8144-A83B4E00D785";
paths = (
{
closed = 1;
nodes = (
"140 658 OFFCURVE",
"83 581 OFFCURVE",
"83 495 CURVE SMOOTH",
"83 123 LINE SMOOTH",
"83 61 OFFCURVE",
"81 40 OFFCURVE",
"8 37 CURVE",
"8 -3 LINE",
"65 -1 OFFCURVE",
"109 0 OFFCURVE",
"191 0 CURVE",
"191 505 LINE SMOOTH",
"191 587 OFFCURVE",
"222 611 OFFCURVE",
"268 611 CURVE SMOOTH",
"307 611 OFFCURVE",
"340 586 OFFCURVE",
"340 534 CURVE SMOOTH",
"340 507 OFFCURVE",
"331 489 OFFCURVE",
"319 475 CURVE SMOOTH",
"293 442 OFFCURVE",
"252 421 OFFCURVE",
"252 346 CURVE SMOOTH",
"252 254 OFFCURVE",
"306 222 OFFCURVE",
"358 200 CURVE SMOOTH",
"406 180 OFFCURVE",
"456 159 OFFCURVE",
"456 99 CURVE SMOOTH",
"456 56 OFFCURVE",
"427 28 OFFCURVE",
"387 28 CURVE SMOOTH",
"333 28 OFFCURVE",
"304 73 OFFCURVE",
"290 150 CURVE",
"290 150 OFFCURVE",
"242 150 OFFCURVE",
"242 150 CURVE",
"248 100 OFFCURVE",
"248 60 OFFCURVE",
"248 15 CURVE",
"293 -4 OFFCURVE",
"329 -15 OFFCURVE",
"376 -15 CURVE SMOOTH",
"468 -15 OFFCURVE",
"557 24 OFFCURVE",
"557 134 CURVE SMOOTH",
"557 224 OFFCURVE",
"501 256 OFFCURVE",
"448 278 CURVE SMOOTH",
"399 298 OFFCURVE",
"350 318 OFFCURVE",
"350 377 CURVE SMOOTH",
"350 411 OFFCURVE",
"373 431 OFFCURVE",
"394 454 CURVE SMOOTH",
"415 476 OFFCURVE",
"435 501 OFFCURVE",
"435 546 CURVE SMOOTH",
"435 601 OFFCURVE",
"388 658 OFFCURVE",
"262 658 CURVE SMOOTH"
);
}
);
width = 576;
}
);
leftMetricsKey = "=f-10";
rightKerningGroup = s;
rightMetricsKey = "=s-10";
unicode = 00DF;
},
{
glyphname = t;
layers = (
{
layerId = "EA62F474-A0CE-4CDB-8144-A83B4E00D785";
paths = (
{
closed = 1;
nodes = (
"132 604 LINE",
"88 489 LINE",
"12 459 LINE",
"88 450 LINE",
"88 132 LINE SMOOTH",
"88 52 OFFCURVE",
"105 -15 OFFCURVE",
"189 -15 CURVE SMOOTH",
"230 -15 OFFCURVE",
"279 -6 OFFCURVE",
"329 30 CURVE",
"312 66 LINE",
"290 55 OFFCURVE",
"272 51 OFFCURVE",
"247 51 CURVE SMOOTH",
"201 51 OFFCURVE",
"196 100 OFFCURVE",
"196 156 CURVE SMOOTH",
"196 604 LINE"
);
},
{
closed = 1;
nodes = (
"148 470 LINE",
"12 459 LINE",
"12 422 LINE",
"316 422 LINE",
"316 470 LINE"
);
}
);
width = 342;
},
{
background = {
paths = (
{
closed = 1;
nodes = (
"229 374 LINE",
"229 344 LINE",
"23 344 LINE",
"23 360 LINE",
"81 374 LINE"
);
},
{
closed = 1;
nodes = (
"136 35 OFFCURVE",
"144 24 OFFCURVE",
"203 22 CURVE",
"203 -3 LINE",
"109 1 OFFCURVE",
"109 1 OFFCURVE",
"23 -3 CURVE",
"23 22 LINE",
"73 24 OFFCURVE",
"81 35 OFFCURVE",
"81 84 CURVE",
"81 414 LINE SMOOTH",
"81 473 OFFCURVE",
"102 550 OFFCURVE",
"184 550 CURVE SMOOTH",
"222 550 OFFCURVE",
"231 546 OFFCURVE",
"263 538 CURVE",
"263 449 LINE",
"231 449 LINE",
"231 496 OFFCURVE",
"218 520 OFFCURVE",
"183 520 CURVE SMOOTH",
"141 520 OFFCURVE",
"136 475 OFFCURVE",
"136 440 CURVE SMOOTH",
"136 84 LINE"
);
}
);
};
guideLines = (
{
angle = 90;
position = "{256, 284}";
}
);
layerId = "B1D0FA45-0BED-409D-9800-57F37CCD9690";
paths = (
{
closed = 1;
nodes = (
"128 574 LINE",
"97 447 LINE",
"28 431 LINE",
"100 435 LINE",
"100 107 LINE SMOOTH",
"100 42 OFFCURVE",
"115 -12 OFFCURVE",
"182 -12 CURVE SMOOTH",
"214 -12 OFFCURVE",
"251 -1 OFFCURVE",
"292 40 CURVE",
"282 60 LINE",
"258 47 OFFCURVE",
"242 40 OFFCURVE",
"214 40 CURVE SMOOTH",
"174 40 OFFCURVE",
"167 81 OFFCURVE",
"167 123 CURVE SMOOTH",
"167 574 LINE"
);
},
{
closed = 1;
nodes = (
"136 447 LINE",
"28 431 LINE",
"28 408 LINE",
"274 408 LINE",
"274 447 LINE"
);
}
);
width = 322;
}
);
unicode = 0074;
},
{
glyphname = u;
layers = (
{
anchors = (
{
name = top;
position = "{266, 497}";
}
);
background = {
paths = (
{
closed = 1;
nodes = (
"319 -157 LINE",
"449 -132 LINE",
"449 -100 LINE",
"414 -100 OFFCURVE",
"408 -96 OFFCURVE",
"397 -84 CURVE",
"389 -73 OFFCURVE",
"386 -60 OFFCURVE",
"386 -34 CURVE",
"386 281 LINE SMOOTH",
"386 311 OFFCURVE",
"385 338 OFFCURVE",
"394 346 CURVE",
"405 355 OFFCURVE",
"417 362 OFFCURVE",
"449 363 CURVE",
"449 396 LINE",
"341 390 OFFCURVE",
"343 390 OFFCURVE",
"235 396 CURVE",
"235 363 LINE",
"267 362 OFFCURVE",
"277 355 OFFCURVE",
"288 346 CURVE",
"297 338 OFFCURVE",
"296 311 OFFCURVE",
"296 281 CURVE SMOOTH",
"296 98 LINE",
"300 84 LINE",
"300 -149 LINE"
);
},
{
closed = 1;
nodes = (
"149 311 OFFCURVE",
"148 338 OFFCURVE",
"157 346 CURVE",
"168 355 OFFCURVE",
"178 362 OFFCURVE",
"210 363 CURVE",
"210 396 LINE",
"102 390 OFFCURVE",
"104 390 OFFCURVE",
"-4 396 CURVE",
"-4 363 LINE",
"28 362 OFFCURVE",
"40 355 OFFCURVE",
"51 346 CURVE",
"60 338 OFFCURVE",
"59 311 OFFCURVE",
"59 281 CURVE SMOOTH",
"59 95 LINE SMOOTH",
"59 22 OFFCURVE",
"105 -12 OFFCURVE",
"170 -12 CURVE SMOOTH",
"226 -12 OFFCURVE",
"294 31 OFFCURVE",
"320 109 CURVE",
"318 110 OFFCURVE",
"309 137 OFFCURVE",
"309 137 CURVE",
"288 91 OFFCURVE",
"249 50 OFFCURVE",
"207 50 CURVE SMOOTH",
"176 50 OFFCURVE",
"149 67 OFFCURVE",
"149 110 CURVE SMOOTH",
"149 281 LINE SMOOTH"
);
}
);
};
layerId = "EA62F474-A0CE-4CDB-8144-A83B4E00D785";
paths = (
{
closed = 1;
nodes = (
"12 454 LINE",
"12 415 LINE",
"85 413 OFFCURVE",
"87 391 OFFCURVE",
"87 336 CURVE",
"87 114 LINE SMOOTH",
"87 27 OFFCURVE",
"140 -15 OFFCURVE",
"218 -15 CURVE SMOOTH",
"284 -15 OFFCURVE",
"362 30 OFFCURVE",
"392 123 CURVE",
"390 124 OFFCURVE",
"379 155 OFFCURVE",
"379 155 CURVE",
"354 99 OFFCURVE",
"312 60 OFFCURVE",
"262 60 CURVE SMOOTH",
"224 60 OFFCURVE",
"195 80 OFFCURVE",
"195 132 CURVE SMOOTH",
"195 475 LINE",
"172 485 LINE"
);
},
{
closed = 1;
nodes = (
"288 454 LINE",
"288 415 LINE",
"362 413 OFFCURVE",
"363 391 OFFCURVE",
"363 336 CURVE",
"363 117 LINE",
"368 100 LINE",
"368 -5 LINE",
"391 -15 LINE",
"546 15 LINE",
"546 54 LINE",
"474 56 OFFCURVE",
"471 78 OFFCURVE",
"471 132 CURVE",
"471 475 LINE",
"449 485 LINE"
);
}
);
width = 570;
},
{
anchors = (
{
name = top;
position = "{234, 478}";
}
);
background = {
paths = (
{
closed = 1;
nodes = (
"12 366 LINE",
"12 341 LINE",
"61 341 OFFCURVE",
"70 332 OFFCURVE",
"70 292 CURVE SMOOTH",
"70 121 LINE SMOOTH",
"70 14 OFFCURVE",
"100 -10 OFFCURVE",
"163 -10 CURVE SMOOTH",
"209 -10 OFFCURVE",
"263 31 OFFCURVE",
"285 101 CURVE",
"284 102 OFFCURVE",
"277 124 OFFCURVE",
"277 124 CURVE",
"258 71 OFFCURVE",
"221 39 OFFCURVE",
"178 39 CURVE SMOOTH",
"145 39 OFFCURVE",
"125 54 OFFCURVE",
"125 107 CURVE SMOOTH",
"125 379 LINE",
"113 384 LINE"
);
},
{
closed = 1;
nodes = (
"219 366 LINE",
"219 341 LINE",
"268 341 OFFCURVE",
"277 332 OFFCURVE",
"277 292 CURVE SMOOTH",
"277 97 LINE",
"281 93 LINE",
"281 -5 LINE",
"293 -10 LINE",
"390 7 LINE",
"390 33 LINE",
"341 33 OFFCURVE",
"332 42 OFFCURVE",
"332 82 CURVE SMOOTH",
"332 379 LINE",
"320 384 LINE"
);
}
);
};
layerId = "B1D0FA45-0BED-409D-9800-57F37CCD9690";
rightMetricsKey = "=i";
paths = (
{
closed = 1;
nodes = (
"15 438 LINE",
"15 408 LINE",
"73 408 OFFCURVE",
"84 397 OFFCURVE",
"84 350 CURVE SMOOTH",
"84 144 LINE SMOOTH",
"84 17 OFFCURVE",
"120 -12 OFFCURVE",
"195 -12 CURVE SMOOTH",
"250 -12 OFFCURVE",
"305 31 OFFCURVE",
"341 112 CURVE",
"339 114 OFFCURVE",
"331 148 OFFCURVE",
"331 148 CURVE",
"308 85 OFFCURVE",
"264 47 OFFCURVE",
"213 47 CURVE SMOOTH",
"174 47 OFFCURVE",
"150 64 OFFCURVE",
"150 128 CURVE SMOOTH",
"150 454 LINE",
"135 459 LINE"
);
},
{
closed = 1;
nodes = (
"262 438 LINE",
"262 408 LINE",
"320 408 OFFCURVE",
"331 397 OFFCURVE",
"331 350 CURVE SMOOTH",
"331 116 LINE",
"336 111 LINE",
"336 -6 LINE",
"351 -12 LINE",
"466 8 LINE",
"466 40 LINE",
"408 40 OFFCURVE",
"397 51 OFFCURVE",
"397 98 CURVE SMOOTH",
"397 454 LINE",
"383 459 LINE"
);
}
);
width = 485;
}
);
leftKerningGroup = u;
rightKerningGroup = u;
rightMetricsKey = i;
unicode = 0075;
},
